<svg width="21" height="20" viewBox="0 0 21 20" fill="none" xmlns="http://www.w3.org/2000/svg">
<path d="M20.1732 17.1117C19.5303 16.5522 18.9675 15.9109 18.4999 15.2049C17.9894 14.2303 17.6834 13.1661 17.5999 12.0746V8.85964C17.6043 7.1452 16.9672 5.48819 15.8084 4.19994C14.6495 2.91169 13.0486 2.08088 11.3065 1.86361V1.02408C11.3065 0.79366 11.2128 0.572675 11.0459 0.409742C10.879 0.246809 10.6526 0.155273 10.4165 0.155273C10.1805 0.155273 9.95412 0.246809 9.78721 0.409742C9.62031 0.572675 9.52654 0.79366 9.52654 1.02408V1.87662C7.80004 2.10956 6.21852 2.94539 5.07489 4.22931C3.93126 5.51323 3.30302 7.15823 3.30654 8.85964V12.0746C3.22304 13.1661 2.91705 14.2303 2.40654 15.2049C1.94712 15.9093 1.39333 16.5505 0.75987 17.1117C0.688757 17.1727 0.631764 17.2478 0.592681 17.3319C0.553599 17.4161 0.533323 17.5074 0.533203 17.5998V18.4849C0.533203 18.6575 0.603441 18.823 0.728465 18.9451C0.853489 19.0671 1.02306 19.1357 1.19987 19.1357H19.7332C19.91 19.1357 20.0796 19.0671 20.2046 18.9451C20.3296 18.823 20.3999 18.6575 20.3999 18.4849V17.5998C20.3997 17.5074 20.3795 17.4161 20.3404 17.3319C20.3013 17.2478 20.2443 17.1727 20.1732 17.1117ZM1.91987 17.8341C2.54014 17.2492 3.08627 16.5937 3.54654 15.8817C4.18961 14.7047 4.56482 13.4061 4.64654 12.0746V8.85964C4.6201 8.09693 4.75115 7.33683 5.0319 6.6246C5.31265 5.91236 5.73734 5.26256 6.2807 4.71389C6.82406 4.16522 7.47496 3.72889 8.19466 3.4309C8.91435 3.1329 9.68811 2.97933 10.4699 2.97933C11.2516 2.97933 12.0254 3.1329 12.7451 3.4309C13.4648 3.72889 14.1157 4.16522 14.659 4.71389C15.2024 5.26256 15.6271 5.91236 15.9078 6.6246C16.1886 7.33683 16.3196 8.09693 16.2932 8.85964V12.0746C16.3749 13.4061 16.7501 14.7047 17.3932 15.8817C17.8535 16.5937 18.3996 17.2492 19.0199 17.8341H1.91987Z" fill="#606060"/>
</svg>
