<svg width="13" height="11" viewBox="0 0 13 11" fill="none" xmlns="http://www.w3.org/2000/svg">
<path d="M1.8946 0.355347L1.35497 0.894972L3.68747 3.21472L7.84772 7.37497L8.56247 8.10172L11.1053 10.6442L11.6446 10.1053L9.31247 7.7736C10.9002 6.98685 11.9652 5.81947 12.0312 5.74597L12.254 5.49997L12.0312 5.25397C11.93 5.1411 9.53222 2.49997 6.49997 2.49997C5.7661 2.49997 5.0731 2.66122 4.43747 2.8986L1.8946 0.355347ZM6.49997 3.24997C7.30697 3.24997 8.07047 3.47685 8.74997 3.78922C8.99424 4.19203 9.1239 4.65389 9.12497 5.12497C9.12461 5.7807 8.87779 6.41235 8.43347 6.8946L7.36735 5.8281C7.52372 5.6361 7.62497 5.3931 7.62497 5.12497C7.62497 4.8266 7.50644 4.54045 7.29547 4.32948C7.08449 4.1185 6.79834 3.99997 6.49997 3.99997C6.23185 3.99997 5.98885 4.10122 5.79685 4.25797L5.03522 3.49597C5.50097 3.35235 5.98885 3.24997 6.49997 3.24997ZM3.0076 3.58972C1.80497 4.3296 1.02422 5.19097 0.968722 5.25397L0.745972 5.49997L0.968722 5.74597C1.06547 5.85472 3.28622 8.28472 6.1486 8.47672C6.2641 8.48797 6.3811 8.49997 6.49997 8.49997C6.61755 8.49823 6.73496 8.49034 6.85172 8.47635C7.15546 8.45795 7.4572 8.41493 7.75397 8.34772L7.08572 7.67947C6.89374 7.72491 6.69725 7.74856 6.49997 7.74997C5.05247 7.74997 3.87497 6.57247 3.87497 5.12497C3.87497 4.92585 3.90122 4.73122 3.94547 4.53885L3.0076 3.58972ZM3.21872 4.35135C3.15771 4.60474 3.12625 4.86434 3.12497 5.12497C3.12384 5.75042 3.29848 6.3636 3.62897 6.8946C2.95806 6.50562 2.33635 6.03738 1.77722 5.49997C2.22037 5.07244 2.70303 4.68784 3.21872 4.35135ZM9.78122 4.35135C10.2965 4.68838 10.7791 5.07294 11.2227 5.49997C10.8856 5.8251 10.2192 6.41422 9.35935 6.90622C9.69417 6.37226 9.87278 5.75522 9.87497 5.12497C9.87497 4.86247 9.84122 4.60372 9.78122 4.35135Z" fill="#EB2222"/>
</svg>
