<svg width="11" height="11" viewBox="0 0 11 11" fill="none" xmlns="http://www.w3.org/2000/svg">
<path d="M3.9 9.59948C3.77327 9.72639 3.62277 9.82709 3.4571 9.89581C3.29144 9.96453 3.11385 9.99992 2.9345 9.99998H1V8.07798C1 7.71598 1.144 7.36848 1.4 7.11248M3.9 9.59948L1.4 7.11248M3.9 9.59948L8.887 4.61048M1.4 7.11248L6.392 2.11498L7.105 1.40098C7.23188 1.27391 7.38255 1.17309 7.54842 1.10429C7.71428 1.03548 7.89208 1.00005 8.07165 1C8.25121 0.999954 8.42903 1.0353 8.59493 1.10402C8.76083 1.17273 8.91156 1.27347 9.0385 1.40048L9.6015 1.96398C9.85776 2.22025 10.0017 2.56781 10.0017 2.93023C10.0017 3.29264 9.85776 3.64021 9.6015 3.89648L8.887 4.61048M8.887 4.61048L6.3915 2.11498" stroke="#FC6435" stroke-linecap="round" stroke-linejoin="round"/>
</svg>
