<svg width="30" height="30" viewBox="0 0 30 30" fill="none" xmlns="http://www.w3.org/2000/svg">
<path d="M15 0C6.72875 0 0 6.72875 0 15C0 23.2712 6.72875 30 15 30C23.2712 30 30 23.2712 30 15C30 6.72875 23.2712 0 15 0ZM15 2.5C17.3667 2.50573 19.6832 3.18324 21.68 4.45375L20.6637 4.57L20.8988 7.07L19.57 6.48375L18.4762 7.42125L18.6725 10L21.3675 9.14L24.7262 10.235L23.8675 11.7975L21.8363 10.5475L19.6488 10.86L17.5 12.4587L16.2887 16.2087L18.7113 18.2025C18.7113 18.2025 21.1963 17.7725 21.3275 17.7725C21.46 17.7725 22.3825 20.0375 22.3825 20.0375L20.3913 26.2875C18.765 27.0638 16.9287 27.4988 15 27.4988C14.605 27.4988 14.2137 27.455 13.8275 27.42L12.4613 25.0375L13.7887 20.0375L8.75 16.25H4.10125L2.89125 13.7887L6.25 11.1325L11.25 8.75L10.5075 5.43L12.6562 4.96125L13.6725 6.3675L17.4225 5.66375L16.7575 2.77375L13.985 2.5775C14.3162 2.55375 14.6575 2.5 15 2.5ZM13.5938 2.57875L11.64 3.39875L10.7025 3.2425C11.6364 2.90685 12.607 2.68361 13.5938 2.5775V2.57875ZM2.5775 15.975L3.79 17.3813V19.96L6.1325 22.5375H7.5775L11.1325 26.9125C6.41625 25.385 2.97375 21.1125 2.5775 15.975Z" fill="white"/>
</svg>
