<svg width="10" height="12" viewBox="0 0 10 12" fill="none" xmlns="http://www.w3.org/2000/svg">
<path d="M6.125 5.25C6.125 4.95163 6.00647 4.66548 5.7955 4.4545C5.58452 4.24353 5.29837 4.125 5 4.125C4.70163 4.125 4.41548 4.24353 4.2045 4.4545C3.99353 4.66548 3.875 4.95163 3.875 5.25C3.875 5.54837 3.99353 5.83452 4.2045 6.0455C4.41548 6.25647 4.70163 6.375 5 6.375C5.29837 6.375 5.58452 6.25647 5.7955 6.0455C6.00647 5.83452 6.125 5.54837 6.125 5.25ZM9.5 5.25C9.5 7.4055 7.17725 9.762 5.86925 10.9185C5.63008 11.1321 5.32065 11.2501 5 11.2501C4.67935 11.2501 4.36992 11.1321 4.13075 10.9185C2.82275 9.762 0.5 7.4055 0.5 5.25C0.5 4.65905 0.616396 4.07389 0.842542 3.52792C1.06869 2.98196 1.40016 2.48588 1.81802 2.06802C2.23588 1.65016 2.73196 1.31869 3.27792 1.09254C3.82389 0.866396 4.40905 0.75 5 0.75C5.59095 0.75 6.17611 0.866396 6.72208 1.09254C7.26804 1.31869 7.76412 1.65016 8.18198 2.06802C8.59984 2.48588 8.93131 2.98196 9.15746 3.52792C9.3836 4.07389 9.5 4.65905 9.5 5.25ZM8.75 5.25C8.75 4.25544 8.35491 3.30161 7.65165 2.59835C6.94839 1.89509 5.99456 1.5 5 1.5C4.00544 1.5 3.05161 1.89509 2.34835 2.59835C1.64509 3.30161 1.25 4.25544 1.25 5.25C1.25 6.081 1.71125 7.04625 2.4275 8.01225C3.128 8.95575 3.99275 9.795 4.62725 10.3567C4.72934 10.4493 4.86221 10.5006 5 10.5006C5.13779 10.5006 5.27066 10.4493 5.37275 10.3567C6.00725 9.795 6.87275 8.9565 7.5725 8.01225C8.28875 7.04625 8.75 6.081 8.75 5.25Z" fill="#606060"/>
</svg>
