<svg width="34" height="33" viewBox="0 0 34 33" fill="none" xmlns="http://www.w3.org/2000/svg">
<path d="M33.1222 28.6622C32.0508 27.7298 31.1128 26.6608 30.3334 25.4842C29.4825 23.8599 28.9725 22.0862 28.8334 20.267V14.9088C28.8407 12.0514 27.7789 9.28967 25.8475 7.1426C23.9161 4.99552 21.248 3.61083 18.3445 3.24871V1.8495C18.3445 1.46547 18.1882 1.09716 17.91 0.825603C17.6318 0.554048 17.2545 0.401489 16.8611 0.401489C16.4677 0.401489 16.0904 0.554048 15.8123 0.825603C15.5341 1.09716 15.3778 1.46547 15.3778 1.8495V3.2704C12.5003 3.65863 9.86444 5.05169 7.95839 7.19155C6.05235 9.33142 5.00528 12.0731 5.01114 14.9088V20.267C4.87198 22.0862 4.362 23.8599 3.51114 25.4842C2.74545 26.6581 1.82247 27.7269 0.766694 28.6622C0.648173 28.7638 0.553184 28.889 0.488046 29.0292C0.422909 29.1695 0.389116 29.3217 0.388916 29.4757V30.9508C0.388916 31.2385 0.505979 31.5144 0.714353 31.7178C0.922727 31.9212 1.20534 32.0355 1.50003 32.0355H32.3889C32.6836 32.0355 32.9662 31.9212 33.1746 31.7178C33.383 31.5144 33.5 31.2385 33.5 30.9508V29.4757C33.4998 29.3217 33.466 29.1695 33.4009 29.0292C33.3358 28.889 33.2408 28.7638 33.1222 28.6622ZM2.70003 29.8662C3.73381 28.8913 4.64403 27.7988 5.41114 26.6122C6.48293 24.6506 7.10828 22.4862 7.24447 20.267V14.9088C7.20041 13.6376 7.41883 12.3707 7.88674 11.1837C8.35466 9.99664 9.06248 8.91363 9.96808 7.99918C10.8737 7.08472 11.9585 6.35752 13.158 5.86086C14.3575 5.3642 15.6471 5.10825 16.95 5.10825C18.253 5.10825 19.5426 5.3642 20.7421 5.86086C21.9415 6.35752 23.0264 7.08472 23.932 7.99918C24.8376 8.91363 25.5454 9.99664 26.0133 11.1837C26.4812 12.3707 26.6997 13.6376 26.6556 14.9088V20.267C26.7918 22.4862 27.4171 24.6506 28.4889 26.6122C29.256 27.7988 30.1662 28.8913 31.2 29.8662H2.70003Z" fill="white"/>
</svg>
