<svg width="41" height="40" viewBox="0 0 41 40" fill="none" xmlns="http://www.w3.org/2000/svg">
<circle cx="20.5" cy="20" r="20" fill="#FC6435"/>
<path d="M23.316 23.72V25H17.572V23.72H19.844V17.48C19.748 17.608 19.5987 17.7467 19.396 17.896C19.1933 18.0347 18.964 18.168 18.708 18.296C18.452 18.424 18.196 18.5307 17.94 18.616C17.684 18.6907 17.4493 18.728 17.236 18.728V17.384C17.4707 17.384 17.7267 17.32 18.004 17.192C18.292 17.0533 18.5693 16.8933 18.836 16.712C19.1027 16.5307 19.3267 16.36 19.508 16.2C19.7 16.04 19.812 15.928 19.844 15.864H21.284V23.72H23.316Z" fill="white"/>
</svg>
