<svg width="17" height="18" viewBox="0 0 17 18" fill="none" xmlns="http://www.w3.org/2000/svg">
<path d="M3.29167 3.79167L13.7083 14.2083M8.5 16.5C7.51509 16.5 6.53982 16.306 5.62987 15.9291C4.71993 15.5522 3.89314 14.9997 3.1967 14.3033C2.50026 13.6069 1.94781 12.7801 1.5709 11.8701C1.19399 10.9602 1 9.98491 1 9C1 8.01509 1.19399 7.03982 1.5709 6.12987C1.94781 5.21993 2.50026 4.39314 3.1967 3.6967C3.89314 3.00026 4.71993 2.44781 5.62987 2.0709C6.53982 1.69399 7.51509 1.5 8.5 1.5C10.4891 1.5 12.3968 2.29018 13.8033 3.6967C15.2098 5.10322 16 7.01088 16 9C16 10.9891 15.2098 12.8968 13.8033 14.3033C12.3968 15.7098 10.4891 16.5 8.5 16.5Z" stroke="#EB2222" stroke-width="2" stroke-linecap="round" stroke-linejoin="round"/>
</svg>
