<svg width="36" height="36" viewBox="0 0 36 36" fill="none" xmlns="http://www.w3.org/2000/svg">
<path d="M32.3967 21.56L32.3133 20.7317L32.2883 20.7334L32.26 20.7384L32.3967 21.56ZM32.3967 21.56L32.48 22.39L32.5083 22.3867L32.535 22.3817L32.3967 21.56ZM25.6633 30.6967L26.1917 30.0517L26.1833 30.0467L25.6633 30.6967ZM25.6633 30.6967L25.135 31.3417L25.1433 31.3484L25.6633 30.6967ZM10.3367 30.6967L9.80833 30.0534L9.79667 30.0634L9.78333 30.075L10.3367 30.6967ZM10.3367 30.6967L10.865 31.3434L10.8783 31.3317L10.89 31.3217L10.3367 30.6967ZM3.60167 14.44V13.6067H3.56167L3.52 13.61L3.60167 14.44ZM3.60167 14.44V15.2734H3.64333L3.685 15.2684L3.60167 14.44ZM22.3867 3.51838C22.3617 3.21618 22.3267 2.91491 22.2817 2.61504C22.2435 2.34971 22.1636 2.09208 22.045 1.85171L20.5633 2.61671C20.58 2.65004 20.6083 2.71671 20.6367 2.89004C20.6683 3.07338 20.6917 3.31171 20.73 3.68338L22.3867 3.51838ZM22.7133 5.52338C22.6933 5.49838 22.6333 5.39671 22.5683 5.04004C22.4908 4.53505 22.4324 4.02752 22.39 3.51838L20.73 3.68338C20.7967 4.35171 20.8517 4.90504 20.9283 5.33504C21.0033 5.75504 21.12 6.18337 21.3883 6.53504L22.7133 5.52338ZM23.4867 5.84338C23.341 5.86298 23.1927 5.8437 23.0569 5.7875C22.9211 5.7313 22.8026 5.64018 22.7133 5.52338L21.3867 6.53337C21.6543 6.88435 22.0101 7.15821 22.4179 7.32712C22.8257 7.49603 23.2709 7.55396 23.7083 7.49504L23.4867 5.84338ZM25.1333 4.65504C24.5917 5.10004 24.2217 5.40171 23.93 5.60337C23.6317 5.81004 23.5167 5.83838 23.4867 5.84338L23.7083 7.49504C24.145 7.43671 24.53 7.21671 24.8817 6.97171C25.24 6.72171 25.6683 6.37171 26.19 5.94504L25.1333 4.65504ZM26.5533 3.72004C26.2867 3.80504 26.0617 3.94004 25.8483 4.09171C25.6417 4.23837 25.4067 4.43171 25.1333 4.65504L26.19 5.94504C26.4783 5.70838 26.665 5.55671 26.815 5.45004C26.8895 5.39004 26.9727 5.3417 27.0617 5.30671L26.5533 3.72004ZM28.3083 3.80671C27.7531 3.56641 27.1295 3.53562 26.5533 3.72004L27.0617 5.30671C27.2534 5.246 27.4605 5.25666 27.645 5.33671L28.3083 3.80671ZM29.6283 4.88004C29.3783 4.63004 29.1633 4.41337 28.9733 4.24671C28.7762 4.06595 28.5518 3.91745 28.3083 3.80671L27.645 5.33671C27.68 5.35171 27.7433 5.38671 27.8767 5.50338C28.015 5.62337 28.185 5.79338 28.45 6.05838L29.6283 4.88004ZM31.1167 6.36837L29.6283 4.88004L28.45 6.05838L29.9383 7.54671L31.1167 6.36837ZM32.19 7.68838C32.0787 7.44486 31.9296 7.22043 31.7483 7.02338C31.5817 6.83338 31.365 6.61837 31.1167 6.36837L29.9383 7.54671C30.2033 7.81171 30.3717 7.98171 30.495 8.12004C30.6117 8.25338 30.645 8.31671 30.66 8.35171L32.19 7.68838ZM32.2767 9.44338C32.4611 8.86716 32.4303 8.24362 32.19 7.68838L30.66 8.35171C30.7395 8.53637 30.7496 8.74355 30.6883 8.93504L32.2767 9.44338ZM31.3417 10.8634C31.565 10.59 31.7583 10.355 31.905 10.1484C32.055 9.93504 32.1917 9.71004 32.2767 9.44338L30.6883 8.93504C30.6539 9.02396 30.6061 9.10713 30.5467 9.18171C30.3879 9.39491 30.2228 9.60333 30.0517 9.80671L31.3417 10.8634ZM30.1533 12.51C30.1583 12.48 30.1867 12.365 30.3933 12.0667C30.595 11.775 30.8967 11.405 31.3417 10.8634L30.0517 9.80671C29.625 10.3284 29.2733 10.7567 29.025 11.115C28.78 11.465 28.56 11.8517 28.5017 12.2884L30.1533 12.51ZM30.4733 13.2834C30.3565 13.1941 30.2654 13.0756 30.2092 12.9398C30.153 12.804 30.1337 12.6557 30.1533 12.51L28.5017 12.2884C28.4431 12.7255 28.5011 13.1704 28.67 13.5779C28.8389 13.9854 29.1126 14.3409 29.4633 14.6084L30.4733 13.2834ZM32.4783 13.6084C31.78 13.5384 31.3067 13.4917 30.9567 13.4284C30.6 13.3634 30.4983 13.3034 30.4733 13.2834L29.4633 14.6084C29.8133 14.875 30.2417 14.9917 30.6633 15.0684C31.0917 15.145 31.6433 15.2017 32.3133 15.2684L32.4783 13.6084ZM34.145 13.9517C33.9046 13.8331 33.647 13.7532 33.3817 13.715C33.1317 13.6734 32.8283 13.6434 32.4783 13.6084L32.3117 15.2667C32.685 15.305 32.9233 15.3284 33.1067 15.36C33.2009 15.3707 33.2931 15.3954 33.38 15.4334L34.145 13.9517ZM35.3233 15.2534C35.1008 14.6913 34.6822 14.2289 34.145 13.9517L33.38 15.4334C33.5592 15.5255 33.6989 15.6795 33.7733 15.8667L35.3233 15.2534ZM35.4983 16.945C35.4983 16.5934 35.4983 16.2884 35.4817 16.035C35.4704 15.7678 35.417 15.504 35.3233 15.2534L33.7733 15.8667C33.7867 15.9017 33.8067 15.9717 33.8183 16.1467C33.8313 16.4132 33.8358 16.68 33.8317 16.9467L35.4983 16.945ZM35.4983 19.0517V16.945H33.8317V19.0517H35.4983ZM35.3233 20.7417C35.4267 20.4817 35.465 20.2217 35.4817 19.96C35.4983 19.7084 35.4983 19.4034 35.4983 19.0517H33.8317C33.8317 19.425 33.8317 19.665 33.8183 19.85C33.8175 19.9451 33.8023 20.0395 33.7733 20.13L35.3233 20.7417ZM34.145 22.045C34.6825 21.7675 35.1012 21.3044 35.3233 20.7417L33.7733 20.13C33.6989 20.3173 33.5592 20.4712 33.38 20.5634L34.145 22.045ZM32.4783 22.3884C32.8283 22.3534 33.1333 22.3217 33.3817 22.28C33.64 22.2384 33.895 22.1734 34.1433 22.0467L33.38 20.5634C33.2931 20.6014 33.201 20.6262 33.1067 20.6367C32.9233 20.6684 32.685 20.6917 32.3133 20.73L32.4783 22.3884ZM30.475 22.7134C30.5 22.6934 30.6017 22.6317 30.9583 22.5684C31.3083 22.505 31.7817 22.4567 32.4783 22.3884L32.3133 20.73C31.645 20.7967 31.0917 20.85 30.6617 20.9284C30.2417 21.0034 29.815 21.12 29.4633 21.3867L30.475 22.7134ZM30.1533 23.4867C30.1339 23.3409 30.1535 23.1925 30.21 23.0567C30.2664 22.9209 30.3579 22.8024 30.475 22.7134L29.4633 21.3867C29.1124 21.6544 28.8385 22.0101 28.6696 22.4179C28.5007 22.8257 28.4427 23.2709 28.5017 23.7084L30.1533 23.4867ZM31.3417 25.1334C31.0118 24.7433 30.6956 24.3419 30.3933 23.93C30.1867 23.6334 30.1583 23.5167 30.1533 23.4867L28.5033 23.71C28.5617 24.1467 28.7817 24.53 29.025 24.8817C29.275 25.2384 29.625 25.6684 30.0517 26.1884L31.3417 25.1334ZM32.2767 26.5534C32.1907 26.2997 32.0653 26.0613 31.905 25.8467C31.7247 25.6031 31.5368 25.3652 31.3417 25.1334L30.0517 26.1884C30.2883 26.4784 30.44 26.6634 30.5467 26.815C30.6059 26.8891 30.6537 26.9717 30.6883 27.06L32.2767 26.5534ZM32.19 28.3084C32.4303 27.7531 32.4611 27.1296 32.2767 26.5534L30.6883 27.06C30.75 27.252 30.7399 27.4599 30.66 27.645L32.19 28.3084ZM31.1183 29.6267C31.3667 29.3784 31.5817 29.1634 31.7483 28.9734C31.9217 28.775 32.0783 28.5667 32.19 28.3084L30.66 27.645C30.6164 27.7297 30.5602 27.8072 30.4933 27.875C30.3141 28.0716 30.129 28.2628 29.9383 28.4484L31.1183 29.6267ZM29.6283 31.1167L31.1183 29.6267L29.9383 28.4484L28.45 29.9384L29.6283 31.1167ZM28.3083 32.1884C28.565 32.0767 28.775 31.9217 28.9733 31.7484C29.1633 31.5817 29.3783 31.365 29.6283 31.115L28.45 29.9384C28.185 30.2034 28.015 30.3717 27.8767 30.4934C27.8083 30.5603 27.7302 30.6165 27.645 30.66L28.3083 32.1884ZM26.5533 32.2767C27.1297 32.4606 27.7533 32.4292 28.3083 32.1884L27.645 30.66C27.4603 30.7395 27.2532 30.7496 27.0617 30.6884L26.5533 32.2767ZM25.1333 31.34C25.4067 31.5634 25.6417 31.7567 25.8483 31.9034C26.0617 32.055 26.2867 32.1917 26.5533 32.2767L27.0617 30.6884C26.9727 30.6539 26.8896 30.6061 26.815 30.5467C26.6018 30.3874 26.3933 30.2218 26.19 30.05L25.1333 31.34ZM23.4867 30.1534C23.5167 30.1567 23.6333 30.1867 23.93 30.3934C24.2217 30.595 24.5917 30.8967 25.1333 31.34L26.19 30.05C25.6683 29.625 25.24 29.2734 24.8817 29.0234C24.5317 28.78 24.145 28.56 23.7083 28.5017L23.4867 30.1534ZM22.7133 30.4734C22.8026 30.3566 22.9211 30.2654 23.0569 30.2092C23.1927 30.153 23.341 30.1338 23.4867 30.1534L23.7083 28.5017C23.2713 28.4429 22.8265 28.5007 22.4191 28.6693C22.0116 28.8379 21.656 29.1113 21.3883 29.4617L22.7133 30.4734ZM22.3883 32.4784C22.4583 31.78 22.505 31.3067 22.5683 30.9567C22.6333 30.6 22.6933 30.4984 22.7133 30.4734L21.3883 29.4617C21.1217 29.8117 21.005 30.2417 20.9283 30.6617C20.8517 31.09 20.795 31.6417 20.7283 32.3117L22.3883 32.4784ZM22.045 34.145C22.1733 33.895 22.2367 33.64 22.28 33.3817C22.3233 33.1317 22.3533 32.8284 22.3883 32.4784L20.7283 32.3117C20.7052 32.5776 20.6757 32.8427 20.6367 33.1067C20.6261 33.201 20.6014 33.2931 20.5633 33.38L22.045 34.145ZM20.7433 35.3234C21.3054 35.1009 21.7678 34.6823 22.045 34.145L20.5633 33.38C20.4712 33.5592 20.3172 33.699 20.13 33.7734L20.7433 35.3234ZM19.0517 35.4984C19.4033 35.4984 19.7083 35.4984 19.9617 35.4817C20.2217 35.465 20.4833 35.4267 20.7433 35.3234L20.13 33.7734C20.0395 33.8024 19.9451 33.8175 19.85 33.8184C19.6667 33.8317 19.425 33.8317 19.05 33.8317L19.0517 35.4984ZM16.945 35.4984H19.0517L19.05 33.8317H16.945V35.4984ZM15.2533 35.3234C15.515 35.4267 15.775 35.465 16.0367 35.4817C16.2883 35.4984 16.5933 35.4984 16.945 35.4984V33.8317C16.5717 33.8317 16.3317 33.8317 16.1467 33.8184C16.0516 33.8175 15.9572 33.8023 15.8667 33.7734L15.2533 35.3234ZM13.9517 34.145C14.2288 34.6823 14.6913 35.1009 15.2533 35.3234L15.8667 33.7734C15.6794 33.699 15.5255 33.5592 15.4333 33.38L13.9517 34.145ZM13.6083 32.4784C13.6433 32.8284 13.675 33.1334 13.715 33.3817C13.7583 33.64 13.8233 33.895 13.9517 34.145L15.4333 33.38C15.3953 33.2931 15.3706 33.201 15.36 33.1067C15.321 32.8433 15.2898 32.5787 15.2667 32.3134L13.6083 32.4784ZM13.2833 30.4734C13.3033 30.4984 13.3633 30.6 13.4283 30.9567C13.4917 31.3067 13.5383 31.7817 13.6083 32.4784L15.2667 32.3134C15.2 31.645 15.145 31.0917 15.0683 30.6617C14.9933 30.2417 14.8767 29.8134 14.6083 29.4617L13.2833 30.4734ZM12.51 30.1534C12.6557 30.1338 12.8039 30.153 12.9398 30.2092C13.0756 30.2654 13.1941 30.3566 13.2833 30.4734L14.6083 29.4617C14.3408 29.111 13.9853 28.839 13.5779 28.6701C13.1704 28.5012 12.7255 28.4431 12.2883 28.5017L12.51 30.1534ZM10.8633 31.3417C11.405 30.8967 11.775 30.595 12.0667 30.3934C12.365 30.1867 12.48 30.1567 12.51 30.1534L12.2883 28.5017C11.8517 28.56 11.4667 28.78 11.115 29.025C10.7567 29.2734 10.3283 29.625 9.80667 30.0517L10.8633 31.3417ZM9.44333 32.2767C9.71 32.1917 9.935 32.0567 10.1483 31.905C10.355 31.7584 10.59 31.565 10.8633 31.3417L9.80667 30.0517C9.60329 30.2229 9.39486 30.3879 9.18167 30.5467C9.10712 30.6062 9.02394 30.654 8.935 30.6884L9.44333 32.2767ZM7.68833 32.1917C8.24358 32.432 8.86712 32.4611 9.44333 32.2767L8.935 30.6884C8.7435 30.7496 8.53633 30.7395 8.35167 30.66L7.68833 32.1917ZM6.36833 31.1167C6.61833 31.3667 6.83333 31.5834 7.02333 31.75C7.22 31.9217 7.43167 32.08 7.68833 32.1917L8.35167 30.66C8.26643 30.6166 8.18831 30.5604 8.12 30.4934C7.92345 30.3141 7.73225 30.129 7.54667 29.9384L6.36833 31.1167ZM4.88 29.6284L6.36833 31.1167L7.54667 29.9384L6.05833 28.45L4.88 29.6284ZM3.80667 28.3084C3.91833 28.565 4.075 28.775 4.24833 28.9734C4.415 29.1634 4.63167 29.3784 4.88 29.6284L6.05833 28.45C5.86714 28.2645 5.6815 28.0733 5.50167 27.8767C5.4347 27.8084 5.37851 27.7303 5.335 27.645L3.80667 28.3084ZM3.72 26.5534C3.53558 27.1296 3.56637 27.7531 3.80667 28.3084L5.335 27.645C5.25495 27.4606 5.24596 27.2534 5.30667 27.0617L3.72 26.5534ZM4.655 25.1334C4.43167 25.4067 4.23833 25.6417 4.09167 25.8484C3.93155 26.0624 3.80612 26.3003 3.72 26.5534L5.30667 27.0617C5.34166 26.9727 5.38999 26.8895 5.45 26.815C5.55667 26.665 5.70833 26.4784 5.945 26.19L4.655 25.1334ZM5.84333 23.4867C5.83833 23.5167 5.81 23.6317 5.60333 23.93C5.4 24.2217 5.1 24.5917 4.655 25.1334L5.945 26.19C6.37167 25.6684 6.72333 25.24 6.97167 24.8817C7.21667 24.5317 7.43667 24.145 7.495 23.7084L5.84333 23.4867ZM5.52333 22.7134C5.64013 22.8026 5.73126 22.9211 5.78746 23.057C5.84366 23.1928 5.86293 23.341 5.84333 23.4867L7.495 23.7084C7.55361 23.2712 7.49552 22.8263 7.32663 22.4189C7.15773 22.0114 6.88404 21.6559 6.53333 21.3884L5.52333 22.7134ZM3.51833 22.39C4.21667 22.4584 4.69 22.505 5.04 22.5684C5.39667 22.6334 5.49833 22.6934 5.52333 22.7134L6.53333 21.3867C6.18333 21.12 5.755 21.0034 5.33333 20.9284C4.905 20.8517 4.35333 20.795 3.68333 20.7284L3.51833 22.39ZM1.85167 22.045C2.10167 22.1734 2.35667 22.2367 2.615 22.28C2.865 22.3234 3.16667 22.355 3.51833 22.39L3.685 20.73C3.41912 20.7069 3.154 20.6758 2.89 20.6367C2.79573 20.6261 2.70359 20.6014 2.61667 20.5634L1.85167 22.045ZM0.673333 20.7417C0.895479 21.3044 1.31413 21.7675 1.85167 22.045L2.61667 20.5634C2.43748 20.4712 2.29775 20.3173 2.22333 20.13L0.673333 20.7417ZM0.5 19.055C0.5 19.4067 0.5 19.7117 0.516667 19.965C0.527453 20.2318 0.580908 20.4952 0.675 20.745L2.225 20.1334C2.19603 20.0428 2.18086 19.9484 2.18 19.8534C2.16761 19.5869 2.16317 19.3201 2.16667 19.0534L0.5 19.055ZM0.5 16.9484V19.055H2.16667V16.9484H0.5ZM0.675 15.2567C0.581272 15.5078 0.527835 15.7722 0.516667 16.04C0.5 16.2917 0.5 16.5967 0.5 16.9484H2.16667C2.16667 16.575 2.16667 16.335 2.18 16.15C2.1808 16.055 2.19598 15.9606 2.225 15.87L0.675 15.2567ZM1.85333 13.955C1.3161 14.2322 0.897485 14.6946 0.675 15.2567L2.225 15.87C2.29941 15.6828 2.43915 15.5288 2.61833 15.4367L1.85333 13.955ZM3.52 13.61C3.17 13.645 2.865 13.6784 2.61667 13.7184C2.35133 13.7565 2.09371 13.8364 1.85333 13.955L2.61833 15.4367C2.65167 15.42 2.71833 15.3917 2.89167 15.3634C3.075 15.3317 3.31333 15.3084 3.685 15.27L3.52 13.61ZM5.525 13.2867C5.5 13.3067 5.39833 13.3667 5.04167 13.4317C4.69167 13.495 4.21833 13.54 3.52 13.61L3.685 15.27C4.35333 15.2034 4.90833 15.1484 5.33667 15.0717C5.75833 14.9967 6.18667 14.88 6.53667 14.6117L5.525 13.2867ZM5.845 12.5134C5.8646 12.659 5.84532 12.8073 5.78912 12.9431C5.73292 13.0789 5.6418 13.1975 5.525 13.2867L6.53667 14.6117C6.88707 14.344 7.16044 13.9884 7.32904 13.581C7.49764 13.1735 7.55547 12.7271 7.49667 12.29L5.845 12.5134ZM4.65667 10.865C5.10167 11.4084 5.40333 11.7784 5.60667 12.07C5.81333 12.3684 5.84 12.4834 5.845 12.5134L7.49667 12.29C7.43833 11.8534 7.21833 11.47 6.97333 11.1184C6.725 10.76 6.37333 10.3317 5.94667 9.81004L4.65667 10.865ZM3.72167 9.44504C3.805 9.71171 3.94167 9.93837 4.09333 10.1517C4.24 10.3567 4.43333 10.5934 4.65667 10.865L5.94667 9.81004C5.77549 9.60611 5.61042 9.39713 5.45167 9.18338C5.39181 9.10941 5.34348 9.0268 5.30833 8.93838L3.72167 9.44504ZM3.80833 7.69171C3.56845 8.24646 3.53766 8.86934 3.72167 9.44504L5.30833 8.93838C5.24763 8.74668 5.25828 8.5395 5.33833 8.35504L3.80833 7.69171ZM4.88167 6.37171C4.63167 6.62004 4.415 6.83504 4.24833 7.02671C4.06759 7.22384 3.9191 7.44827 3.80833 7.69171L5.33833 8.35504C5.38196 8.2704 5.43815 8.19119 5.505 8.12337C5.68355 7.92612 5.86865 7.7349 6.06 7.55004L4.88167 6.37171ZM6.37 4.88171L4.88167 6.37171L6.06 7.55004L7.54833 6.06004L6.37 4.88171ZM7.69 3.81004C7.44663 3.92093 7.22222 4.06941 7.025 4.25004C6.835 4.41671 6.61833 4.63171 6.37 4.88171L7.54833 6.06004C7.81333 5.79671 7.98333 5.62671 8.12167 5.50504C8.255 5.38837 8.31833 5.35504 8.35333 5.33838L7.69 3.81004ZM9.445 3.72171C8.86858 3.53781 8.24504 3.5692 7.69 3.81004L8.35333 5.33838C8.53779 5.25833 8.74497 5.24934 8.93667 5.31004L9.445 3.72171ZM10.865 4.65838C10.5917 4.43504 10.3567 4.24171 10.15 4.09504C9.93612 3.93426 9.69819 3.80827 9.445 3.72171L8.93667 5.31004C9.02558 5.34452 9.10874 5.39229 9.18333 5.45171C9.33333 5.56004 9.52 5.71171 9.81 5.94838L10.865 4.65838ZM12.5117 5.84671C12.4817 5.84171 12.3667 5.81338 12.0683 5.60671C11.6564 5.30398 11.2551 4.98879 10.865 4.65838L9.81 5.94838C10.33 6.37504 10.76 6.72671 11.1167 6.97504C11.4667 7.21838 11.8533 7.43837 12.29 7.49837L12.5117 5.84671ZM13.285 5.52504C13.196 5.64215 13.0775 5.73359 12.9417 5.79009C12.8059 5.84659 12.6575 5.86612 12.5117 5.84671L12.29 7.49837C12.7273 7.55748 13.1724 7.49814 13.5802 7.32952C13.988 7.16091 14.3438 6.88738 14.6117 6.53671L13.285 5.52504ZM13.61 3.52171C13.54 4.21838 13.4933 4.69338 13.43 5.04171C13.365 5.39838 13.305 5.50004 13.285 5.52504L14.6117 6.53671C14.8783 6.18671 14.995 5.75838 15.07 5.33671C15.1467 4.90838 15.2033 4.35671 15.27 3.68671L13.61 3.52171ZM13.9533 1.85504C13.825 2.10504 13.76 2.36004 13.7167 2.61838C13.675 2.86838 13.645 3.17004 13.61 3.52171L15.2683 3.68838C15.2915 3.4225 15.3226 3.15738 15.3617 2.89338C15.3722 2.79909 15.3969 2.70693 15.435 2.62004L13.9533 1.85504ZM15.2567 0.676709C14.6937 0.899267 14.2306 1.31688 13.9533 1.85504L15.435 2.62004C15.5271 2.44086 15.6811 2.30112 15.8683 2.22671L15.2567 0.676709ZM16.9467 0.501709C16.595 0.501709 16.29 0.501709 16.0367 0.518376C15.7699 0.529162 15.5065 0.582617 15.2567 0.676709L15.8683 2.22671C15.9589 2.19769 16.0533 2.18251 16.1483 2.18171C16.3317 2.16838 16.5733 2.16838 16.9483 2.16838L16.9467 0.501709ZM19.0533 0.501709H16.9467V2.16838H19.0533V0.501709ZM20.745 0.676709C20.4939 0.582954 20.2295 0.529516 19.9617 0.518376C19.71 0.501709 19.405 0.501709 19.0533 0.501709V2.16838C19.4267 2.16838 19.6667 2.16838 19.8517 2.18171C19.9467 2.18305 20.041 2.19821 20.1317 2.22671L20.745 0.676709ZM22.0467 1.85504C21.7691 1.31751 21.306 0.898854 20.7433 0.676709L20.1317 2.22671C20.3189 2.30112 20.4729 2.44086 20.565 2.62004L22.0467 1.85504ZM23.8333 18C23.8333 19.5471 23.2188 21.0309 22.1248 22.1248C21.0308 23.2188 19.5471 23.8334 18 23.8334V25.5C19.9891 25.5 21.8968 24.7099 23.3033 23.3033C24.7098 21.8968 25.5 19.9892 25.5 18H23.8333ZM18 12.1667C19.5471 12.1667 21.0308 12.7813 22.1248 13.8753C23.2188 14.9692 23.8333 16.4529 23.8333 18H25.5C25.5 16.0109 24.7098 14.1033 23.3033 12.6967C21.8968 11.2902 19.9891 10.5 18 10.5V12.1667ZM12.1667 18C12.1667 16.4529 12.7812 14.9692 13.8752 13.8753C14.9692 12.7813 16.4529 12.1667 18 12.1667V10.5C16.0109 10.5 14.1032 11.2902 12.6967 12.6967C11.2902 14.1033 10.5 16.0109 10.5 18H12.1667ZM18 23.8334C16.4529 23.8334 14.9692 23.2188 13.8752 22.1248C12.7812 21.0309 12.1667 19.5471 12.1667 18H10.5C10.5 19.9892 11.2902 21.8968 12.6967 23.3033C14.1032 24.7099 16.0109 25.5 18 25.5V23.8334Z" fill="white"/>
</svg>
