<svg width="41" height="40" viewBox="0 0 41 40" fill="none" xmlns="http://www.w3.org/2000/svg">
<circle cx="20.5" cy="20" r="20" fill="#8F8F8F"/>
<path d="M22.228 21.224C22.6867 21.2987 23.0813 21.4693 23.412 21.736C23.7427 21.992 23.9987 22.3227 24.18 22.728C24.3613 23.1227 24.452 23.5707 24.452 24.072C24.452 24.7227 24.292 25.2933 23.972 25.784C23.6627 26.2853 23.22 26.6693 22.644 26.936C22.068 27.2133 21.396 27.352 20.628 27.352C19.8173 27.352 19.1027 27.1973 18.484 26.888C17.876 26.5893 17.4013 26.1627 17.06 25.608L18.004 24.664C18.2493 25.0907 18.58 25.432 18.996 25.688C19.4227 25.944 19.9667 26.072 20.628 26.072C21.364 26.072 21.94 25.9013 22.356 25.56C22.7827 25.2293 22.996 24.7333 22.996 24.072C22.996 23.4 22.7667 22.8667 22.308 22.472C21.86 22.0667 21.204 21.864 20.34 21.864H19.924V20.68H20.372C21.14 20.68 21.7267 20.4933 22.132 20.12C22.548 19.7467 22.756 19.2827 22.756 18.728C22.756 18.344 22.6653 18.0293 22.484 17.784C22.3027 17.5387 22.0573 17.3573 21.748 17.24C21.4387 17.112 21.0813 17.048 20.676 17.048C20.0893 17.048 19.572 17.176 19.124 17.432C18.6867 17.6773 18.3453 18.024 18.1 18.472L17.236 17.576C17.428 17.2133 17.7 16.8987 18.052 16.632C18.4147 16.3653 18.8307 16.1573 19.3 16.008C19.78 15.8587 20.2867 15.784 20.82 15.784C21.492 15.784 22.084 15.9013 22.596 16.136C23.1187 16.3707 23.524 16.7013 23.812 17.128C24.1 17.5547 24.244 18.056 24.244 18.632C24.244 19.048 24.164 19.4427 24.004 19.816C23.844 20.1787 23.6093 20.488 23.3 20.744C23.0013 20.9893 22.644 21.1493 22.228 21.224Z" fill="white"/>
</svg>
