<svg width="41" height="40" viewBox="0 0 41 40" fill="none" xmlns="http://www.w3.org/2000/svg">
<circle cx="20.5" cy="20" r="20" fill="#FC6435"/>
<path d="M17.188 25C17.188 24.5733 17.22 24.1733 17.284 23.8C17.3587 23.4267 17.4867 23.0693 17.668 22.728C17.86 22.3867 18.1267 22.0613 18.468 21.752C18.8093 21.432 19.252 21.1227 19.796 20.824C20.116 20.6427 20.436 20.472 20.756 20.312C21.0867 20.152 21.3907 19.9813 21.668 19.8C21.956 19.6187 22.1853 19.4213 22.356 19.208C22.5267 18.984 22.612 18.728 22.612 18.44C22.612 18.1947 22.5373 17.96 22.388 17.736C22.2493 17.5013 22.036 17.3147 21.748 17.176C21.4707 17.0267 21.124 16.952 20.708 16.952C20.388 16.952 20.0947 16.9947 19.828 17.08C19.572 17.1653 19.3373 17.2773 19.124 17.416C18.9213 17.544 18.74 17.6827 18.58 17.832C18.4307 17.9707 18.3027 18.0987 18.196 18.216L17.316 17.224C17.4013 17.128 17.5453 17 17.748 16.84C17.9507 16.6693 18.2067 16.4987 18.516 16.328C18.8253 16.1573 19.1827 16.0133 19.588 15.896C20.004 15.768 20.4573 15.704 20.948 15.704C21.6093 15.704 22.1747 15.8213 22.644 16.056C23.124 16.28 23.492 16.5893 23.748 16.984C24.004 17.368 24.132 17.8 24.132 18.28C24.132 18.696 24.0413 19.0587 23.86 19.368C23.6893 19.6773 23.4653 19.9493 23.188 20.184C22.9213 20.4187 22.6387 20.6213 22.34 20.792C22.052 20.952 21.7907 21.0907 21.556 21.208C21.076 21.4427 20.6653 21.656 20.324 21.848C19.9827 22.04 19.7 22.232 19.476 22.424C19.2627 22.6053 19.0867 22.7973 18.948 23C18.82 23.2027 18.724 23.4427 18.66 23.72H24.308V25H17.188Z" fill="white"/>
</svg>
