<svg width="625" height="488" viewBox="0 0 625 488" fill="none" xmlns="http://www.w3.org/2000/svg">
<rect width="625" height="488" rx="8" fill="white"/>
<path d="M17.332 33V20.22H22.984C23.572 20.22 24.112 20.34 24.604 20.58C25.108 20.82 25.54 21.144 25.9 21.552C26.272 21.96 26.554 22.416 26.746 22.92C26.95 23.424 27.052 23.94 27.052 24.468C27.052 25.008 26.956 25.53 26.764 26.034C26.584 26.526 26.32 26.958 25.972 27.33C25.624 27.702 25.216 27.99 24.748 28.194L27.664 33H24.928L22.3 28.716H19.816V33H17.332ZM19.816 26.538H22.93C23.242 26.538 23.518 26.448 23.758 26.268C23.998 26.076 24.19 25.824 24.334 25.512C24.478 25.2 24.55 24.852 24.55 24.468C24.55 24.06 24.466 23.706 24.298 23.406C24.13 23.094 23.914 22.848 23.65 22.668C23.398 22.488 23.122 22.398 22.822 22.398H19.816V26.538ZM33.1263 33.18C32.3703 33.18 31.6863 33.054 31.0743 32.802C30.4623 32.538 29.9403 32.184 29.5083 31.74C29.0763 31.284 28.7403 30.768 28.5003 30.192C28.2723 29.604 28.1583 28.986 28.1583 28.338C28.1583 27.438 28.3563 26.616 28.7523 25.872C29.1603 25.128 29.7363 24.534 30.4803 24.09C31.2363 23.634 32.1243 23.406 33.1443 23.406C34.1763 23.406 35.0583 23.634 35.7903 24.09C36.5223 24.534 37.0803 25.128 37.4643 25.872C37.8603 26.604 38.0583 27.396 38.0583 28.248C38.0583 28.392 38.0523 28.542 38.0403 28.698C38.0283 28.842 38.0163 28.962 38.0043 29.058H30.7143C30.7623 29.538 30.9003 29.958 31.1283 30.318C31.3683 30.678 31.6683 30.954 32.0283 31.146C32.4003 31.326 32.7963 31.416 33.2163 31.416C33.6963 31.416 34.1463 31.302 34.5663 31.074C34.9983 30.834 35.2923 30.522 35.4483 30.138L37.5183 30.714C37.2903 31.194 36.9603 31.62 36.5283 31.992C36.1083 32.364 35.6103 32.658 35.0343 32.874C34.4583 33.078 33.8223 33.18 33.1263 33.18ZM30.6603 27.528H35.5923C35.5443 27.048 35.4063 26.634 35.1783 26.286C34.9623 25.926 34.6743 25.65 34.3143 25.458C33.9543 25.254 33.5523 25.152 33.1083 25.152C32.6763 25.152 32.2803 25.254 31.9203 25.458C31.5723 25.65 31.2843 25.926 31.0563 26.286C30.8403 26.634 30.7083 27.048 30.6603 27.528ZM41.802 33L38.328 23.568H40.83L43.206 30.804L45.6 23.568H47.886L44.43 33H41.802ZM53.2181 33.18C52.4621 33.18 51.7781 33.054 51.1661 32.802C50.5541 32.538 50.0321 32.184 49.6001 31.74C49.1681 31.284 48.8321 30.768 48.5921 30.192C48.3641 29.604 48.2501 28.986 48.2501 28.338C48.2501 27.438 48.4481 26.616 48.8441 25.872C49.2521 25.128 49.8281 24.534 50.5721 24.09C51.3281 23.634 52.2161 23.406 53.2361 23.406C54.2681 23.406 55.1501 23.634 55.8821 24.09C56.6141 24.534 57.1721 25.128 57.5561 25.872C57.9521 26.604 58.1501 27.396 58.1501 28.248C58.1501 28.392 58.1441 28.542 58.1321 28.698C58.1201 28.842 58.1081 28.962 58.0961 29.058H50.8061C50.8541 29.538 50.9921 29.958 51.2201 30.318C51.4601 30.678 51.7601 30.954 52.1201 31.146C52.4921 31.326 52.8881 31.416 53.3081 31.416C53.7881 31.416 54.2381 31.302 54.6581 31.074C55.0901 30.834 55.3841 30.522 55.5401 30.138L57.6101 30.714C57.3821 31.194 57.0521 31.62 56.6201 31.992C56.2001 32.364 55.7021 32.658 55.1261 32.874C54.5501 33.078 53.9141 33.18 53.2181 33.18ZM50.7521 27.528H55.6841C55.6361 27.048 55.4981 26.634 55.2701 26.286C55.0541 25.926 54.7661 25.65 54.4061 25.458C54.0461 25.254 53.6441 25.152 53.2001 25.152C52.7681 25.152 52.3721 25.254 52.0121 25.458C51.6641 25.65 51.3761 25.926 51.1481 26.286C50.9321 26.634 50.8001 27.048 50.7521 27.528ZM68.3855 33H65.9735V27.708C65.9735 26.952 65.8415 26.4 65.5775 26.052C65.3135 25.704 64.9475 25.53 64.4795 25.53C64.1555 25.53 63.8255 25.614 63.4895 25.782C63.1655 25.95 62.8715 26.184 62.6075 26.484C62.3435 26.772 62.1515 27.108 62.0315 27.492V33H59.6195V23.568H61.7975V25.314C62.0375 24.906 62.3435 24.564 62.7155 24.288C63.0875 24 63.5135 23.784 63.9935 23.64C64.4855 23.484 65.0015 23.406 65.5415 23.406C66.1295 23.406 66.6095 23.514 66.9815 23.73C67.3655 23.934 67.6535 24.216 67.8455 24.576C68.0495 24.924 68.1875 25.32 68.2595 25.764C68.3435 26.208 68.3855 26.658 68.3855 27.114V33ZM70.3928 29.472V23.568H72.8048V28.95C72.8048 29.67 72.9368 30.216 73.2008 30.588C73.4648 30.948 73.8548 31.128 74.3708 31.128C74.6828 31.128 74.9888 31.068 75.2888 30.948C75.6008 30.816 75.8828 30.624 76.1348 30.372C76.3988 30.12 76.6208 29.802 76.8008 29.418V23.568H79.2128V30.3C79.2128 30.552 79.2548 30.732 79.3388 30.84C79.4348 30.948 79.5848 31.014 79.7888 31.038V33C79.5488 33.036 79.3448 33.06 79.1768 33.072C79.0208 33.096 78.8768 33.108 78.7448 33.108C78.3128 33.108 77.9588 33.012 77.6828 32.82C77.4188 32.616 77.2628 32.34 77.2148 31.992L77.1608 31.236C76.7408 31.872 76.2008 32.358 75.5408 32.694C74.8808 33.018 74.1548 33.18 73.3628 33.18C72.3908 33.18 71.6528 32.868 71.1488 32.244C70.6448 31.608 70.3928 30.684 70.3928 29.472ZM85.9837 33.18C85.2277 33.18 84.5437 33.054 83.9317 32.802C83.3197 32.538 82.7977 32.184 82.3657 31.74C81.9337 31.284 81.5977 30.768 81.3577 30.192C81.1297 29.604 81.0157 28.986 81.0157 28.338C81.0157 27.438 81.2137 26.616 81.6097 25.872C82.0177 25.128 82.5937 24.534 83.3377 24.09C84.0937 23.634 84.9817 23.406 86.0017 23.406C87.0337 23.406 87.9157 23.634 88.6477 24.09C89.3797 24.534 89.9377 25.128 90.3217 25.872C90.7177 26.604 90.9157 27.396 90.9157 28.248C90.9157 28.392 90.9097 28.542 90.8977 28.698C90.8857 28.842 90.8737 28.962 90.8617 29.058H83.5717C83.6197 29.538 83.7577 29.958 83.9857 30.318C84.2257 30.678 84.5257 30.954 84.8857 31.146C85.2577 31.326 85.6537 31.416 86.0737 31.416C86.5537 31.416 87.0037 31.302 87.4237 31.074C87.8557 30.834 88.1497 30.522 88.3057 30.138L90.3757 30.714C90.1477 31.194 89.8177 31.62 89.3857 31.992C88.9657 32.364 88.4677 32.658 87.8917 32.874C87.3157 33.078 86.6797 33.18 85.9837 33.18ZM83.5177 27.528H88.4497C88.4017 27.048 88.2637 26.634 88.0357 26.286C87.8197 25.926 87.5317 25.65 87.1717 25.458C86.8117 25.254 86.4097 25.152 85.9657 25.152C85.5337 25.152 85.1377 25.254 84.7777 25.458C84.4297 25.65 84.1417 25.926 83.9137 26.286C83.6977 26.634 83.5657 27.048 83.5177 27.528Z" fill="#343434"/>
<rect x="348.5" y="17.5" width="261" height="37" rx="7.5" stroke="#FFB459"/>
<path d="M368.52 29.704H369.88L371.384 33.656L372.904 29.704H374.264L372.296 34.648L374.248 39.336L378.088 29.64H379.656L374.904 41H373.656L371.4 35.64L369.128 41H367.88L363.144 29.64H364.696L368.552 39.336L370.488 34.648L368.52 29.704ZM383.52 41.16C382.89 41.16 382.314 41.048 381.792 40.824C381.28 40.5893 380.832 40.2747 380.448 39.88C380.074 39.4747 379.781 39.0107 379.568 38.488C379.365 37.9653 379.264 37.4107 379.264 36.824C379.264 36.0347 379.445 35.3147 379.808 34.664C380.17 34.0133 380.672 33.4907 381.312 33.096C381.962 32.7013 382.704 32.504 383.536 32.504C384.378 32.504 385.109 32.7067 385.728 33.112C386.357 33.5067 386.842 34.0293 387.184 34.68C387.536 35.32 387.712 36.0133 387.712 36.76C387.712 36.8667 387.706 36.9733 387.696 37.08C387.696 37.176 387.69 37.2507 387.68 37.304H380.752C380.794 37.848 380.944 38.3333 381.2 38.76C381.466 39.176 381.808 39.5067 382.224 39.752C382.64 39.9867 383.088 40.104 383.568 40.104C384.08 40.104 384.56 39.976 385.008 39.72C385.466 39.464 385.781 39.128 385.952 38.712L387.168 39.048C386.986 39.4533 386.714 39.816 386.352 40.136C386 40.456 385.578 40.7067 385.088 40.888C384.608 41.0693 384.085 41.16 383.52 41.16ZM380.704 36.328H386.4C386.357 35.784 386.202 35.304 385.936 34.888C385.669 34.472 385.328 34.1467 384.912 33.912C384.496 33.6773 384.037 33.56 383.536 33.56C383.045 33.56 382.592 33.6773 382.176 33.912C381.76 34.1467 381.418 34.472 381.152 34.888C380.896 35.304 380.746 35.784 380.704 36.328ZM392.973 41.16C392.343 41.16 391.767 41.048 391.245 40.824C390.733 40.5893 390.285 40.2747 389.901 39.88C389.527 39.4747 389.234 39.0107 389.021 38.488C388.818 37.9653 388.717 37.4107 388.717 36.824C388.717 36.0347 388.898 35.3147 389.261 34.664C389.623 34.0133 390.125 33.4907 390.765 33.096C391.415 32.7013 392.157 32.504 392.989 32.504C393.831 32.504 394.562 32.7067 395.181 33.112C395.81 33.5067 396.295 34.0293 396.637 34.68C396.989 35.32 397.165 36.0133 397.165 36.76C397.165 36.8667 397.159 36.9733 397.149 37.08C397.149 37.176 397.143 37.2507 397.133 37.304H390.205C390.247 37.848 390.397 38.3333 390.653 38.76C390.919 39.176 391.261 39.5067 391.677 39.752C392.093 39.9867 392.541 40.104 393.021 40.104C393.533 40.104 394.013 39.976 394.461 39.72C394.919 39.464 395.234 39.128 395.405 38.712L396.621 39.048C396.439 39.4533 396.167 39.816 395.805 40.136C395.453 40.456 395.031 40.7067 394.541 40.888C394.061 41.0693 393.538 41.16 392.973 41.16ZM390.157 36.328H395.853C395.81 35.784 395.655 35.304 395.389 34.888C395.122 34.472 394.781 34.1467 394.365 33.912C393.949 33.6773 393.49 33.56 392.989 33.56C392.498 33.56 392.045 33.6773 391.629 33.912C391.213 34.1467 390.871 34.472 390.605 34.888C390.349 35.304 390.199 35.784 390.157 36.328ZM404.618 41L401.722 36.936L400.138 38.424V41H398.73V29.32H400.138V36.952L404.458 32.664H405.978L402.65 36.12L406.138 41H404.618ZM407.387 29.32H408.795V38.84C408.795 39.2987 408.859 39.5813 408.987 39.688C409.115 39.7947 409.269 39.848 409.451 39.848C409.675 39.848 409.888 39.8267 410.091 39.784C410.293 39.7307 410.464 39.6773 410.603 39.624L410.827 40.776C410.592 40.872 410.315 40.952 409.995 41.016C409.675 41.08 409.392 41.112 409.147 41.112C408.603 41.112 408.171 40.9573 407.851 40.648C407.541 40.3387 407.387 39.9067 407.387 39.352V29.32ZM412.02 43.272C412.159 43.2827 412.297 43.2933 412.436 43.304C412.575 43.3253 412.681 43.336 412.756 43.336C412.927 43.336 413.076 43.2773 413.204 43.16C413.332 43.0427 413.471 42.8133 413.62 42.472C413.78 42.1413 413.983 41.6507 414.228 41L410.692 32.648H412.18L414.996 39.576L417.54 32.648H418.932L414.868 43.192C414.772 43.4373 414.628 43.6667 414.436 43.88C414.255 44.104 414.02 44.28 413.732 44.408C413.444 44.536 413.097 44.6 412.692 44.6C412.596 44.6 412.495 44.5947 412.388 44.584C412.292 44.5733 412.169 44.552 412.02 44.52V43.272Z" fill="#FF8458"/>
<path d="M455.184 42V33.328L451.44 40H450.56L446.8 33.328V42H445.36V30.64H446.88L450.992 38.016L455.12 30.64H456.624V42H455.184ZM462.628 42.16C461.998 42.16 461.428 42.048 460.916 41.824C460.404 41.5893 459.961 41.2747 459.588 40.88C459.214 40.4747 458.926 40.0107 458.724 39.488C458.521 38.9653 458.42 38.416 458.42 37.84C458.42 37.2533 458.521 36.6987 458.724 36.176C458.926 35.6533 459.214 35.1947 459.588 34.8C459.961 34.3947 460.404 34.08 460.916 33.856C461.438 33.6213 462.009 33.504 462.628 33.504C463.257 33.504 463.828 33.6213 464.34 33.856C464.852 34.08 465.294 34.3947 465.668 34.8C466.052 35.1947 466.345 35.6533 466.548 36.176C466.75 36.6987 466.852 37.2533 466.852 37.84C466.852 38.416 466.75 38.9653 466.548 39.488C466.345 40.0107 466.057 40.4747 465.684 40.88C465.31 41.2747 464.862 41.5893 464.34 41.824C463.828 42.048 463.257 42.16 462.628 42.16ZM459.86 37.856C459.86 38.432 459.982 38.9547 460.228 39.424C460.484 39.8933 460.82 40.2667 461.236 40.544C461.652 40.8107 462.116 40.944 462.628 40.944C463.14 40.944 463.604 40.8053 464.02 40.528C464.446 40.2507 464.782 39.8773 465.028 39.408C465.284 38.928 465.412 38.4 465.412 37.824C465.412 37.248 465.284 36.7253 465.028 36.256C464.782 35.7867 464.446 35.4133 464.02 35.136C463.604 34.8587 463.14 34.72 462.628 34.72C462.116 34.72 461.652 34.864 461.236 35.152C460.82 35.4293 460.484 35.8027 460.228 36.272C459.982 36.7413 459.86 37.2693 459.86 37.856ZM475.806 42H474.398V37.328C474.398 36.4427 474.259 35.7973 473.982 35.392C473.715 34.976 473.305 34.768 472.75 34.768C472.366 34.768 471.982 34.864 471.598 35.056C471.225 35.248 470.889 35.5093 470.59 35.84C470.302 36.16 470.094 36.5333 469.966 36.96V42H468.558V33.648H469.838V35.44C470.062 35.0453 470.35 34.704 470.702 34.416C471.054 34.128 471.454 33.904 471.902 33.744C472.35 33.584 472.819 33.504 473.31 33.504C473.79 33.504 474.19 33.5947 474.51 33.776C474.841 33.9467 475.097 34.192 475.278 34.512C475.47 34.8213 475.603 35.1893 475.678 35.616C475.763 36.0427 475.806 36.5067 475.806 37.008V42ZM482.237 41.584C482.12 41.6373 481.96 41.7067 481.757 41.792C481.555 41.8773 481.32 41.952 481.053 42.016C480.787 42.08 480.504 42.112 480.205 42.112C479.864 42.112 479.549 42.0533 479.261 41.936C478.973 41.808 478.744 41.616 478.573 41.36C478.403 41.0933 478.317 40.7627 478.317 40.368V34.752H477.181V33.648H478.317V30.864H479.725V33.648H481.597V34.752H479.725V39.936C479.747 40.2347 479.848 40.4587 480.029 40.608C480.211 40.7467 480.424 40.816 480.669 40.816C480.947 40.816 481.203 40.768 481.437 40.672C481.672 40.576 481.827 40.5067 481.901 40.464L482.237 41.584ZM490.79 42H489.382V37.328C489.382 36.4747 489.228 35.8347 488.918 35.408C488.62 34.9813 488.188 34.768 487.622 34.768C487.26 34.768 486.892 34.864 486.518 35.056C486.156 35.248 485.836 35.5093 485.558 35.84C485.281 36.16 485.078 36.5333 484.95 36.96V42H483.542V30.32H484.95V35.44C485.281 34.8427 485.729 34.3733 486.294 34.032C486.87 33.68 487.489 33.504 488.15 33.504C488.652 33.504 489.068 33.5947 489.398 33.776C489.74 33.9467 490.012 34.192 490.214 34.512C490.417 34.832 490.561 35.2053 490.646 35.632C490.742 36.048 490.79 36.5067 490.79 37.008V42ZM493.012 30.32H494.42V39.84C494.42 40.2987 494.484 40.5813 494.612 40.688C494.74 40.7947 494.894 40.848 495.076 40.848C495.3 40.848 495.513 40.8267 495.716 40.784C495.918 40.7307 496.089 40.6773 496.228 40.624L496.452 41.776C496.217 41.872 495.94 41.952 495.62 42.016C495.3 42.08 495.017 42.112 494.772 42.112C494.228 42.112 493.796 41.9573 493.476 41.648C493.166 41.3387 493.012 40.9067 493.012 40.352V30.32ZM497.645 44.272C497.784 44.2827 497.922 44.2933 498.061 44.304C498.2 44.3253 498.306 44.336 498.381 44.336C498.552 44.336 498.701 44.2773 498.829 44.16C498.957 44.0427 499.096 43.8133 499.245 43.472C499.405 43.1413 499.608 42.6507 499.853 42L496.317 33.648H497.805L500.621 40.576L503.165 33.648H504.557L500.493 44.192C500.397 44.4373 500.253 44.6667 500.061 44.88C499.88 45.104 499.645 45.28 499.357 45.408C499.069 45.536 498.722 45.6 498.317 45.6C498.221 45.6 498.12 45.5947 498.013 45.584C497.917 45.5733 497.794 45.552 497.645 45.52V44.272Z" fill="#FF8458"/>
<rect x="531" y="24" width="57" height="24" rx="8" fill="#FFD8C8"/>
<path d="M542.36 41.5V30.14H546.296C547.512 30.14 548.525 30.396 549.336 30.908C550.157 31.4093 550.771 32.092 551.176 32.956C551.581 33.8093 551.784 34.7587 551.784 35.804C551.784 36.956 551.56 37.9587 551.112 38.812C550.664 39.6653 550.029 40.3267 549.208 40.796C548.387 41.2653 547.416 41.5 546.296 41.5H542.36ZM550.328 35.804C550.328 34.9507 550.168 34.1933 549.848 33.532C549.539 32.8707 549.085 32.3533 548.488 31.98C547.891 31.6067 547.16 31.42 546.296 31.42H543.8V40.22H546.296C547.171 40.22 547.907 40.028 548.504 39.644C549.101 39.2493 549.555 38.7213 549.864 38.06C550.173 37.388 550.328 36.636 550.328 35.804ZM552.855 39.084C552.855 38.5507 553.004 38.092 553.303 37.708C553.612 37.3133 554.034 37.0093 554.567 36.796C555.1 36.5827 555.719 36.476 556.423 36.476C556.796 36.476 557.191 36.508 557.607 36.572C558.023 36.6253 558.391 36.7107 558.711 36.828V36.22C558.711 35.58 558.519 35.0787 558.135 34.716C557.751 34.3427 557.207 34.156 556.503 34.156C556.044 34.156 555.602 34.2413 555.175 34.412C554.759 34.572 554.316 34.8067 553.847 35.116L553.335 34.124C553.879 33.7507 554.423 33.4733 554.967 33.292C555.511 33.1 556.076 33.004 556.663 33.004C557.73 33.004 558.572 33.3027 559.191 33.9C559.81 34.4867 560.119 35.308 560.119 36.364V39.9C560.119 40.0707 560.151 40.1987 560.215 40.284C560.29 40.3587 560.407 40.4013 560.567 40.412V41.5C560.428 41.5213 560.306 41.5373 560.199 41.548C560.103 41.5587 560.023 41.564 559.959 41.564C559.628 41.564 559.378 41.4733 559.207 41.292C559.047 41.1107 558.956 40.9187 558.935 40.716L558.903 40.188C558.54 40.6573 558.066 41.02 557.479 41.276C556.892 41.532 556.311 41.66 555.735 41.66C555.18 41.66 554.684 41.548 554.247 41.324C553.81 41.0893 553.468 40.78 553.223 40.396C552.978 40.0013 552.855 39.564 552.855 39.084ZM558.295 39.676C558.423 39.5267 558.524 39.3773 558.599 39.228C558.674 39.068 558.711 38.9347 558.711 38.828V37.788C558.38 37.66 558.034 37.564 557.671 37.5C557.308 37.4253 556.951 37.388 556.599 37.388C555.884 37.388 555.303 37.532 554.855 37.82C554.418 38.0973 554.199 38.4813 554.199 38.972C554.199 39.2387 554.268 39.5 554.407 39.756C554.556 40.0013 554.77 40.204 555.047 40.364C555.335 40.524 555.687 40.604 556.103 40.604C556.54 40.604 556.956 40.5187 557.351 40.348C557.746 40.1667 558.06 39.9427 558.295 39.676ZM562.37 41.5V33.148H563.778V41.5H562.37ZM562.37 31.58V29.82H563.778V31.58H562.37ZM566.09 29.82H567.498V39.34C567.498 39.7987 567.562 40.0813 567.69 40.188C567.818 40.2947 567.973 40.348 568.154 40.348C568.378 40.348 568.591 40.3267 568.794 40.284C568.997 40.2307 569.167 40.1773 569.306 40.124L569.53 41.276C569.295 41.372 569.018 41.452 568.698 41.516C568.378 41.58 568.095 41.612 567.85 41.612C567.306 41.612 566.874 41.4573 566.554 41.148C566.245 40.8387 566.09 40.4067 566.09 39.852V29.82ZM570.723 43.772C570.862 43.7827 571 43.7933 571.139 43.804C571.278 43.8253 571.384 43.836 571.459 43.836C571.63 43.836 571.779 43.7773 571.907 43.66C572.035 43.5427 572.174 43.3133 572.323 42.972C572.483 42.6413 572.686 42.1507 572.931 41.5L569.395 33.148H570.883L573.699 40.076L576.243 33.148H577.635L573.571 43.692C573.475 43.9373 573.331 44.1667 573.139 44.38C572.958 44.604 572.723 44.78 572.435 44.908C572.147 45.036 571.8 45.1 571.395 45.1C571.299 45.1 571.198 45.0947 571.091 45.084C570.995 45.0733 570.872 45.052 570.723 45.02V43.772Z" fill="#FF8458"/>
<g clip-path="url(#clip0_212_472)">
<path d="M20.38 307.26H29.5V310.02H15.3V307.82L24.66 300.48H15.32V297.72H29.5V300.02L20.38 307.26ZM29.6 288.366C29.6 289.286 29.4133 290.159 29.04 290.986C28.6667 291.799 28.1533 292.519 27.5 293.146C26.8333 293.759 26.06 294.239 25.18 294.586C24.3 294.933 23.3467 295.106 22.32 295.106C21.3467 295.106 20.4333 294.933 19.58 294.586C18.7133 294.239 17.9533 293.753 17.3 293.126C16.6467 292.499 16.1333 291.766 15.76 290.926C15.3867 290.086 15.2 289.173 15.2 288.186C15.2 286.853 15.4867 285.713 16.06 284.766C16.62 283.806 17.3667 283.086 18.3 282.606L19.82 284.666C19.1133 285.026 18.5733 285.533 18.2 286.186C17.8267 286.826 17.64 287.526 17.64 288.286C17.64 288.886 17.7667 289.433 18.02 289.926C18.2733 290.419 18.62 290.846 19.06 291.206C19.5 291.566 20.0067 291.846 20.58 292.046C21.1533 292.233 21.76 292.326 22.4 292.326C23.08 292.326 23.7067 292.226 24.28 292.026C24.8533 291.813 25.3533 291.519 25.78 291.146C26.2067 290.759 26.5467 290.313 26.8 289.806C27.04 289.299 27.16 288.739 27.16 288.126C27.16 287.406 26.9733 286.719 26.6 286.066C26.2267 285.399 25.68 284.779 24.96 284.206H27.68C28.96 285.393 29.6 286.779 29.6 288.366ZM24.22 284.406V287.266H22.2V282.126H29.5L29.5 284.406H24.22ZM20.38 276.514H29.5V279.274H15.3V277.074L24.66 269.734H15.32V266.974H29.5V269.274L20.38 276.514Z" fill="#606060"/>
<rect x="115.737" y="138" width="1.79193" height="269.108" fill="#F3F3F3"/>
<rect x="181.128" y="138" width="1.79192" height="269.108" fill="#F3F3F3"/>
<rect x="246.519" y="138" width="1.79192" height="269.108" fill="#F3F3F3"/>
<rect x="311.91" y="138" width="1.79192" height="269.108" fill="#F3F3F3"/>
<rect x="377.301" y="138" width="1.79195" height="269.108" fill="#F3F3F3"/>
<rect x="442.692" y="138" width="1.79192" height="269.108" fill="#F3F3F3"/>
<rect x="508.083" y="138" width="1.79197" height="269.108" fill="#F3F3F3"/>
<rect x="573.474" y="138" width="1.79197" height="269.108" fill="#F3F3F3"/>
<path d="M110.995 434.74V436.149C110.995 436.906 110.928 437.545 110.792 438.066C110.657 438.586 110.462 439.005 110.208 439.323C109.954 439.64 109.647 439.871 109.288 440.015C108.932 440.154 108.53 440.224 108.082 440.224C107.726 440.224 107.398 440.18 107.098 440.091C106.797 440.002 106.526 439.86 106.285 439.665C106.048 439.467 105.845 439.208 105.676 438.891C105.507 438.574 105.378 438.189 105.289 437.736C105.2 437.283 105.155 436.754 105.155 436.149V434.74C105.155 433.982 105.223 433.347 105.359 432.835C105.498 432.323 105.695 431.913 105.949 431.604C106.203 431.291 106.507 431.067 106.863 430.931C107.223 430.796 107.625 430.728 108.069 430.728C108.429 430.728 108.759 430.772 109.059 430.861C109.364 430.946 109.635 431.083 109.872 431.274C110.109 431.46 110.31 431.71 110.475 432.023C110.644 432.332 110.773 432.711 110.862 433.159C110.951 433.608 110.995 434.135 110.995 434.74ZM109.815 436.339V434.543C109.815 434.128 109.789 433.764 109.738 433.451C109.692 433.134 109.622 432.863 109.529 432.639C109.436 432.414 109.317 432.232 109.173 432.093C109.034 431.953 108.871 431.852 108.685 431.788C108.503 431.72 108.297 431.686 108.069 431.686C107.79 431.686 107.542 431.739 107.326 431.845C107.11 431.947 106.929 432.11 106.78 432.334C106.637 432.558 106.526 432.852 106.45 433.216C106.374 433.58 106.336 434.022 106.336 434.543V436.339C106.336 436.754 106.359 437.12 106.406 437.437C106.457 437.755 106.531 438.03 106.628 438.263C106.725 438.491 106.844 438.679 106.984 438.828C107.123 438.976 107.284 439.086 107.466 439.158C107.652 439.225 107.857 439.259 108.082 439.259C108.369 439.259 108.621 439.204 108.837 439.094C109.053 438.984 109.233 438.813 109.377 438.58C109.525 438.343 109.635 438.04 109.707 437.672C109.779 437.3 109.815 436.856 109.815 436.339ZM116.865 430.804V440.097H115.691V432.27L113.323 433.134V432.074L116.681 430.804H116.865ZM123.389 435.685V436.65H120.292V435.685H123.389ZM132.332 435.184V435.768C132.332 436.462 132.245 437.084 132.071 437.634C131.898 438.184 131.648 438.652 131.322 439.037C130.997 439.422 130.605 439.716 130.148 439.919C129.695 440.122 129.187 440.224 128.625 440.224C128.079 440.224 127.577 440.122 127.12 439.919C126.667 439.716 126.274 439.422 125.94 439.037C125.609 438.652 125.353 438.184 125.172 437.634C124.99 437.084 124.899 436.462 124.899 435.768V435.184C124.899 434.49 124.987 433.87 125.165 433.324C125.347 432.774 125.603 432.306 125.933 431.921C126.263 431.532 126.655 431.236 127.108 431.033C127.565 430.83 128.066 430.728 128.612 430.728C129.175 430.728 129.683 430.83 130.135 431.033C130.592 431.236 130.984 431.532 131.31 431.921C131.64 432.306 131.892 432.774 132.065 433.324C132.243 433.87 132.332 434.49 132.332 435.184ZM131.119 435.768V435.171C131.119 434.621 131.062 434.135 130.948 433.711C130.838 433.288 130.675 432.933 130.459 432.645C130.243 432.357 129.979 432.139 129.666 431.991C129.357 431.843 129.005 431.769 128.612 431.769C128.231 431.769 127.886 431.843 127.577 431.991C127.273 432.139 127.01 432.357 126.79 432.645C126.574 432.933 126.407 433.288 126.289 433.711C126.17 434.135 126.111 434.621 126.111 435.171V435.768C126.111 436.322 126.17 436.813 126.289 437.241C126.407 437.664 126.576 438.021 126.797 438.313C127.021 438.601 127.285 438.819 127.59 438.967C127.899 439.115 128.244 439.189 128.625 439.189C129.022 439.189 129.376 439.115 129.685 438.967C129.994 438.819 130.254 438.601 130.465 438.313C130.681 438.021 130.844 437.664 130.954 437.241C131.064 436.813 131.119 436.322 131.119 435.768ZM137.237 439.259C137.516 439.259 137.774 439.202 138.011 439.088C138.248 438.974 138.443 438.817 138.595 438.618C138.748 438.415 138.834 438.184 138.856 437.926H139.973C139.952 438.332 139.814 438.711 139.56 439.062C139.311 439.409 138.983 439.691 138.576 439.907C138.17 440.118 137.724 440.224 137.237 440.224C136.721 440.224 136.27 440.133 135.885 439.951C135.504 439.769 135.187 439.519 134.933 439.202C134.683 438.885 134.495 438.521 134.368 438.11C134.245 437.696 134.184 437.258 134.184 436.796V436.53C134.184 436.068 134.245 435.633 134.368 435.222C134.495 434.807 134.683 434.441 134.933 434.124C135.187 433.807 135.504 433.557 135.885 433.375C136.27 433.193 136.721 433.102 137.237 433.102C137.774 433.102 138.244 433.212 138.646 433.432C139.048 433.648 139.363 433.944 139.592 434.321C139.825 434.693 139.952 435.116 139.973 435.59H138.856C138.834 435.307 138.754 435.051 138.614 434.822C138.479 434.594 138.293 434.412 138.056 434.276C137.823 434.137 137.55 434.067 137.237 434.067C136.877 434.067 136.575 434.139 136.329 434.283C136.088 434.422 135.895 434.613 135.752 434.854C135.612 435.091 135.51 435.355 135.447 435.647C135.388 435.935 135.358 436.229 135.358 436.53V436.796C135.358 437.097 135.388 437.393 135.447 437.685C135.506 437.977 135.606 438.241 135.745 438.478C135.889 438.715 136.082 438.906 136.323 439.05C136.568 439.189 136.873 439.259 137.237 439.259ZM144.669 433.229V434.13H140.955V433.229H144.669ZM142.212 431.56H143.386V438.396C143.386 438.629 143.422 438.804 143.494 438.923C143.566 439.041 143.659 439.12 143.774 439.158C143.888 439.196 144.011 439.215 144.142 439.215C144.239 439.215 144.341 439.206 144.446 439.189C144.556 439.168 144.639 439.151 144.694 439.139L144.7 440.097C144.607 440.127 144.484 440.154 144.332 440.18C144.184 440.209 144.004 440.224 143.793 440.224C143.505 440.224 143.24 440.167 142.999 440.053C142.758 439.938 142.565 439.748 142.422 439.481C142.282 439.211 142.212 438.847 142.212 438.39V431.56Z" fill="black"/>
<path d="M175.995 434.74V436.149C175.995 436.906 175.928 437.545 175.792 438.066C175.657 438.586 175.462 439.005 175.208 439.323C174.954 439.64 174.647 439.871 174.288 440.015C173.932 440.154 173.53 440.224 173.082 440.224C172.726 440.224 172.398 440.18 172.098 440.091C171.797 440.002 171.526 439.86 171.285 439.665C171.048 439.467 170.845 439.208 170.676 438.891C170.507 438.574 170.378 438.189 170.289 437.736C170.2 437.283 170.155 436.754 170.155 436.149V434.74C170.155 433.982 170.223 433.347 170.359 432.835C170.498 432.323 170.695 431.913 170.949 431.604C171.203 431.291 171.507 431.067 171.863 430.931C172.223 430.796 172.625 430.728 173.069 430.728C173.429 430.728 173.759 430.772 174.059 430.861C174.364 430.946 174.635 431.083 174.872 431.274C175.109 431.46 175.31 431.71 175.475 432.023C175.644 432.332 175.773 432.711 175.862 433.159C175.951 433.608 175.995 434.135 175.995 434.74ZM174.815 436.339V434.543C174.815 434.128 174.789 433.764 174.738 433.451C174.692 433.134 174.622 432.863 174.529 432.639C174.436 432.414 174.317 432.232 174.173 432.093C174.034 431.953 173.871 431.852 173.685 431.788C173.503 431.72 173.297 431.686 173.069 431.686C172.79 431.686 172.542 431.739 172.326 431.845C172.11 431.947 171.929 432.11 171.78 432.334C171.637 432.558 171.526 432.852 171.45 433.216C171.374 433.58 171.336 434.022 171.336 434.543V436.339C171.336 436.754 171.359 437.12 171.406 437.437C171.457 437.755 171.531 438.03 171.628 438.263C171.725 438.491 171.844 438.679 171.984 438.828C172.123 438.976 172.284 439.086 172.466 439.158C172.652 439.225 172.857 439.259 173.082 439.259C173.369 439.259 173.621 439.204 173.837 439.094C174.053 438.984 174.233 438.813 174.377 438.58C174.525 438.343 174.635 438.04 174.707 437.672C174.779 437.3 174.815 436.856 174.815 436.339ZM181.865 430.804V440.097H180.691V432.27L178.323 433.134V432.074L181.681 430.804H181.865ZM188.389 435.685V436.65H185.292V435.685H188.389ZM197.332 435.184V435.768C197.332 436.462 197.245 437.084 197.071 437.634C196.898 438.184 196.648 438.652 196.322 439.037C195.997 439.422 195.605 439.716 195.148 439.919C194.695 440.122 194.187 440.224 193.625 440.224C193.079 440.224 192.577 440.122 192.12 439.919C191.667 439.716 191.274 439.422 190.94 439.037C190.609 438.652 190.353 438.184 190.172 437.634C189.99 437.084 189.899 436.462 189.899 435.768V435.184C189.899 434.49 189.987 433.87 190.165 433.324C190.347 432.774 190.603 432.306 190.933 431.921C191.263 431.532 191.655 431.236 192.108 431.033C192.565 430.83 193.066 430.728 193.612 430.728C194.175 430.728 194.683 430.83 195.135 431.033C195.592 431.236 195.984 431.532 196.31 431.921C196.64 432.306 196.892 432.774 197.065 433.324C197.243 433.87 197.332 434.49 197.332 435.184ZM196.119 435.768V435.171C196.119 434.621 196.062 434.135 195.948 433.711C195.838 433.288 195.675 432.933 195.459 432.645C195.243 432.357 194.979 432.139 194.666 431.991C194.357 431.843 194.005 431.769 193.612 431.769C193.231 431.769 192.886 431.843 192.577 431.991C192.273 432.139 192.01 432.357 191.79 432.645C191.574 432.933 191.407 433.288 191.289 433.711C191.17 434.135 191.111 434.621 191.111 435.171V435.768C191.111 436.322 191.17 436.813 191.289 437.241C191.407 437.664 191.576 438.021 191.797 438.313C192.021 438.601 192.285 438.819 192.59 438.967C192.899 439.115 193.244 439.189 193.625 439.189C194.022 439.189 194.376 439.115 194.685 438.967C194.994 438.819 195.254 438.601 195.465 438.313C195.681 438.021 195.844 437.664 195.954 437.241C196.064 436.813 196.119 436.322 196.119 435.768ZM202.237 439.259C202.516 439.259 202.774 439.202 203.011 439.088C203.248 438.974 203.443 438.817 203.595 438.618C203.748 438.415 203.834 438.184 203.856 437.926H204.973C204.952 438.332 204.814 438.711 204.56 439.062C204.311 439.409 203.983 439.691 203.576 439.907C203.17 440.118 202.724 440.224 202.237 440.224C201.721 440.224 201.27 440.133 200.885 439.951C200.504 439.769 200.187 439.519 199.933 439.202C199.683 438.885 199.495 438.521 199.368 438.11C199.245 437.696 199.184 437.258 199.184 436.796V436.53C199.184 436.068 199.245 435.633 199.368 435.222C199.495 434.807 199.683 434.441 199.933 434.124C200.187 433.807 200.504 433.557 200.885 433.375C201.27 433.193 201.721 433.102 202.237 433.102C202.774 433.102 203.244 433.212 203.646 433.432C204.048 433.648 204.363 433.944 204.592 434.321C204.825 434.693 204.952 435.116 204.973 435.59H203.856C203.834 435.307 203.754 435.051 203.614 434.822C203.479 434.594 203.293 434.412 203.056 434.276C202.823 434.137 202.55 434.067 202.237 434.067C201.877 434.067 201.575 434.139 201.329 434.283C201.088 434.422 200.895 434.613 200.752 434.854C200.612 435.091 200.51 435.355 200.447 435.647C200.388 435.935 200.358 436.229 200.358 436.53V436.796C200.358 437.097 200.388 437.393 200.447 437.685C200.506 437.977 200.606 438.241 200.745 438.478C200.889 438.715 201.082 438.906 201.323 439.05C201.568 439.189 201.873 439.259 202.237 439.259ZM209.669 433.229V434.13H205.955V433.229H209.669ZM207.212 431.56H208.386V438.396C208.386 438.629 208.422 438.804 208.494 438.923C208.566 439.041 208.659 439.12 208.774 439.158C208.888 439.196 209.011 439.215 209.142 439.215C209.239 439.215 209.341 439.206 209.446 439.189C209.556 439.168 209.639 439.151 209.694 439.139L209.7 440.097C209.607 440.127 209.484 440.154 209.332 440.18C209.184 440.209 209.004 440.224 208.793 440.224C208.505 440.224 208.24 440.167 207.999 440.053C207.758 439.938 207.565 439.748 207.422 439.481C207.282 439.211 207.212 438.847 207.212 438.39V431.56Z" fill="black"/>
<path d="M240.995 434.74V436.149C240.995 436.906 240.928 437.545 240.792 438.066C240.657 438.586 240.462 439.005 240.208 439.323C239.954 439.64 239.647 439.871 239.288 440.015C238.932 440.154 238.53 440.224 238.082 440.224C237.726 440.224 237.398 440.18 237.098 440.091C236.797 440.002 236.526 439.86 236.285 439.665C236.048 439.467 235.845 439.208 235.676 438.891C235.507 438.574 235.378 438.189 235.289 437.736C235.2 437.283 235.155 436.754 235.155 436.149V434.74C235.155 433.982 235.223 433.347 235.359 432.835C235.498 432.323 235.695 431.913 235.949 431.604C236.203 431.291 236.507 431.067 236.863 430.931C237.223 430.796 237.625 430.728 238.069 430.728C238.429 430.728 238.759 430.772 239.059 430.861C239.364 430.946 239.635 431.083 239.872 431.274C240.109 431.46 240.31 431.71 240.475 432.023C240.644 432.332 240.773 432.711 240.862 433.159C240.951 433.608 240.995 434.135 240.995 434.74ZM239.815 436.339V434.543C239.815 434.128 239.789 433.764 239.738 433.451C239.692 433.134 239.622 432.863 239.529 432.639C239.436 432.414 239.317 432.232 239.173 432.093C239.034 431.953 238.871 431.852 238.685 431.788C238.503 431.72 238.297 431.686 238.069 431.686C237.79 431.686 237.542 431.739 237.326 431.845C237.11 431.947 236.929 432.11 236.78 432.334C236.637 432.558 236.526 432.852 236.45 433.216C236.374 433.58 236.336 434.022 236.336 434.543V436.339C236.336 436.754 236.359 437.12 236.406 437.437C236.457 437.755 236.531 438.03 236.628 438.263C236.725 438.491 236.844 438.679 236.984 438.828C237.123 438.976 237.284 439.086 237.466 439.158C237.652 439.225 237.857 439.259 238.082 439.259C238.369 439.259 238.621 439.204 238.837 439.094C239.053 438.984 239.233 438.813 239.377 438.58C239.525 438.343 239.635 438.04 239.707 437.672C239.779 437.3 239.815 436.856 239.815 436.339ZM244.72 434.898H245.558C245.968 434.898 246.307 434.831 246.573 434.695C246.844 434.556 247.045 434.367 247.176 434.13C247.312 433.889 247.38 433.618 247.38 433.318C247.38 432.962 247.32 432.664 247.202 432.423C247.083 432.182 246.906 432 246.669 431.877C246.432 431.754 246.131 431.693 245.767 431.693C245.437 431.693 245.145 431.758 244.891 431.89C244.642 432.017 244.445 432.199 244.301 432.435C244.161 432.672 244.091 432.952 244.091 433.273H242.917C242.917 432.804 243.036 432.376 243.273 431.991C243.51 431.606 243.842 431.299 244.269 431.071C244.701 430.842 245.2 430.728 245.767 430.728C246.326 430.728 246.815 430.827 247.234 431.026C247.652 431.221 247.978 431.513 248.211 431.902C248.444 432.287 248.56 432.768 248.56 433.343C248.56 433.576 248.505 433.826 248.395 434.092C248.289 434.355 248.122 434.6 247.894 434.829C247.669 435.057 247.377 435.245 247.018 435.393C246.658 435.537 246.226 435.609 245.723 435.609H244.72V434.898ZM244.72 435.863V435.159H245.723C246.311 435.159 246.798 435.228 247.183 435.368C247.568 435.508 247.87 435.694 248.09 435.927C248.315 436.159 248.471 436.415 248.56 436.695C248.653 436.97 248.7 437.245 248.7 437.52C248.7 437.952 248.626 438.335 248.478 438.669C248.334 439.003 248.129 439.287 247.862 439.519C247.6 439.752 247.291 439.928 246.935 440.046C246.58 440.165 246.193 440.224 245.774 440.224C245.372 440.224 244.993 440.167 244.637 440.053C244.286 439.938 243.975 439.773 243.704 439.558C243.433 439.338 243.222 439.069 243.069 438.751C242.917 438.43 242.841 438.064 242.841 437.653H244.015C244.015 437.975 244.085 438.256 244.225 438.497C244.369 438.739 244.572 438.927 244.834 439.062C245.101 439.194 245.414 439.259 245.774 439.259C246.133 439.259 246.442 439.198 246.7 439.075C246.963 438.948 247.164 438.758 247.303 438.504C247.447 438.25 247.519 437.93 247.519 437.545C247.519 437.16 247.439 436.845 247.278 436.6C247.117 436.35 246.889 436.166 246.592 436.047C246.3 435.925 245.956 435.863 245.558 435.863H244.72ZM253.389 435.685V436.65H250.292V435.685H253.389ZM262.332 435.184V435.768C262.332 436.462 262.245 437.084 262.071 437.634C261.898 438.184 261.648 438.652 261.322 439.037C260.997 439.422 260.605 439.716 260.148 439.919C259.695 440.122 259.187 440.224 258.625 440.224C258.079 440.224 257.577 440.122 257.12 439.919C256.667 439.716 256.274 439.422 255.94 439.037C255.609 438.652 255.353 438.184 255.172 437.634C254.99 437.084 254.899 436.462 254.899 435.768V435.184C254.899 434.49 254.987 433.87 255.165 433.324C255.347 432.774 255.603 432.306 255.933 431.921C256.263 431.532 256.655 431.236 257.108 431.033C257.565 430.83 258.066 430.728 258.612 430.728C259.175 430.728 259.683 430.83 260.135 431.033C260.592 431.236 260.984 431.532 261.31 431.921C261.64 432.306 261.892 432.774 262.065 433.324C262.243 433.87 262.332 434.49 262.332 435.184ZM261.119 435.768V435.171C261.119 434.621 261.062 434.135 260.948 433.711C260.838 433.288 260.675 432.933 260.459 432.645C260.243 432.357 259.979 432.139 259.666 431.991C259.357 431.843 259.005 431.769 258.612 431.769C258.231 431.769 257.886 431.843 257.577 431.991C257.273 432.139 257.01 432.357 256.79 432.645C256.574 432.933 256.407 433.288 256.289 433.711C256.17 434.135 256.111 434.621 256.111 435.171V435.768C256.111 436.322 256.17 436.813 256.289 437.241C256.407 437.664 256.576 438.021 256.797 438.313C257.021 438.601 257.285 438.819 257.59 438.967C257.899 439.115 258.244 439.189 258.625 439.189C259.022 439.189 259.376 439.115 259.685 438.967C259.994 438.819 260.254 438.601 260.465 438.313C260.681 438.021 260.844 437.664 260.954 437.241C261.064 436.813 261.119 436.322 261.119 435.768ZM267.237 439.259C267.516 439.259 267.774 439.202 268.011 439.088C268.248 438.974 268.443 438.817 268.595 438.618C268.748 438.415 268.834 438.184 268.856 437.926H269.973C269.952 438.332 269.814 438.711 269.56 439.062C269.311 439.409 268.983 439.691 268.576 439.907C268.17 440.118 267.724 440.224 267.237 440.224C266.721 440.224 266.27 440.133 265.885 439.951C265.504 439.769 265.187 439.519 264.933 439.202C264.683 438.885 264.495 438.521 264.368 438.11C264.245 437.696 264.184 437.258 264.184 436.796V436.53C264.184 436.068 264.245 435.633 264.368 435.222C264.495 434.807 264.683 434.441 264.933 434.124C265.187 433.807 265.504 433.557 265.885 433.375C266.27 433.193 266.721 433.102 267.237 433.102C267.774 433.102 268.244 433.212 268.646 433.432C269.048 433.648 269.363 433.944 269.592 434.321C269.825 434.693 269.952 435.116 269.973 435.59H268.856C268.834 435.307 268.754 435.051 268.614 434.822C268.479 434.594 268.293 434.412 268.056 434.276C267.823 434.137 267.55 434.067 267.237 434.067C266.877 434.067 266.575 434.139 266.329 434.283C266.088 434.422 265.895 434.613 265.752 434.854C265.612 435.091 265.51 435.355 265.447 435.647C265.388 435.935 265.358 436.229 265.358 436.53V436.796C265.358 437.097 265.388 437.393 265.447 437.685C265.506 437.977 265.606 438.241 265.745 438.478C265.889 438.715 266.082 438.906 266.323 439.05C266.568 439.189 266.873 439.259 267.237 439.259ZM274.669 433.229V434.13H270.955V433.229H274.669ZM272.212 431.56H273.386V438.396C273.386 438.629 273.422 438.804 273.494 438.923C273.566 439.041 273.659 439.12 273.774 439.158C273.888 439.196 274.011 439.215 274.142 439.215C274.239 439.215 274.341 439.206 274.446 439.189C274.556 439.168 274.639 439.151 274.694 439.139L274.7 440.097C274.607 440.127 274.484 440.154 274.332 440.18C274.184 440.209 274.004 440.224 273.793 440.224C273.505 440.224 273.24 440.167 272.999 440.053C272.758 439.938 272.565 439.748 272.422 439.481C272.282 439.211 272.212 438.847 272.212 438.39V431.56Z" fill="black"/>
<path d="M305.995 434.74V436.149C305.995 436.906 305.928 437.545 305.792 438.066C305.657 438.586 305.462 439.005 305.208 439.323C304.954 439.64 304.647 439.871 304.288 440.015C303.932 440.154 303.53 440.224 303.082 440.224C302.726 440.224 302.398 440.18 302.098 440.091C301.797 440.002 301.526 439.86 301.285 439.665C301.048 439.467 300.845 439.208 300.676 438.891C300.507 438.574 300.378 438.189 300.289 437.736C300.2 437.283 300.155 436.754 300.155 436.149V434.74C300.155 433.982 300.223 433.347 300.359 432.835C300.498 432.323 300.695 431.913 300.949 431.604C301.203 431.291 301.507 431.067 301.863 430.931C302.223 430.796 302.625 430.728 303.069 430.728C303.429 430.728 303.759 430.772 304.059 430.861C304.364 430.946 304.635 431.083 304.872 431.274C305.109 431.46 305.31 431.71 305.475 432.023C305.644 432.332 305.773 432.711 305.862 433.159C305.951 433.608 305.995 434.135 305.995 434.74ZM304.815 436.339V434.543C304.815 434.128 304.789 433.764 304.738 433.451C304.692 433.134 304.622 432.863 304.529 432.639C304.436 432.414 304.317 432.232 304.173 432.093C304.034 431.953 303.871 431.852 303.685 431.788C303.503 431.72 303.297 431.686 303.069 431.686C302.79 431.686 302.542 431.739 302.326 431.845C302.11 431.947 301.929 432.11 301.78 432.334C301.637 432.558 301.526 432.852 301.45 433.216C301.374 433.58 301.336 434.022 301.336 434.543V436.339C301.336 436.754 301.359 437.12 301.406 437.437C301.457 437.755 301.531 438.03 301.628 438.263C301.725 438.491 301.844 438.679 301.984 438.828C302.123 438.976 302.284 439.086 302.466 439.158C302.652 439.225 302.857 439.259 303.082 439.259C303.369 439.259 303.621 439.204 303.837 439.094C304.053 438.984 304.233 438.813 304.377 438.58C304.525 438.343 304.635 438.04 304.707 437.672C304.779 437.3 304.815 436.856 304.815 436.339ZM314.252 436.987V437.952H307.574V437.26L311.713 430.855H312.672L311.643 432.708L308.907 436.987H314.252ZM312.964 430.855V440.097H311.789V430.855H312.964ZM318.389 435.685V436.65H315.292V435.685H318.389ZM327.332 435.184V435.768C327.332 436.462 327.245 437.084 327.071 437.634C326.898 438.184 326.648 438.652 326.322 439.037C325.997 439.422 325.605 439.716 325.148 439.919C324.695 440.122 324.187 440.224 323.625 440.224C323.079 440.224 322.577 440.122 322.12 439.919C321.667 439.716 321.274 439.422 320.94 439.037C320.609 438.652 320.353 438.184 320.172 437.634C319.99 437.084 319.899 436.462 319.899 435.768V435.184C319.899 434.49 319.987 433.87 320.165 433.324C320.347 432.774 320.603 432.306 320.933 431.921C321.263 431.532 321.655 431.236 322.108 431.033C322.565 430.83 323.066 430.728 323.612 430.728C324.175 430.728 324.683 430.83 325.135 431.033C325.592 431.236 325.984 431.532 326.31 431.921C326.64 432.306 326.892 432.774 327.065 433.324C327.243 433.87 327.332 434.49 327.332 435.184ZM326.119 435.768V435.171C326.119 434.621 326.062 434.135 325.948 433.711C325.838 433.288 325.675 432.933 325.459 432.645C325.243 432.357 324.979 432.139 324.666 431.991C324.357 431.843 324.005 431.769 323.612 431.769C323.231 431.769 322.886 431.843 322.577 431.991C322.273 432.139 322.01 432.357 321.79 432.645C321.574 432.933 321.407 433.288 321.289 433.711C321.17 434.135 321.111 434.621 321.111 435.171V435.768C321.111 436.322 321.17 436.813 321.289 437.241C321.407 437.664 321.576 438.021 321.797 438.313C322.021 438.601 322.285 438.819 322.59 438.967C322.899 439.115 323.244 439.189 323.625 439.189C324.022 439.189 324.376 439.115 324.685 438.967C324.994 438.819 325.254 438.601 325.465 438.313C325.681 438.021 325.844 437.664 325.954 437.241C326.064 436.813 326.119 436.322 326.119 435.768ZM332.237 439.259C332.516 439.259 332.774 439.202 333.011 439.088C333.248 438.974 333.443 438.817 333.595 438.618C333.748 438.415 333.834 438.184 333.856 437.926H334.973C334.952 438.332 334.814 438.711 334.56 439.062C334.311 439.409 333.983 439.691 333.576 439.907C333.17 440.118 332.724 440.224 332.237 440.224C331.721 440.224 331.27 440.133 330.885 439.951C330.504 439.769 330.187 439.519 329.933 439.202C329.683 438.885 329.495 438.521 329.368 438.11C329.245 437.696 329.184 437.258 329.184 436.796V436.53C329.184 436.068 329.245 435.633 329.368 435.222C329.495 434.807 329.683 434.441 329.933 434.124C330.187 433.807 330.504 433.557 330.885 433.375C331.27 433.193 331.721 433.102 332.237 433.102C332.774 433.102 333.244 433.212 333.646 433.432C334.048 433.648 334.363 433.944 334.592 434.321C334.825 434.693 334.952 435.116 334.973 435.59H333.856C333.834 435.307 333.754 435.051 333.614 434.822C333.479 434.594 333.293 434.412 333.056 434.276C332.823 434.137 332.55 434.067 332.237 434.067C331.877 434.067 331.575 434.139 331.329 434.283C331.088 434.422 330.895 434.613 330.752 434.854C330.612 435.091 330.51 435.355 330.447 435.647C330.388 435.935 330.358 436.229 330.358 436.53V436.796C330.358 437.097 330.388 437.393 330.447 437.685C330.506 437.977 330.606 438.241 330.745 438.478C330.889 438.715 331.082 438.906 331.323 439.05C331.568 439.189 331.873 439.259 332.237 439.259ZM339.669 433.229V434.13H335.955V433.229H339.669ZM337.212 431.56H338.386V438.396C338.386 438.629 338.422 438.804 338.494 438.923C338.566 439.041 338.659 439.12 338.774 439.158C338.888 439.196 339.011 439.215 339.142 439.215C339.239 439.215 339.341 439.206 339.446 439.189C339.556 439.168 339.639 439.151 339.694 439.139L339.7 440.097C339.607 440.127 339.484 440.154 339.332 440.18C339.184 440.209 339.004 440.224 338.793 440.224C338.505 440.224 338.24 440.167 337.999 440.053C337.758 439.938 337.565 439.748 337.422 439.481C337.282 439.211 337.212 438.847 337.212 438.39V431.56Z" fill="black"/>
<path d="M370.995 434.74V436.149C370.995 436.906 370.928 437.545 370.792 438.066C370.657 438.586 370.462 439.005 370.208 439.323C369.954 439.64 369.647 439.871 369.288 440.015C368.932 440.154 368.53 440.224 368.082 440.224C367.726 440.224 367.398 440.18 367.098 440.091C366.797 440.002 366.526 439.86 366.285 439.665C366.048 439.467 365.845 439.208 365.676 438.891C365.507 438.574 365.378 438.189 365.289 437.736C365.2 437.283 365.155 436.754 365.155 436.149V434.74C365.155 433.982 365.223 433.347 365.359 432.835C365.498 432.323 365.695 431.913 365.949 431.604C366.203 431.291 366.507 431.067 366.863 430.931C367.223 430.796 367.625 430.728 368.069 430.728C368.429 430.728 368.759 430.772 369.059 430.861C369.364 430.946 369.635 431.083 369.872 431.274C370.109 431.46 370.31 431.71 370.475 432.023C370.644 432.332 370.773 432.711 370.862 433.159C370.951 433.608 370.995 434.135 370.995 434.74ZM369.815 436.339V434.543C369.815 434.128 369.789 433.764 369.738 433.451C369.692 433.134 369.622 432.863 369.529 432.639C369.436 432.414 369.317 432.232 369.173 432.093C369.034 431.953 368.871 431.852 368.685 431.788C368.503 431.72 368.297 431.686 368.069 431.686C367.79 431.686 367.542 431.739 367.326 431.845C367.11 431.947 366.929 432.11 366.78 432.334C366.637 432.558 366.526 432.852 366.45 433.216C366.374 433.58 366.336 434.022 366.336 434.543V436.339C366.336 436.754 366.359 437.12 366.406 437.437C366.457 437.755 366.531 438.03 366.628 438.263C366.725 438.491 366.844 438.679 366.984 438.828C367.123 438.976 367.284 439.086 367.466 439.158C367.652 439.225 367.857 439.259 368.082 439.259C368.369 439.259 368.621 439.204 368.837 439.094C369.053 438.984 369.233 438.813 369.377 438.58C369.525 438.343 369.635 438.04 369.707 437.672C369.779 437.3 369.815 436.856 369.815 436.339ZM374.491 435.698L373.552 435.457L374.015 430.855H378.757V431.94H375.012L374.733 434.454C374.902 434.357 375.116 434.266 375.374 434.181C375.636 434.096 375.936 434.054 376.275 434.054C376.702 434.054 377.085 434.128 377.424 434.276C377.762 434.42 378.05 434.628 378.287 434.898C378.528 435.169 378.713 435.495 378.839 435.876C378.966 436.257 379.03 436.682 379.03 437.152C379.03 437.596 378.969 438.004 378.846 438.377C378.727 438.749 378.547 439.075 378.306 439.354C378.065 439.629 377.76 439.843 377.392 439.996C377.028 440.148 376.599 440.224 376.104 440.224C375.731 440.224 375.378 440.173 375.044 440.072C374.714 439.966 374.417 439.807 374.155 439.596C373.897 439.38 373.685 439.113 373.52 438.796C373.359 438.474 373.258 438.098 373.215 437.666H374.333C374.383 438.013 374.485 438.305 374.637 438.542C374.79 438.779 374.989 438.959 375.234 439.081C375.484 439.2 375.774 439.259 376.104 439.259C376.383 439.259 376.63 439.211 376.846 439.113C377.062 439.016 377.244 438.876 377.392 438.694C377.54 438.512 377.652 438.292 377.729 438.034C377.809 437.776 377.849 437.486 377.849 437.164C377.849 436.872 377.809 436.602 377.729 436.352C377.648 436.102 377.528 435.884 377.367 435.698C377.21 435.512 377.018 435.368 376.789 435.267C376.561 435.161 376.298 435.108 376.002 435.108C375.609 435.108 375.31 435.161 375.107 435.267C374.908 435.372 374.703 435.516 374.491 435.698ZM383.389 435.685V436.65H380.292V435.685H383.389ZM392.332 435.184V435.768C392.332 436.462 392.245 437.084 392.071 437.634C391.898 438.184 391.648 438.652 391.322 439.037C390.997 439.422 390.605 439.716 390.148 439.919C389.695 440.122 389.187 440.224 388.625 440.224C388.079 440.224 387.577 440.122 387.12 439.919C386.667 439.716 386.274 439.422 385.94 439.037C385.609 438.652 385.353 438.184 385.172 437.634C384.99 437.084 384.899 436.462 384.899 435.768V435.184C384.899 434.49 384.987 433.87 385.165 433.324C385.347 432.774 385.603 432.306 385.933 431.921C386.263 431.532 386.655 431.236 387.108 431.033C387.565 430.83 388.066 430.728 388.612 430.728C389.175 430.728 389.683 430.83 390.135 431.033C390.592 431.236 390.984 431.532 391.31 431.921C391.64 432.306 391.892 432.774 392.065 433.324C392.243 433.87 392.332 434.49 392.332 435.184ZM391.119 435.768V435.171C391.119 434.621 391.062 434.135 390.948 433.711C390.838 433.288 390.675 432.933 390.459 432.645C390.243 432.357 389.979 432.139 389.666 431.991C389.357 431.843 389.005 431.769 388.612 431.769C388.231 431.769 387.886 431.843 387.577 431.991C387.273 432.139 387.01 432.357 386.79 432.645C386.574 432.933 386.407 433.288 386.289 433.711C386.17 434.135 386.111 434.621 386.111 435.171V435.768C386.111 436.322 386.17 436.813 386.289 437.241C386.407 437.664 386.576 438.021 386.797 438.313C387.021 438.601 387.285 438.819 387.59 438.967C387.899 439.115 388.244 439.189 388.625 439.189C389.022 439.189 389.376 439.115 389.685 438.967C389.994 438.819 390.254 438.601 390.465 438.313C390.681 438.021 390.844 437.664 390.954 437.241C391.064 436.813 391.119 436.322 391.119 435.768ZM397.237 439.259C397.516 439.259 397.774 439.202 398.011 439.088C398.248 438.974 398.443 438.817 398.595 438.618C398.748 438.415 398.834 438.184 398.856 437.926H399.973C399.952 438.332 399.814 438.711 399.56 439.062C399.311 439.409 398.983 439.691 398.576 439.907C398.17 440.118 397.724 440.224 397.237 440.224C396.721 440.224 396.27 440.133 395.885 439.951C395.504 439.769 395.187 439.519 394.933 439.202C394.683 438.885 394.495 438.521 394.368 438.11C394.245 437.696 394.184 437.258 394.184 436.796V436.53C394.184 436.068 394.245 435.633 394.368 435.222C394.495 434.807 394.683 434.441 394.933 434.124C395.187 433.807 395.504 433.557 395.885 433.375C396.27 433.193 396.721 433.102 397.237 433.102C397.774 433.102 398.244 433.212 398.646 433.432C399.048 433.648 399.363 433.944 399.592 434.321C399.825 434.693 399.952 435.116 399.973 435.59H398.856C398.834 435.307 398.754 435.051 398.614 434.822C398.479 434.594 398.293 434.412 398.056 434.276C397.823 434.137 397.55 434.067 397.237 434.067C396.877 434.067 396.575 434.139 396.329 434.283C396.088 434.422 395.895 434.613 395.752 434.854C395.612 435.091 395.51 435.355 395.447 435.647C395.388 435.935 395.358 436.229 395.358 436.53V436.796C395.358 437.097 395.388 437.393 395.447 437.685C395.506 437.977 395.606 438.241 395.745 438.478C395.889 438.715 396.082 438.906 396.323 439.05C396.568 439.189 396.873 439.259 397.237 439.259ZM404.669 433.229V434.13H400.955V433.229H404.669ZM402.212 431.56H403.386V438.396C403.386 438.629 403.422 438.804 403.494 438.923C403.566 439.041 403.659 439.12 403.774 439.158C403.888 439.196 404.011 439.215 404.142 439.215C404.239 439.215 404.341 439.206 404.446 439.189C404.556 439.168 404.639 439.151 404.694 439.139L404.7 440.097C404.607 440.127 404.484 440.154 404.332 440.18C404.184 440.209 404.004 440.224 403.793 440.224C403.505 440.224 403.24 440.167 402.999 440.053C402.758 439.938 402.565 439.748 402.422 439.481C402.282 439.211 402.212 438.847 402.212 438.39V431.56Z" fill="black"/>
<path d="M435.995 434.74V436.149C435.995 436.906 435.928 437.545 435.792 438.066C435.657 438.586 435.462 439.005 435.208 439.323C434.954 439.64 434.647 439.871 434.288 440.015C433.932 440.154 433.53 440.224 433.082 440.224C432.726 440.224 432.398 440.18 432.098 440.091C431.797 440.002 431.526 439.86 431.285 439.665C431.048 439.467 430.845 439.208 430.676 438.891C430.507 438.574 430.378 438.189 430.289 437.736C430.2 437.283 430.155 436.754 430.155 436.149V434.74C430.155 433.982 430.223 433.347 430.359 432.835C430.498 432.323 430.695 431.913 430.949 431.604C431.203 431.291 431.507 431.067 431.863 430.931C432.223 430.796 432.625 430.728 433.069 430.728C433.429 430.728 433.759 430.772 434.059 430.861C434.364 430.946 434.635 431.083 434.872 431.274C435.109 431.46 435.31 431.71 435.475 432.023C435.644 432.332 435.773 432.711 435.862 433.159C435.951 433.608 435.995 434.135 435.995 434.74ZM434.815 436.339V434.543C434.815 434.128 434.789 433.764 434.738 433.451C434.692 433.134 434.622 432.863 434.529 432.639C434.436 432.414 434.317 432.232 434.173 432.093C434.034 431.953 433.871 431.852 433.685 431.788C433.503 431.72 433.297 431.686 433.069 431.686C432.79 431.686 432.542 431.739 432.326 431.845C432.11 431.947 431.929 432.11 431.78 432.334C431.637 432.558 431.526 432.852 431.45 433.216C431.374 433.58 431.336 434.022 431.336 434.543V436.339C431.336 436.754 431.359 437.12 431.406 437.437C431.457 437.755 431.531 438.03 431.628 438.263C431.725 438.491 431.844 438.679 431.984 438.828C432.123 438.976 432.284 439.086 432.466 439.158C432.652 439.225 432.857 439.259 433.082 439.259C433.369 439.259 433.621 439.204 433.837 439.094C434.053 438.984 434.233 438.813 434.377 438.58C434.525 438.343 434.635 438.04 434.707 437.672C434.779 437.3 434.815 436.856 434.815 436.339ZM442.513 430.842H442.614V431.839H442.513C441.891 431.839 441.37 431.94 440.951 432.143C440.532 432.342 440.2 432.611 439.955 432.95C439.709 433.284 439.532 433.661 439.422 434.08C439.316 434.498 439.263 434.924 439.263 435.355V436.714C439.263 437.124 439.311 437.488 439.409 437.806C439.506 438.119 439.639 438.383 439.809 438.599C439.978 438.815 440.168 438.978 440.38 439.088C440.596 439.198 440.82 439.253 441.053 439.253C441.324 439.253 441.565 439.202 441.776 439.101C441.988 438.995 442.166 438.849 442.31 438.663C442.458 438.472 442.57 438.248 442.646 437.99C442.722 437.732 442.76 437.448 442.76 437.139C442.76 436.864 442.727 436.6 442.659 436.346C442.591 436.088 442.487 435.859 442.348 435.66C442.208 435.457 442.033 435.298 441.821 435.184C441.614 435.066 441.366 435.006 441.078 435.006C440.752 435.006 440.448 435.087 440.164 435.247C439.885 435.404 439.654 435.611 439.472 435.87C439.295 436.123 439.193 436.401 439.168 436.701L438.546 436.695C438.605 436.221 438.715 435.817 438.876 435.482C439.041 435.144 439.244 434.869 439.485 434.657C439.73 434.441 440.003 434.285 440.304 434.187C440.609 434.086 440.93 434.035 441.269 434.035C441.73 434.035 442.128 434.122 442.462 434.295C442.796 434.469 443.071 434.702 443.287 434.994C443.503 435.281 443.662 435.607 443.763 435.971C443.869 436.331 443.922 436.701 443.922 437.082C443.922 437.518 443.861 437.926 443.738 438.307C443.615 438.688 443.431 439.022 443.186 439.31C442.944 439.598 442.646 439.822 442.291 439.983C441.935 440.144 441.523 440.224 441.053 440.224C440.554 440.224 440.118 440.122 439.745 439.919C439.373 439.712 439.064 439.437 438.818 439.094C438.573 438.751 438.389 438.371 438.266 437.952C438.144 437.533 438.082 437.107 438.082 436.676V436.123C438.082 435.472 438.148 434.833 438.279 434.206C438.41 433.58 438.637 433.013 438.958 432.505C439.284 431.997 439.735 431.593 440.31 431.293C440.886 430.992 441.62 430.842 442.513 430.842ZM448.389 435.685V436.65H445.292V435.685H448.389ZM457.332 435.184V435.768C457.332 436.462 457.245 437.084 457.071 437.634C456.898 438.184 456.648 438.652 456.322 439.037C455.997 439.422 455.605 439.716 455.148 439.919C454.695 440.122 454.187 440.224 453.625 440.224C453.079 440.224 452.577 440.122 452.12 439.919C451.667 439.716 451.274 439.422 450.94 439.037C450.609 438.652 450.353 438.184 450.172 437.634C449.99 437.084 449.899 436.462 449.899 435.768V435.184C449.899 434.49 449.987 433.87 450.165 433.324C450.347 432.774 450.603 432.306 450.933 431.921C451.263 431.532 451.655 431.236 452.108 431.033C452.565 430.83 453.066 430.728 453.612 430.728C454.175 430.728 454.683 430.83 455.135 431.033C455.592 431.236 455.984 431.532 456.31 431.921C456.64 432.306 456.892 432.774 457.065 433.324C457.243 433.87 457.332 434.49 457.332 435.184ZM456.119 435.768V435.171C456.119 434.621 456.062 434.135 455.948 433.711C455.838 433.288 455.675 432.933 455.459 432.645C455.243 432.357 454.979 432.139 454.666 431.991C454.357 431.843 454.005 431.769 453.612 431.769C453.231 431.769 452.886 431.843 452.577 431.991C452.273 432.139 452.01 432.357 451.79 432.645C451.574 432.933 451.407 433.288 451.289 433.711C451.17 434.135 451.111 434.621 451.111 435.171V435.768C451.111 436.322 451.17 436.813 451.289 437.241C451.407 437.664 451.576 438.021 451.797 438.313C452.021 438.601 452.285 438.819 452.59 438.967C452.899 439.115 453.244 439.189 453.625 439.189C454.022 439.189 454.376 439.115 454.685 438.967C454.994 438.819 455.254 438.601 455.465 438.313C455.681 438.021 455.844 437.664 455.954 437.241C456.064 436.813 456.119 436.322 456.119 435.768ZM462.237 439.259C462.516 439.259 462.774 439.202 463.011 439.088C463.248 438.974 463.443 438.817 463.595 438.618C463.748 438.415 463.834 438.184 463.856 437.926H464.973C464.952 438.332 464.814 438.711 464.56 439.062C464.311 439.409 463.983 439.691 463.576 439.907C463.17 440.118 462.724 440.224 462.237 440.224C461.721 440.224 461.27 440.133 460.885 439.951C460.504 439.769 460.187 439.519 459.933 439.202C459.683 438.885 459.495 438.521 459.368 438.11C459.245 437.696 459.184 437.258 459.184 436.796V436.53C459.184 436.068 459.245 435.633 459.368 435.222C459.495 434.807 459.683 434.441 459.933 434.124C460.187 433.807 460.504 433.557 460.885 433.375C461.27 433.193 461.721 433.102 462.237 433.102C462.774 433.102 463.244 433.212 463.646 433.432C464.048 433.648 464.363 433.944 464.592 434.321C464.825 434.693 464.952 435.116 464.973 435.59H463.856C463.834 435.307 463.754 435.051 463.614 434.822C463.479 434.594 463.293 434.412 463.056 434.276C462.823 434.137 462.55 434.067 462.237 434.067C461.877 434.067 461.575 434.139 461.329 434.283C461.088 434.422 460.895 434.613 460.752 434.854C460.612 435.091 460.51 435.355 460.447 435.647C460.388 435.935 460.358 436.229 460.358 436.53V436.796C460.358 437.097 460.388 437.393 460.447 437.685C460.506 437.977 460.606 438.241 460.745 438.478C460.889 438.715 461.082 438.906 461.323 439.05C461.568 439.189 461.873 439.259 462.237 439.259ZM469.669 433.229V434.13H465.955V433.229H469.669ZM467.212 431.56H468.386V438.396C468.386 438.629 468.422 438.804 468.494 438.923C468.566 439.041 468.659 439.12 468.774 439.158C468.888 439.196 469.011 439.215 469.142 439.215C469.239 439.215 469.341 439.206 469.446 439.189C469.556 439.168 469.639 439.151 469.694 439.139L469.7 440.097C469.607 440.127 469.484 440.154 469.332 440.18C469.184 440.209 469.004 440.224 468.793 440.224C468.505 440.224 468.24 440.167 467.999 440.053C467.758 439.938 467.565 439.748 467.422 439.481C467.282 439.211 467.212 438.847 467.212 438.39V431.56Z" fill="black"/>
<path d="M500.995 434.74V436.149C500.995 436.906 500.928 437.545 500.792 438.066C500.657 438.586 500.462 439.005 500.208 439.323C499.954 439.64 499.647 439.871 499.288 440.015C498.932 440.154 498.53 440.224 498.082 440.224C497.726 440.224 497.398 440.18 497.098 440.091C496.797 440.002 496.526 439.86 496.285 439.665C496.048 439.467 495.845 439.208 495.676 438.891C495.507 438.574 495.378 438.189 495.289 437.736C495.2 437.283 495.155 436.754 495.155 436.149V434.74C495.155 433.982 495.223 433.347 495.359 432.835C495.498 432.323 495.695 431.913 495.949 431.604C496.203 431.291 496.507 431.067 496.863 430.931C497.223 430.796 497.625 430.728 498.069 430.728C498.429 430.728 498.759 430.772 499.059 430.861C499.364 430.946 499.635 431.083 499.872 431.274C500.109 431.46 500.31 431.71 500.475 432.023C500.644 432.332 500.773 432.711 500.862 433.159C500.951 433.608 500.995 434.135 500.995 434.74ZM499.815 436.339V434.543C499.815 434.128 499.789 433.764 499.738 433.451C499.692 433.134 499.622 432.863 499.529 432.639C499.436 432.414 499.317 432.232 499.173 432.093C499.034 431.953 498.871 431.852 498.685 431.788C498.503 431.72 498.297 431.686 498.069 431.686C497.79 431.686 497.542 431.739 497.326 431.845C497.11 431.947 496.929 432.11 496.78 432.334C496.637 432.558 496.526 432.852 496.45 433.216C496.374 433.58 496.336 434.022 496.336 434.543V436.339C496.336 436.754 496.359 437.12 496.406 437.437C496.457 437.755 496.531 438.03 496.628 438.263C496.725 438.491 496.844 438.679 496.984 438.828C497.123 438.976 497.284 439.086 497.466 439.158C497.652 439.225 497.857 439.259 498.082 439.259C498.369 439.259 498.621 439.204 498.837 439.094C499.053 438.984 499.233 438.813 499.377 438.58C499.525 438.343 499.635 438.04 499.707 437.672C499.779 437.3 499.815 436.856 499.815 436.339ZM508.979 430.855V431.515L505.151 440.097H503.914L507.735 431.82H502.733V430.855H508.979ZM513.389 435.685V436.65H510.292V435.685H513.389ZM522.332 435.184V435.768C522.332 436.462 522.245 437.084 522.071 437.634C521.898 438.184 521.648 438.652 521.322 439.037C520.997 439.422 520.605 439.716 520.148 439.919C519.695 440.122 519.187 440.224 518.625 440.224C518.079 440.224 517.577 440.122 517.12 439.919C516.667 439.716 516.274 439.422 515.94 439.037C515.609 438.652 515.353 438.184 515.172 437.634C514.99 437.084 514.899 436.462 514.899 435.768V435.184C514.899 434.49 514.987 433.87 515.165 433.324C515.347 432.774 515.603 432.306 515.933 431.921C516.263 431.532 516.655 431.236 517.108 431.033C517.565 430.83 518.066 430.728 518.612 430.728C519.175 430.728 519.683 430.83 520.135 431.033C520.592 431.236 520.984 431.532 521.31 431.921C521.64 432.306 521.892 432.774 522.065 433.324C522.243 433.87 522.332 434.49 522.332 435.184ZM521.119 435.768V435.171C521.119 434.621 521.062 434.135 520.948 433.711C520.838 433.288 520.675 432.933 520.459 432.645C520.243 432.357 519.979 432.139 519.666 431.991C519.357 431.843 519.005 431.769 518.612 431.769C518.231 431.769 517.886 431.843 517.577 431.991C517.273 432.139 517.01 432.357 516.79 432.645C516.574 432.933 516.407 433.288 516.289 433.711C516.17 434.135 516.111 434.621 516.111 435.171V435.768C516.111 436.322 516.17 436.813 516.289 437.241C516.407 437.664 516.576 438.021 516.797 438.313C517.021 438.601 517.285 438.819 517.59 438.967C517.899 439.115 518.244 439.189 518.625 439.189C519.022 439.189 519.376 439.115 519.685 438.967C519.994 438.819 520.254 438.601 520.465 438.313C520.681 438.021 520.844 437.664 520.954 437.241C521.064 436.813 521.119 436.322 521.119 435.768ZM527.237 439.259C527.516 439.259 527.774 439.202 528.011 439.088C528.248 438.974 528.443 438.817 528.595 438.618C528.748 438.415 528.834 438.184 528.856 437.926H529.973C529.952 438.332 529.814 438.711 529.56 439.062C529.311 439.409 528.983 439.691 528.576 439.907C528.17 440.118 527.724 440.224 527.237 440.224C526.721 440.224 526.27 440.133 525.885 439.951C525.504 439.769 525.187 439.519 524.933 439.202C524.683 438.885 524.495 438.521 524.368 438.11C524.245 437.696 524.184 437.258 524.184 436.796V436.53C524.184 436.068 524.245 435.633 524.368 435.222C524.495 434.807 524.683 434.441 524.933 434.124C525.187 433.807 525.504 433.557 525.885 433.375C526.27 433.193 526.721 433.102 527.237 433.102C527.774 433.102 528.244 433.212 528.646 433.432C529.048 433.648 529.363 433.944 529.592 434.321C529.825 434.693 529.952 435.116 529.973 435.59H528.856C528.834 435.307 528.754 435.051 528.614 434.822C528.479 434.594 528.293 434.412 528.056 434.276C527.823 434.137 527.55 434.067 527.237 434.067C526.877 434.067 526.575 434.139 526.329 434.283C526.088 434.422 525.895 434.613 525.752 434.854C525.612 435.091 525.51 435.355 525.447 435.647C525.388 435.935 525.358 436.229 525.358 436.53V436.796C525.358 437.097 525.388 437.393 525.447 437.685C525.506 437.977 525.606 438.241 525.745 438.478C525.889 438.715 526.082 438.906 526.323 439.05C526.568 439.189 526.873 439.259 527.237 439.259ZM534.669 433.229V434.13H530.955V433.229H534.669ZM532.212 431.56H533.386V438.396C533.386 438.629 533.422 438.804 533.494 438.923C533.566 439.041 533.659 439.12 533.774 439.158C533.888 439.196 534.011 439.215 534.142 439.215C534.239 439.215 534.341 439.206 534.446 439.189C534.556 439.168 534.639 439.151 534.694 439.139L534.7 440.097C534.607 440.127 534.484 440.154 534.332 440.18C534.184 440.209 534.004 440.224 533.793 440.224C533.505 440.224 533.24 440.167 532.999 440.053C532.758 439.938 532.565 439.748 532.422 439.481C532.282 439.211 532.212 438.847 532.212 438.39V431.56Z" fill="black"/>
<path d="M565.995 434.74V436.149C565.995 436.906 565.928 437.545 565.792 438.066C565.657 438.586 565.462 439.005 565.208 439.323C564.954 439.64 564.647 439.871 564.288 440.015C563.932 440.154 563.53 440.224 563.082 440.224C562.726 440.224 562.398 440.18 562.098 440.091C561.797 440.002 561.526 439.86 561.285 439.665C561.048 439.467 560.845 439.208 560.676 438.891C560.507 438.574 560.378 438.189 560.289 437.736C560.2 437.283 560.155 436.754 560.155 436.149V434.74C560.155 433.982 560.223 433.347 560.359 432.835C560.498 432.323 560.695 431.913 560.949 431.604C561.203 431.291 561.507 431.067 561.863 430.931C562.223 430.796 562.625 430.728 563.069 430.728C563.429 430.728 563.759 430.772 564.059 430.861C564.364 430.946 564.635 431.083 564.872 431.274C565.109 431.46 565.31 431.71 565.475 432.023C565.644 432.332 565.773 432.711 565.862 433.159C565.951 433.608 565.995 434.135 565.995 434.74ZM564.815 436.339V434.543C564.815 434.128 564.789 433.764 564.738 433.451C564.692 433.134 564.622 432.863 564.529 432.639C564.436 432.414 564.317 432.232 564.173 432.093C564.034 431.953 563.871 431.852 563.685 431.788C563.503 431.72 563.297 431.686 563.069 431.686C562.79 431.686 562.542 431.739 562.326 431.845C562.11 431.947 561.929 432.11 561.78 432.334C561.637 432.558 561.526 432.852 561.45 433.216C561.374 433.58 561.336 434.022 561.336 434.543V436.339C561.336 436.754 561.359 437.12 561.406 437.437C561.457 437.755 561.531 438.03 561.628 438.263C561.725 438.491 561.844 438.679 561.984 438.828C562.123 438.976 562.284 439.086 562.466 439.158C562.652 439.225 562.857 439.259 563.082 439.259C563.369 439.259 563.621 439.204 563.837 439.094C564.053 438.984 564.233 438.813 564.377 438.58C564.525 438.343 564.635 438.04 564.707 437.672C564.779 437.3 564.815 436.856 564.815 436.339ZM573.833 437.596C573.833 438.159 573.702 438.637 573.44 439.031C573.181 439.42 572.83 439.716 572.386 439.919C571.946 440.122 571.449 440.224 570.894 440.224C570.34 440.224 569.84 440.122 569.396 439.919C568.952 439.716 568.601 439.42 568.342 439.031C568.084 438.637 567.955 438.159 567.955 437.596C567.955 437.228 568.025 436.892 568.165 436.587C568.309 436.278 568.51 436.009 568.768 435.781C569.03 435.552 569.339 435.377 569.694 435.254C570.054 435.127 570.45 435.063 570.881 435.063C571.449 435.063 571.954 435.173 572.399 435.393C572.843 435.609 573.192 435.908 573.446 436.289C573.704 436.669 573.833 437.105 573.833 437.596ZM572.652 437.571C572.652 437.228 572.578 436.925 572.43 436.663C572.282 436.396 572.075 436.189 571.808 436.041C571.542 435.893 571.233 435.819 570.881 435.819C570.522 435.819 570.211 435.893 569.948 436.041C569.69 436.189 569.489 436.396 569.345 436.663C569.201 436.925 569.13 437.228 569.13 437.571C569.13 437.926 569.199 438.231 569.339 438.485C569.483 438.734 569.686 438.927 569.948 439.062C570.215 439.194 570.53 439.259 570.894 439.259C571.258 439.259 571.571 439.194 571.834 439.062C572.096 438.927 572.297 438.734 572.437 438.485C572.581 438.231 572.652 437.926 572.652 437.571ZM573.617 433.261C573.617 433.709 573.499 434.113 573.262 434.473C573.025 434.833 572.701 435.116 572.291 435.324C571.88 435.531 571.415 435.635 570.894 435.635C570.365 435.635 569.893 435.531 569.479 435.324C569.068 435.116 568.747 434.833 568.514 434.473C568.281 434.113 568.165 433.709 568.165 433.261C568.165 432.723 568.281 432.266 568.514 431.89C568.751 431.513 569.075 431.225 569.485 431.026C569.895 430.827 570.363 430.728 570.888 430.728C571.417 430.728 571.887 430.827 572.297 431.026C572.707 431.225 573.029 431.513 573.262 431.89C573.499 432.266 573.617 432.723 573.617 433.261ZM572.443 433.28C572.443 432.971 572.377 432.698 572.246 432.461C572.115 432.224 571.933 432.038 571.7 431.902C571.468 431.763 571.197 431.693 570.888 431.693C570.579 431.693 570.308 431.758 570.075 431.89C569.847 432.017 569.667 432.199 569.536 432.435C569.409 432.672 569.345 432.954 569.345 433.28C569.345 433.597 569.409 433.874 569.536 434.111C569.667 434.348 569.849 434.532 570.082 434.664C570.314 434.795 570.585 434.86 570.894 434.86C571.203 434.86 571.472 434.795 571.7 434.664C571.933 434.532 572.115 434.348 572.246 434.111C572.377 433.874 572.443 433.597 572.443 433.28ZM578.389 435.685V436.65H575.292V435.685H578.389ZM587.332 435.184V435.768C587.332 436.462 587.245 437.084 587.071 437.634C586.898 438.184 586.648 438.652 586.322 439.037C585.997 439.422 585.605 439.716 585.148 439.919C584.695 440.122 584.187 440.224 583.625 440.224C583.079 440.224 582.577 440.122 582.12 439.919C581.667 439.716 581.274 439.422 580.94 439.037C580.609 438.652 580.353 438.184 580.172 437.634C579.99 437.084 579.899 436.462 579.899 435.768V435.184C579.899 434.49 579.987 433.87 580.165 433.324C580.347 432.774 580.603 432.306 580.933 431.921C581.263 431.532 581.655 431.236 582.108 431.033C582.565 430.83 583.066 430.728 583.612 430.728C584.175 430.728 584.683 430.83 585.135 431.033C585.592 431.236 585.984 431.532 586.31 431.921C586.64 432.306 586.892 432.774 587.065 433.324C587.243 433.87 587.332 434.49 587.332 435.184ZM586.119 435.768V435.171C586.119 434.621 586.062 434.135 585.948 433.711C585.838 433.288 585.675 432.933 585.459 432.645C585.243 432.357 584.979 432.139 584.666 431.991C584.357 431.843 584.005 431.769 583.612 431.769C583.231 431.769 582.886 431.843 582.577 431.991C582.273 432.139 582.01 432.357 581.79 432.645C581.574 432.933 581.407 433.288 581.289 433.711C581.17 434.135 581.111 434.621 581.111 435.171V435.768C581.111 436.322 581.17 436.813 581.289 437.241C581.407 437.664 581.576 438.021 581.797 438.313C582.021 438.601 582.285 438.819 582.59 438.967C582.899 439.115 583.244 439.189 583.625 439.189C584.022 439.189 584.376 439.115 584.685 438.967C584.994 438.819 585.254 438.601 585.465 438.313C585.681 438.021 585.844 437.664 585.954 437.241C586.064 436.813 586.119 436.322 586.119 435.768ZM592.237 439.259C592.516 439.259 592.774 439.202 593.011 439.088C593.248 438.974 593.443 438.817 593.595 438.618C593.748 438.415 593.834 438.184 593.856 437.926H594.973C594.952 438.332 594.814 438.711 594.56 439.062C594.311 439.409 593.983 439.691 593.576 439.907C593.17 440.118 592.724 440.224 592.237 440.224C591.721 440.224 591.27 440.133 590.885 439.951C590.504 439.769 590.187 439.519 589.933 439.202C589.683 438.885 589.495 438.521 589.368 438.11C589.245 437.696 589.184 437.258 589.184 436.796V436.53C589.184 436.068 589.245 435.633 589.368 435.222C589.495 434.807 589.683 434.441 589.933 434.124C590.187 433.807 590.504 433.557 590.885 433.375C591.27 433.193 591.721 433.102 592.237 433.102C592.774 433.102 593.244 433.212 593.646 433.432C594.048 433.648 594.363 433.944 594.592 434.321C594.825 434.693 594.952 435.116 594.973 435.59H593.856C593.834 435.307 593.754 435.051 593.614 434.822C593.479 434.594 593.293 434.412 593.056 434.276C592.823 434.137 592.55 434.067 592.237 434.067C591.877 434.067 591.575 434.139 591.329 434.283C591.088 434.422 590.895 434.613 590.752 434.854C590.612 435.091 590.51 435.355 590.447 435.647C590.388 435.935 590.358 436.229 590.358 436.53V436.796C590.358 437.097 590.388 437.393 590.447 437.685C590.506 437.977 590.606 438.241 590.745 438.478C590.889 438.715 591.082 438.906 591.323 439.05C591.568 439.189 591.873 439.259 592.237 439.259ZM599.669 433.229V434.13H595.955V433.229H599.669ZM597.212 431.56H598.386V438.396C598.386 438.629 598.422 438.804 598.494 438.923C598.566 439.041 598.659 439.12 598.774 439.158C598.888 439.196 599.011 439.215 599.142 439.215C599.239 439.215 599.341 439.206 599.446 439.189C599.556 439.168 599.639 439.151 599.694 439.139L599.7 440.097C599.607 440.127 599.484 440.154 599.332 440.18C599.184 440.209 599.004 440.224 598.793 440.224C598.505 440.224 598.24 440.167 597.999 440.053C597.758 439.938 597.565 439.748 597.422 439.481C597.282 439.211 597.212 438.847 597.212 438.39V431.56Z" fill="black"/>
<path d="M50.2412 141.12V141.78L46.4136 150.362H45.1758L48.9971 142.085H43.9951V141.12H50.2412ZM53.5659 145.963L52.6265 145.722L53.0898 141.12H57.8315V142.205H54.0864L53.8071 144.719C53.9764 144.622 54.1901 144.531 54.4482 144.446C54.7106 144.361 55.0111 144.319 55.3496 144.319C55.777 144.319 56.16 144.393 56.4985 144.541C56.8371 144.685 57.1248 144.893 57.3618 145.163C57.603 145.434 57.7871 145.76 57.9141 146.141C58.041 146.522 58.1045 146.947 58.1045 147.417C58.1045 147.861 58.0431 148.27 57.9204 148.642C57.8019 149.014 57.6221 149.34 57.3809 149.619C57.1396 149.895 56.835 150.108 56.4668 150.261C56.1029 150.413 55.6733 150.489 55.1782 150.489C54.8058 150.489 54.4525 150.438 54.1182 150.337C53.7881 150.231 53.4919 150.072 53.2295 149.861C52.9714 149.645 52.7598 149.378 52.5947 149.061C52.4339 148.739 52.3324 148.363 52.29 147.931H53.4072C53.458 148.278 53.5596 148.57 53.7119 148.807C53.8643 149.044 54.0632 149.224 54.3086 149.346C54.5583 149.465 54.8481 149.524 55.1782 149.524C55.4575 149.524 55.7051 149.476 55.9209 149.378C56.1367 149.281 56.3187 149.141 56.4668 148.959C56.6149 148.777 56.7271 148.557 56.8032 148.299C56.8836 148.041 56.9238 147.751 56.9238 147.43C56.9238 147.138 56.8836 146.867 56.8032 146.617C56.7228 146.367 56.6022 146.149 56.4414 145.963C56.2848 145.777 56.0923 145.633 55.8638 145.532C55.6353 145.426 55.3729 145.373 55.0767 145.373C54.6831 145.373 54.3848 145.426 54.1816 145.532C53.9827 145.637 53.7775 145.781 53.5659 145.963ZM64.9253 140.612V150.362H63.7446V140.612H64.9253ZM69.1211 143.494L66.125 146.7L64.4492 148.439L64.354 147.188L65.5537 145.754L67.6865 143.494H69.1211ZM68.0483 150.362L65.5981 147.087L66.2075 146.039L69.4321 150.362H68.0483ZM72.0015 144.859V150.362H70.8208V143.494H71.938L72.0015 144.859ZM71.7603 146.668L71.2144 146.649C71.2186 146.179 71.2799 145.745 71.3984 145.347C71.5169 144.945 71.6925 144.596 71.9253 144.3C72.158 144.004 72.4479 143.775 72.7949 143.615C73.1419 143.45 73.5439 143.367 74.001 143.367C74.3226 143.367 74.6188 143.414 74.8896 143.507C75.1605 143.596 75.3953 143.737 75.5942 143.932C75.7931 144.127 75.9476 144.376 76.0576 144.681C76.1676 144.986 76.2227 145.354 76.2227 145.785V150.362H75.0483V145.843C75.0483 145.483 74.987 145.195 74.8643 144.979C74.7458 144.763 74.5765 144.607 74.3564 144.51C74.1364 144.408 73.8783 144.357 73.582 144.357C73.235 144.357 72.9451 144.419 72.7124 144.541C72.4797 144.664 72.2935 144.833 72.1538 145.049C72.0142 145.265 71.9126 145.513 71.8491 145.792C71.7899 146.067 71.7603 146.359 71.7603 146.668ZM76.21 146.02L75.4229 146.262C75.4271 145.885 75.4884 145.523 75.6069 145.176C75.7297 144.829 75.9053 144.52 76.1338 144.249C76.3665 143.978 76.6522 143.765 76.9907 143.608C77.3293 143.447 77.7165 143.367 78.1523 143.367C78.5205 143.367 78.8464 143.416 79.1299 143.513C79.4176 143.61 79.6589 143.761 79.8535 143.964C80.0524 144.163 80.2026 144.419 80.3042 144.732C80.4058 145.045 80.4565 145.417 80.4565 145.849V150.362H79.2759V145.836C79.2759 145.451 79.2145 145.153 79.0918 144.941C78.9733 144.725 78.804 144.575 78.584 144.491C78.3682 144.402 78.11 144.357 77.8096 144.357C77.5514 144.357 77.3229 144.402 77.124 144.491C76.9251 144.579 76.758 144.702 76.6226 144.859C76.4871 145.011 76.3835 145.187 76.3115 145.386C76.2438 145.584 76.21 145.796 76.21 146.02Z" fill="black"/>
<path d="M45.7534 233.707L44.814 233.465L45.2773 228.863H50.019V229.949H46.2739L45.9946 232.462C46.1639 232.365 46.3776 232.274 46.6357 232.19C46.8981 232.105 47.1986 232.063 47.5371 232.063C47.9645 232.063 48.3475 232.137 48.686 232.285C49.0246 232.429 49.3123 232.636 49.5493 232.907C49.7905 233.178 49.9746 233.503 50.1016 233.884C50.2285 234.265 50.292 234.69 50.292 235.16C50.292 235.605 50.2306 236.013 50.1079 236.385C49.9894 236.758 49.8096 237.084 49.5684 237.363C49.3271 237.638 49.0225 237.852 48.6543 238.004C48.2904 238.156 47.8608 238.232 47.3657 238.232C46.9933 238.232 46.64 238.182 46.3057 238.08C45.9756 237.974 45.6794 237.816 45.417 237.604C45.1589 237.388 44.9473 237.122 44.7822 236.804C44.6214 236.483 44.5199 236.106 44.4775 235.674H45.5947C45.6455 236.021 45.7471 236.313 45.8994 236.55C46.0518 236.787 46.2507 236.967 46.4961 237.09C46.7458 237.208 47.0356 237.268 47.3657 237.268C47.645 237.268 47.8926 237.219 48.1084 237.122C48.3242 237.024 48.5062 236.885 48.6543 236.703C48.8024 236.521 48.9146 236.301 48.9907 236.043C49.0711 235.784 49.1113 235.495 49.1113 235.173C49.1113 234.881 49.0711 234.61 48.9907 234.36C48.9103 234.111 48.7897 233.893 48.6289 233.707C48.4723 233.52 48.2798 233.377 48.0513 233.275C47.8228 233.169 47.5604 233.116 47.2642 233.116C46.8706 233.116 46.5723 233.169 46.3691 233.275C46.1702 233.381 45.965 233.525 45.7534 233.707ZM57.8823 232.748V234.157C57.8823 234.915 57.8146 235.554 57.6792 236.074C57.5438 236.595 57.3491 237.014 57.0952 237.331C56.8413 237.648 56.5345 237.879 56.1748 238.023C55.8193 238.163 55.4173 238.232 54.9688 238.232C54.6133 238.232 54.2853 238.188 53.9849 238.099C53.6844 238.01 53.4136 237.869 53.1724 237.674C52.9354 237.475 52.7323 237.217 52.563 236.899C52.3937 236.582 52.2646 236.197 52.1758 235.744C52.0869 235.291 52.0425 234.762 52.0425 234.157V232.748C52.0425 231.991 52.1102 231.356 52.2456 230.844C52.3853 230.332 52.582 229.921 52.8359 229.612C53.0898 229.299 53.3945 229.075 53.75 228.94C54.1097 228.804 54.5117 228.736 54.9561 228.736C55.3158 228.736 55.6458 228.781 55.9463 228.87C56.251 228.954 56.5218 229.092 56.7588 229.282C56.9958 229.468 57.1968 229.718 57.3618 230.031C57.5311 230.34 57.6602 230.719 57.749 231.168C57.8379 231.616 57.8823 232.143 57.8823 232.748ZM56.7017 234.348V232.551C56.7017 232.137 56.6763 231.773 56.6255 231.46C56.5789 231.142 56.5091 230.871 56.416 230.647C56.3229 230.423 56.2044 230.241 56.0605 230.101C55.9209 229.961 55.758 229.86 55.5718 229.796C55.3898 229.729 55.1846 229.695 54.9561 229.695C54.6768 229.695 54.4292 229.748 54.2134 229.854C53.9976 229.955 53.8156 230.118 53.6675 230.342C53.5236 230.567 53.4136 230.861 53.3374 231.225C53.2612 231.589 53.2231 232.031 53.2231 232.551V234.348C53.2231 234.762 53.2464 235.128 53.293 235.446C53.3438 235.763 53.4178 236.038 53.5151 236.271C53.6125 236.5 53.731 236.688 53.8706 236.836C54.0103 236.984 54.1711 237.094 54.353 237.166C54.5392 237.234 54.7445 237.268 54.9688 237.268C55.2565 237.268 55.5083 237.213 55.7241 237.103C55.9399 236.993 56.1198 236.821 56.2637 236.588C56.4118 236.351 56.5218 236.049 56.5938 235.681C56.6657 235.308 56.7017 234.864 56.7017 234.348ZM64.9253 228.356V238.106H63.7446V228.356H64.9253ZM69.1211 231.237L66.125 234.443L64.4492 236.182L64.354 234.932L65.5537 233.497L67.6865 231.237H69.1211ZM68.0483 238.106L65.5981 234.83L66.2075 233.783L69.4321 238.106H68.0483ZM72.0015 232.602V238.106H70.8208V231.237H71.938L72.0015 232.602ZM71.7603 234.411L71.2144 234.392C71.2186 233.922 71.2799 233.489 71.3984 233.091C71.5169 232.689 71.6925 232.34 71.9253 232.044C72.158 231.747 72.4479 231.519 72.7949 231.358C73.1419 231.193 73.5439 231.11 74.001 231.11C74.3226 231.11 74.6188 231.157 74.8896 231.25C75.1605 231.339 75.3953 231.481 75.5942 231.675C75.7931 231.87 75.9476 232.12 76.0576 232.424C76.1676 232.729 76.2227 233.097 76.2227 233.529V238.106H75.0483V233.586C75.0483 233.226 74.987 232.939 74.8643 232.723C74.7458 232.507 74.5765 232.35 74.3564 232.253C74.1364 232.151 73.8783 232.101 73.582 232.101C73.235 232.101 72.9451 232.162 72.7124 232.285C72.4797 232.407 72.2935 232.577 72.1538 232.793C72.0142 233.008 71.9126 233.256 71.8491 233.535C71.7899 233.81 71.7603 234.102 71.7603 234.411ZM76.21 233.764L75.4229 234.005C75.4271 233.628 75.4884 233.266 75.6069 232.919C75.7297 232.572 75.9053 232.264 76.1338 231.993C76.3665 231.722 76.6522 231.508 76.9907 231.352C77.3293 231.191 77.7165 231.11 78.1523 231.11C78.5205 231.11 78.8464 231.159 79.1299 231.256C79.4176 231.354 79.6589 231.504 79.8535 231.707C80.0524 231.906 80.2026 232.162 80.3042 232.475C80.4058 232.788 80.4565 233.161 80.4565 233.592V238.106H79.2759V233.58C79.2759 233.195 79.2145 232.896 79.0918 232.685C78.9733 232.469 78.804 232.319 78.584 232.234C78.3682 232.145 78.11 232.101 77.8096 232.101C77.5514 232.101 77.3229 232.145 77.124 232.234C76.9251 232.323 76.758 232.446 76.6226 232.602C76.4871 232.754 76.3835 232.93 76.3115 233.129C76.2438 233.328 76.21 233.539 76.21 233.764Z" fill="black"/>
<path d="M50.3237 324.884V325.849H44.2744V325.005L47.3022 321.634C47.6746 321.219 47.9624 320.868 48.1655 320.58C48.3729 320.288 48.5168 320.028 48.5972 319.8C48.6818 319.567 48.7241 319.33 48.7241 319.089C48.7241 318.784 48.6606 318.509 48.5337 318.263C48.411 318.014 48.229 317.815 47.9878 317.667C47.7466 317.519 47.4546 317.445 47.1118 317.445C46.7013 317.445 46.3586 317.525 46.0835 317.686C45.8127 317.842 45.6095 318.062 45.4741 318.346C45.3387 318.63 45.271 318.955 45.271 319.324H44.0967C44.0967 318.803 44.2109 318.327 44.4395 317.895C44.668 317.464 45.0065 317.121 45.4551 316.867C45.9036 316.609 46.4559 316.48 47.1118 316.48C47.6958 316.48 48.1951 316.583 48.6099 316.791C49.0246 316.994 49.342 317.282 49.562 317.654C49.7863 318.022 49.8984 318.454 49.8984 318.949C49.8984 319.22 49.8519 319.495 49.7588 319.774C49.6699 320.049 49.5451 320.324 49.3843 320.599C49.2277 320.874 49.0436 321.145 48.832 321.412C48.6247 321.679 48.4025 321.941 48.1655 322.199L45.6899 324.884H50.3237ZM53.5659 321.45L52.6265 321.209L53.0898 316.607H57.8315V317.692H54.0864L53.8071 320.206C53.9764 320.109 54.1901 320.018 54.4482 319.933C54.7106 319.848 55.0111 319.806 55.3496 319.806C55.777 319.806 56.16 319.88 56.4985 320.028C56.8371 320.172 57.1248 320.379 57.3618 320.65C57.603 320.921 57.7871 321.247 57.9141 321.628C58.041 322.009 58.1045 322.434 58.1045 322.904C58.1045 323.348 58.0431 323.756 57.9204 324.129C57.8019 324.501 57.6221 324.827 57.3809 325.106C57.1396 325.381 56.835 325.595 56.4668 325.747C56.1029 325.9 55.6733 325.976 55.1782 325.976C54.8058 325.976 54.4525 325.925 54.1182 325.824C53.7881 325.718 53.4919 325.559 53.2295 325.347C52.9714 325.132 52.7598 324.865 52.5947 324.548C52.4339 324.226 52.3324 323.849 52.29 323.418H53.4072C53.458 323.765 53.5596 324.057 53.7119 324.294C53.8643 324.531 54.0632 324.711 54.3086 324.833C54.5583 324.952 54.8481 325.011 55.1782 325.011C55.4575 325.011 55.7051 324.962 55.9209 324.865C56.1367 324.768 56.3187 324.628 56.4668 324.446C56.6149 324.264 56.7271 324.044 56.8032 323.786C56.8836 323.528 56.9238 323.238 56.9238 322.916C56.9238 322.624 56.8836 322.353 56.8032 322.104C56.7228 321.854 56.6022 321.636 56.4414 321.45C56.2848 321.264 56.0923 321.12 55.8638 321.018C55.6353 320.913 55.3729 320.86 55.0767 320.86C54.6831 320.86 54.3848 320.913 54.1816 321.018C53.9827 321.124 53.7775 321.268 53.5659 321.45ZM64.9253 316.099V325.849H63.7446V316.099H64.9253ZM69.1211 318.981L66.125 322.186L64.4492 323.926L64.354 322.675L65.5537 321.241L67.6865 318.981H69.1211ZM68.0483 325.849L65.5981 322.574L66.2075 321.526L69.4321 325.849H68.0483ZM72.0015 320.346V325.849H70.8208V318.981H71.938L72.0015 320.346ZM71.7603 322.155L71.2144 322.136C71.2186 321.666 71.2799 321.232 71.3984 320.834C71.5169 320.432 71.6925 320.083 71.9253 319.787C72.158 319.491 72.4479 319.262 72.7949 319.101C73.1419 318.936 73.5439 318.854 74.001 318.854C74.3226 318.854 74.6188 318.9 74.8896 318.993C75.1605 319.082 75.3953 319.224 75.5942 319.419C75.7931 319.613 75.9476 319.863 76.0576 320.168C76.1676 320.472 76.2227 320.841 76.2227 321.272V325.849H75.0483V321.329C75.0483 320.97 74.987 320.682 74.8643 320.466C74.7458 320.25 74.5765 320.094 74.3564 319.996C74.1364 319.895 73.8783 319.844 73.582 319.844C73.235 319.844 72.9451 319.905 72.7124 320.028C72.4797 320.151 72.2935 320.32 72.1538 320.536C72.0142 320.752 71.9126 320.999 71.8491 321.279C71.7899 321.554 71.7603 321.846 71.7603 322.155ZM76.21 321.507L75.4229 321.748C75.4271 321.372 75.4884 321.01 75.6069 320.663C75.7297 320.316 75.9053 320.007 76.1338 319.736C76.3665 319.465 76.6522 319.252 76.9907 319.095C77.3293 318.934 77.7165 318.854 78.1523 318.854C78.5205 318.854 78.8464 318.902 79.1299 319C79.4176 319.097 79.6589 319.247 79.8535 319.45C80.0524 319.649 80.2026 319.905 80.3042 320.219C80.4058 320.532 80.4565 320.904 80.4565 321.336V325.849H79.2759V321.323C79.2759 320.938 79.2145 320.64 79.0918 320.428C78.9733 320.212 78.804 320.062 78.584 319.977C78.3682 319.888 78.11 319.844 77.8096 319.844C77.5514 319.844 77.3229 319.888 77.124 319.977C76.9251 320.066 76.758 320.189 76.6226 320.346C76.4871 320.498 76.3835 320.673 76.3115 320.872C76.2438 321.071 76.21 321.283 76.21 321.507Z" fill="black"/>
<path d="M50.0698 408.235V409.644C50.0698 410.402 50.0021 411.041 49.8667 411.561C49.7313 412.082 49.5366 412.501 49.2827 412.818C49.0288 413.135 48.722 413.366 48.3623 413.51C48.0068 413.649 47.6048 413.719 47.1562 413.719C46.8008 413.719 46.4728 413.675 46.1724 413.586C45.8719 413.497 45.6011 413.355 45.3599 413.161C45.1229 412.962 44.9198 412.704 44.7505 412.386C44.5812 412.069 44.4521 411.684 44.3633 411.231C44.2744 410.778 44.23 410.249 44.23 409.644V408.235C44.23 407.477 44.2977 406.843 44.4331 406.331C44.5728 405.819 44.7695 405.408 45.0234 405.099C45.2773 404.786 45.582 404.562 45.9375 404.426C46.2972 404.291 46.6992 404.223 47.1436 404.223C47.5033 404.223 47.8333 404.268 48.1338 404.356C48.4385 404.441 48.7093 404.579 48.9463 404.769C49.1833 404.955 49.3843 405.205 49.5493 405.518C49.7186 405.827 49.8477 406.206 49.9365 406.654C50.0254 407.103 50.0698 407.63 50.0698 408.235ZM48.8892 409.835V408.038C48.8892 407.623 48.8638 407.259 48.813 406.946C48.7664 406.629 48.6966 406.358 48.6035 406.134C48.5104 405.91 48.3919 405.728 48.248 405.588C48.1084 405.448 47.9455 405.347 47.7593 405.283C47.5773 405.216 47.3721 405.182 47.1436 405.182C46.8643 405.182 46.6167 405.235 46.4009 405.34C46.1851 405.442 46.0031 405.605 45.855 405.829C45.7111 406.053 45.6011 406.348 45.5249 406.711C45.4487 407.075 45.4106 407.518 45.4106 408.038V409.835C45.4106 410.249 45.4339 410.615 45.4805 410.933C45.5312 411.25 45.6053 411.525 45.7026 411.758C45.8 411.986 45.9185 412.175 46.0581 412.323C46.1978 412.471 46.3586 412.581 46.5405 412.653C46.7267 412.721 46.932 412.754 47.1562 412.754C47.444 412.754 47.6958 412.699 47.9116 412.589C48.1274 412.479 48.3073 412.308 48.4512 412.075C48.5993 411.838 48.7093 411.536 48.7812 411.168C48.8532 410.795 48.8892 410.351 48.8892 409.835ZM57.1128 403.842V413.592H55.9321V403.842H57.1128ZM61.3086 406.724L58.3125 409.93L56.6367 411.669L56.5415 410.418L57.7412 408.984L59.874 406.724H61.3086ZM60.2358 413.592L57.7856 410.317L58.395 409.27L61.6196 413.592H60.2358ZM64.189 408.089V413.592H63.0083V406.724H64.1255L64.189 408.089ZM63.9478 409.898L63.4019 409.879C63.4061 409.409 63.4674 408.975 63.5859 408.578C63.7044 408.176 63.88 407.827 64.1128 407.53C64.3455 407.234 64.6354 407.006 64.9824 406.845C65.3294 406.68 65.7314 406.597 66.1885 406.597C66.5101 406.597 66.8063 406.644 67.0771 406.737C67.348 406.826 67.5828 406.967 67.7817 407.162C67.9806 407.357 68.1351 407.606 68.2451 407.911C68.3551 408.216 68.4102 408.584 68.4102 409.016V413.592H67.2358V409.073C67.2358 408.713 67.1745 408.425 67.0518 408.21C66.9333 407.994 66.764 407.837 66.5439 407.74C66.3239 407.638 66.0658 407.587 65.7695 407.587C65.4225 407.587 65.1326 407.649 64.8999 407.772C64.6672 407.894 64.481 408.064 64.3413 408.279C64.2017 408.495 64.1001 408.743 64.0366 409.022C63.9774 409.297 63.9478 409.589 63.9478 409.898ZM68.3975 409.251L67.6104 409.492C67.6146 409.115 67.6759 408.753 67.7944 408.406C67.9172 408.059 68.0928 407.75 68.3213 407.48C68.554 407.209 68.8397 406.995 69.1782 406.838C69.5168 406.678 69.904 406.597 70.3398 406.597C70.708 406.597 71.0339 406.646 71.3174 406.743C71.6051 406.841 71.8464 406.991 72.041 407.194C72.2399 407.393 72.3901 407.649 72.4917 407.962C72.5933 408.275 72.644 408.647 72.644 409.079V413.592H71.4634V409.066C71.4634 408.681 71.402 408.383 71.2793 408.171C71.1608 407.956 70.9915 407.805 70.7715 407.721C70.5557 407.632 70.2975 407.587 69.9971 407.587C69.7389 407.587 69.5104 407.632 69.3115 407.721C69.1126 407.81 68.9455 407.932 68.8101 408.089C68.6746 408.241 68.571 408.417 68.499 408.616C68.4313 408.815 68.3975 409.026 68.3975 409.251Z" fill="black"/>
<path d="M132.842 325.369C192.661 325.369 185.593 234.146 245.412 234.146C305.231 234.146 298.152 258.472 357.971 258.472C417.79 258.472 408.576 298.437 468.395 298.437C528.214 298.437 538.346 318.967 598.165 318.967" stroke="#164473" stroke-width="5.81515" stroke-linecap="round"/>
<path d="M132.842 298.002C191.261 298.002 198.723 234.46 257.142 234.46C315.561 234.46 305.876 183.974 364.295 183.974C422.713 183.974 421.597 255.351 480.015 255.351C538.434 255.351 541.607 291.326 600.026 291.326" stroke="#0096C7" stroke-opacity="0.07" stroke-width="34" stroke-linecap="round"/>
<path d="M132.842 298.002C191.261 298.002 198.723 234.46 257.142 234.46C315.561 234.46 305.876 183.974 364.295 183.974C422.713 183.974 421.597 255.351 480.015 255.351C538.434 255.351 541.607 291.326 600.026 291.326" stroke="#FC6435" stroke-width="5.81515" stroke-linecap="round"/>
<path d="M372.879 183.213C372.879 188.779 367.275 193.616 359.919 193.616C352.563 193.616 346.96 188.779 346.96 183.213C346.96 177.648 352.563 172.811 359.919 172.811C367.275 172.811 372.879 177.648 372.879 183.213Z" fill="#0096C7" stroke="white" stroke-width="2"/>
<rect x="321.281" y="136.505" width="81" height="25" rx="4" fill="#FF8458"/>
<path d="M336.392 146.673L334.274 152.505H333.408L335.847 146.106H336.405L336.392 146.673ZM338.167 152.505L336.045 146.673L336.032 146.106H336.59L339.037 152.505H338.167ZM338.057 150.136V150.83H334.463V150.136H338.057ZM341.497 151.771L342.798 147.75H343.629L341.919 152.505H341.374L341.497 151.771ZM340.412 147.75L341.752 151.793L341.845 152.505H341.3L339.577 147.75H340.412ZM346.823 152.593C346.492 152.593 346.191 152.537 345.922 152.426C345.655 152.311 345.425 152.152 345.232 151.947C345.041 151.742 344.895 151.498 344.792 151.217C344.69 150.936 344.639 150.628 344.639 150.294V150.11C344.639 149.723 344.696 149.379 344.81 149.077C344.924 148.772 345.079 148.515 345.276 148.304C345.472 148.093 345.695 147.933 345.944 147.825C346.193 147.716 346.451 147.662 346.717 147.662C347.057 147.662 347.35 147.721 347.596 147.838C347.845 147.955 348.049 148.119 348.207 148.33C348.365 148.538 348.482 148.784 348.558 149.068C348.635 149.35 348.673 149.657 348.673 149.991V150.356H345.122V149.692H347.86V149.631C347.848 149.42 347.804 149.215 347.728 149.016C347.655 148.816 347.537 148.652 347.376 148.523C347.215 148.394 346.995 148.33 346.717 148.33C346.533 148.33 346.363 148.37 346.207 148.449C346.052 148.525 345.919 148.639 345.807 148.791C345.696 148.944 345.61 149.13 345.548 149.35C345.487 149.569 345.456 149.823 345.456 150.11V150.294C345.456 150.52 345.487 150.732 345.548 150.932C345.613 151.128 345.705 151.301 345.825 151.45C345.948 151.6 346.096 151.717 346.269 151.802C346.445 151.887 346.644 151.929 346.867 151.929C347.154 151.929 347.397 151.871 347.596 151.753C347.795 151.636 347.97 151.479 348.119 151.283L348.611 151.674C348.509 151.829 348.378 151.977 348.22 152.118C348.062 152.259 347.867 152.373 347.636 152.461C347.407 152.549 347.136 152.593 346.823 152.593ZM350.935 148.497V152.505H350.122V147.75H350.913L350.935 148.497ZM352.42 147.724L352.416 148.479C352.349 148.465 352.284 148.456 352.223 148.453C352.164 148.447 352.097 148.444 352.02 148.444C351.833 148.444 351.667 148.474 351.524 148.532C351.38 148.591 351.259 148.673 351.159 148.778C351.059 148.884 350.98 149.01 350.922 149.156C350.866 149.3 350.829 149.458 350.812 149.631L350.583 149.763C350.583 149.475 350.611 149.206 350.667 148.954C350.725 148.702 350.815 148.479 350.935 148.286C351.055 148.09 351.207 147.937 351.392 147.829C351.579 147.718 351.802 147.662 352.06 147.662C352.119 147.662 352.186 147.669 352.262 147.684C352.338 147.696 352.391 147.709 352.42 147.724ZM356.3 151.692V149.244C356.3 149.057 356.262 148.894 356.185 148.756C356.112 148.616 356.001 148.507 355.851 148.431C355.702 148.355 355.517 148.317 355.298 148.317C355.093 148.317 354.912 148.352 354.757 148.422C354.605 148.493 354.485 148.585 354.397 148.699C354.312 148.813 354.269 148.936 354.269 149.068H353.456C353.456 148.898 353.5 148.73 353.588 148.563C353.676 148.396 353.802 148.245 353.966 148.11C354.133 147.973 354.332 147.864 354.564 147.785C354.798 147.703 355.059 147.662 355.346 147.662C355.692 147.662 355.996 147.721 356.26 147.838C356.527 147.955 356.735 148.132 356.884 148.37C357.036 148.604 357.113 148.898 357.113 149.253V151.468C357.113 151.626 357.126 151.794 357.152 151.973C357.182 152.152 357.224 152.306 357.28 152.434V152.505H356.432C356.391 152.411 356.358 152.287 356.335 152.131C356.311 151.973 356.3 151.827 356.3 151.692ZM356.44 149.622L356.449 150.193H355.627C355.396 150.193 355.189 150.212 355.008 150.25C354.826 150.286 354.674 150.34 354.551 150.413C354.428 150.486 354.334 150.579 354.269 150.69C354.205 150.798 354.173 150.926 354.173 151.072C354.173 151.222 354.206 151.358 354.274 151.481C354.341 151.604 354.442 151.702 354.577 151.775C354.715 151.846 354.883 151.881 355.082 151.881C355.331 151.881 355.551 151.828 355.742 151.723C355.932 151.617 356.083 151.488 356.194 151.336C356.308 151.184 356.37 151.036 356.379 150.892L356.726 151.283C356.705 151.406 356.65 151.542 356.559 151.692C356.468 151.841 356.347 151.985 356.194 152.122C356.045 152.257 355.866 152.37 355.658 152.461C355.453 152.549 355.222 152.593 354.964 152.593C354.641 152.593 354.359 152.53 354.116 152.404C353.875 152.278 353.688 152.109 353.553 151.898C353.421 151.684 353.355 151.446 353.355 151.182C353.355 150.927 353.405 150.703 353.505 150.51C353.604 150.313 353.748 150.151 353.935 150.022C354.123 149.89 354.349 149.79 354.612 149.723C354.876 149.656 355.17 149.622 355.495 149.622H356.44ZM361.972 147.75H362.71V152.404C362.71 152.823 362.625 153.18 362.455 153.476C362.286 153.772 362.048 153.996 361.744 154.148C361.442 154.304 361.093 154.381 360.698 154.381C360.534 154.381 360.34 154.355 360.118 154.302C359.898 154.252 359.681 154.166 359.467 154.043C359.256 153.923 359.079 153.76 358.935 153.555L359.362 153.072C359.561 153.312 359.769 153.479 359.986 153.573C360.205 153.666 360.422 153.713 360.636 153.713C360.894 153.713 361.117 153.665 361.304 153.568C361.492 153.472 361.637 153.328 361.739 153.138C361.845 152.95 361.897 152.719 361.897 152.443V148.796L361.972 147.75ZM358.698 150.18V150.088C358.698 149.725 358.741 149.395 358.826 149.099C358.913 148.8 359.038 148.544 359.199 148.33C359.363 148.116 359.561 147.952 359.792 147.838C360.024 147.721 360.285 147.662 360.575 147.662C360.873 147.662 361.134 147.715 361.357 147.82C361.582 147.923 361.773 148.074 361.928 148.273C362.086 148.469 362.211 148.706 362.302 148.985C362.392 149.263 362.455 149.578 362.491 149.93V150.334C362.458 150.683 362.395 150.996 362.302 151.274C362.211 151.553 362.086 151.79 361.928 151.986C361.773 152.183 361.582 152.333 361.357 152.439C361.131 152.541 360.868 152.593 360.566 152.593C360.282 152.593 360.024 152.533 359.792 152.413C359.564 152.292 359.368 152.124 359.203 151.907C359.039 151.69 358.913 151.435 358.826 151.142C358.741 150.847 358.698 150.526 358.698 150.18ZM359.511 150.088V150.18C359.511 150.417 359.535 150.64 359.581 150.848C359.631 151.056 359.706 151.239 359.806 151.397C359.908 151.556 360.038 151.68 360.197 151.771C360.355 151.859 360.544 151.903 360.764 151.903C361.033 151.903 361.256 151.846 361.432 151.731C361.607 151.617 361.746 151.466 361.849 151.279C361.954 151.091 362.036 150.888 362.095 150.668V149.609C362.063 149.448 362.013 149.292 361.946 149.143C361.881 148.991 361.796 148.856 361.691 148.739C361.588 148.619 361.461 148.523 361.308 148.453C361.156 148.383 360.977 148.348 360.772 148.348C360.55 148.348 360.358 148.394 360.197 148.488C360.038 148.579 359.908 148.705 359.806 148.866C359.706 149.024 359.631 149.209 359.581 149.42C359.535 149.628 359.511 149.85 359.511 150.088ZM366.418 152.593C366.087 152.593 365.787 152.537 365.517 152.426C365.251 152.311 365.021 152.152 364.828 151.947C364.637 151.742 364.491 151.498 364.388 151.217C364.286 150.936 364.234 150.628 364.234 150.294V150.11C364.234 149.723 364.291 149.379 364.406 149.077C364.52 148.772 364.675 148.515 364.871 148.304C365.068 148.093 365.29 147.933 365.539 147.825C365.788 147.716 366.046 147.662 366.313 147.662C366.653 147.662 366.946 147.721 367.192 147.838C367.441 147.955 367.644 148.119 367.803 148.33C367.961 148.538 368.078 148.784 368.154 149.068C368.23 149.35 368.268 149.657 368.268 149.991V150.356H364.718V149.692H367.455V149.631C367.444 149.42 367.4 149.215 367.324 149.016C367.25 148.816 367.133 148.652 366.972 148.523C366.811 148.394 366.591 148.33 366.313 148.33C366.128 148.33 365.958 148.37 365.803 148.449C365.648 148.525 365.515 148.639 365.403 148.791C365.292 148.944 365.205 149.13 365.144 149.35C365.082 149.569 365.052 149.823 365.052 150.11V150.294C365.052 150.52 365.082 150.732 365.144 150.932C365.208 151.128 365.301 151.301 365.421 151.45C365.544 151.6 365.692 151.717 365.865 151.802C366.04 151.887 366.24 151.929 366.462 151.929C366.749 151.929 366.993 151.871 367.192 151.753C367.391 151.636 367.565 151.479 367.715 151.283L368.207 151.674C368.104 151.829 367.974 151.977 367.816 152.118C367.658 152.259 367.463 152.373 367.231 152.461C367.003 152.549 366.732 152.593 366.418 152.593ZM373.391 149.459L372.74 149.292L373.061 146.106H376.344V146.858H373.751L373.557 148.598C373.675 148.531 373.823 148.468 374.001 148.409C374.183 148.35 374.391 148.321 374.625 148.321C374.921 148.321 375.186 148.372 375.421 148.475C375.655 148.575 375.854 148.718 376.018 148.906C376.185 149.093 376.313 149.319 376.401 149.582C376.489 149.846 376.533 150.141 376.533 150.466C376.533 150.773 376.49 151.056 376.405 151.314C376.323 151.572 376.199 151.797 376.032 151.991C375.865 152.181 375.654 152.329 375.399 152.434C375.147 152.54 374.849 152.593 374.507 152.593C374.249 152.593 374.004 152.558 373.773 152.487C373.544 152.414 373.339 152.304 373.158 152.158C372.979 152.008 372.832 151.824 372.718 151.604C372.607 151.381 372.536 151.121 372.507 150.822H373.281C373.316 151.062 373.386 151.264 373.492 151.428C373.597 151.592 373.735 151.717 373.905 151.802C374.078 151.884 374.278 151.925 374.507 151.925C374.7 151.925 374.871 151.891 375.021 151.824C375.17 151.756 375.296 151.66 375.399 151.534C375.501 151.408 375.579 151.255 375.632 151.077C375.687 150.898 375.715 150.697 375.715 150.475C375.715 150.272 375.687 150.085 375.632 149.912C375.576 149.739 375.493 149.588 375.381 149.459C375.273 149.33 375.14 149.231 374.981 149.161C374.823 149.087 374.641 149.051 374.436 149.051C374.164 149.051 373.957 149.087 373.817 149.161C373.679 149.234 373.537 149.333 373.391 149.459ZM382.06 146.106V146.563L379.41 152.505H378.553L381.199 146.774H377.736V146.106H382.06ZM383.417 147.675V147.337C383.417 147.094 383.47 146.872 383.575 146.673C383.681 146.474 383.831 146.314 384.028 146.194C384.224 146.074 384.457 146.014 384.726 146.014C385.002 146.014 385.236 146.074 385.43 146.194C385.626 146.314 385.777 146.474 385.882 146.673C385.988 146.872 386.04 147.094 386.04 147.337V147.675C386.04 147.913 385.988 148.131 385.882 148.33C385.78 148.529 385.63 148.689 385.434 148.809C385.241 148.929 385.008 148.989 384.735 148.989C384.463 148.989 384.227 148.929 384.028 148.809C383.831 148.689 383.681 148.529 383.575 148.33C383.47 148.131 383.417 147.913 383.417 147.675ZM384.028 147.337V147.675C384.028 147.81 384.053 147.937 384.102 148.058C384.155 148.178 384.234 148.276 384.34 148.352C384.445 148.425 384.577 148.462 384.735 148.462C384.893 148.462 385.024 148.425 385.126 148.352C385.229 148.276 385.305 148.178 385.355 148.058C385.405 147.937 385.43 147.81 385.43 147.675V147.337C385.43 147.199 385.403 147.07 385.35 146.95C385.301 146.827 385.223 146.729 385.118 146.656C385.015 146.579 384.885 146.541 384.726 146.541C384.571 146.541 384.441 146.579 384.335 146.656C384.233 146.729 384.155 146.827 384.102 146.95C384.053 147.07 384.028 147.199 384.028 147.337ZM386.533 151.279V150.936C386.533 150.696 386.585 150.476 386.691 150.277C386.796 150.078 386.947 149.918 387.143 149.798C387.34 149.678 387.573 149.618 387.842 149.618C388.118 149.618 388.352 149.678 388.545 149.798C388.742 149.918 388.892 150.078 388.998 150.277C389.103 150.476 389.156 150.696 389.156 150.936V151.279C389.156 151.519 389.103 151.739 388.998 151.938C388.895 152.137 388.746 152.297 388.55 152.417C388.356 152.537 388.123 152.597 387.851 152.597C387.578 152.597 387.344 152.537 387.148 152.417C386.952 152.297 386.799 152.137 386.691 151.938C386.585 151.739 386.533 151.519 386.533 151.279ZM387.143 150.936V151.279C387.143 151.413 387.168 151.542 387.218 151.665C387.271 151.786 387.35 151.884 387.455 151.96C387.561 152.033 387.693 152.07 387.851 152.07C388.009 152.07 388.14 152.033 388.242 151.96C388.348 151.884 388.425 151.786 388.475 151.665C388.525 151.545 388.55 151.416 388.55 151.279V150.936C388.55 150.798 388.523 150.669 388.471 150.549C388.421 150.429 388.343 150.332 388.238 150.259C388.135 150.183 388.003 150.145 387.842 150.145C387.687 150.145 387.557 150.183 387.451 150.259C387.349 150.332 387.271 150.429 387.218 150.549C387.168 150.669 387.143 150.798 387.143 150.936ZM388.044 147.016L384.92 152.017L384.463 151.727L387.587 146.726L388.044 147.016Z" fill="white"/>
</g>
<defs>
<clipPath id="clip0_212_472">
<rect width="607" height="367" fill="white" transform="translate(12 105)"/>
</clipPath>
</defs>
</svg>
