<svg width="625" height="488" viewBox="0 0 625 488" fill="none" xmlns="http://www.w3.org/2000/svg">
<rect width="625" height="488" rx="8" fill="white"/>
<path d="M24.946 23.568C24.862 23.484 24.706 23.37 24.478 23.226C24.262 23.082 23.992 22.944 23.668 22.812C23.356 22.68 23.014 22.566 22.642 22.47C22.27 22.362 21.892 22.308 21.508 22.308C20.836 22.308 20.326 22.434 19.978 22.686C19.642 22.938 19.474 23.292 19.474 23.748C19.474 24.096 19.582 24.372 19.798 24.576C20.014 24.78 20.338 24.954 20.77 25.098C21.202 25.242 21.742 25.398 22.39 25.566C23.23 25.77 23.956 26.022 24.568 26.322C25.192 26.61 25.666 26.994 25.99 27.474C26.326 27.942 26.494 28.566 26.494 29.346C26.494 30.03 26.368 30.618 26.116 31.11C25.864 31.59 25.516 31.98 25.072 32.28C24.628 32.58 24.124 32.802 23.56 32.946C22.996 33.078 22.396 33.144 21.76 33.144C21.124 33.144 20.488 33.078 19.852 32.946C19.216 32.814 18.604 32.628 18.016 32.388C17.428 32.136 16.888 31.836 16.396 31.488L17.494 29.346C17.602 29.454 17.794 29.598 18.07 29.778C18.346 29.946 18.682 30.12 19.078 30.3C19.474 30.468 19.906 30.612 20.374 30.732C20.842 30.852 21.316 30.912 21.796 30.912C22.468 30.912 22.978 30.798 23.326 30.57C23.674 30.342 23.848 30.018 23.848 29.598C23.848 29.214 23.71 28.914 23.434 28.698C23.158 28.482 22.774 28.296 22.282 28.14C21.79 27.972 21.208 27.792 20.536 27.6C19.732 27.372 19.06 27.12 18.52 26.844C17.98 26.556 17.578 26.196 17.314 25.764C17.05 25.332 16.918 24.792 16.918 24.144C16.918 23.268 17.122 22.536 17.53 21.948C17.95 21.348 18.514 20.898 19.222 20.598C19.93 20.286 20.716 20.13 21.58 20.13C22.18 20.13 22.744 20.196 23.272 20.328C23.812 20.46 24.316 20.634 24.784 20.85C25.252 21.066 25.672 21.3 26.044 21.552L24.946 23.568ZM27.4539 30.21C27.4539 29.598 27.6219 29.064 27.9579 28.608C28.3059 28.14 28.7859 27.78 29.3979 27.528C30.0099 27.276 30.7119 27.15 31.5039 27.15C31.8999 27.15 32.3019 27.18 32.7099 27.24C33.1179 27.3 33.4719 27.396 33.7719 27.528V27.024C33.7719 26.424 33.5919 25.962 33.2319 25.638C32.8839 25.314 32.3619 25.152 31.6659 25.152C31.1499 25.152 30.6579 25.242 30.1899 25.422C29.7219 25.602 29.2299 25.866 28.7139 26.214L27.9399 24.63C28.5639 24.222 29.1999 23.916 29.8479 23.712C30.5079 23.508 31.1979 23.406 31.9179 23.406C33.2619 23.406 34.3059 23.742 35.0499 24.414C35.8059 25.086 36.1839 26.046 36.1839 27.294V30.3C36.1839 30.552 36.2259 30.732 36.3099 30.84C36.4059 30.948 36.5559 31.014 36.7599 31.038V33C36.5439 33.036 36.3459 33.066 36.1659 33.09C35.9979 33.114 35.8539 33.126 35.7339 33.126C35.2539 33.126 34.8879 33.018 34.6359 32.802C34.3959 32.586 34.2459 32.322 34.1859 32.01L34.1319 31.524C33.7239 32.052 33.2139 32.46 32.6019 32.748C31.9899 33.036 31.3659 33.18 30.7299 33.18C30.1059 33.18 29.5419 33.054 29.0379 32.802C28.5459 32.538 28.1559 32.184 27.8679 31.74C27.5919 31.284 27.4539 30.774 27.4539 30.21ZM33.3219 30.696C33.4539 30.552 33.5619 30.408 33.6459 30.264C33.7299 30.12 33.7719 29.988 33.7719 29.868V28.914C33.4839 28.794 33.1719 28.704 32.8359 28.644C32.4999 28.572 32.1819 28.536 31.8819 28.536C31.2579 28.536 30.7419 28.674 30.3339 28.95C29.9379 29.214 29.7399 29.568 29.7399 30.012C29.7399 30.252 29.8059 30.48 29.9379 30.696C30.0699 30.912 30.2619 31.086 30.5139 31.218C30.7659 31.35 31.0659 31.416 31.4139 31.416C31.7739 31.416 32.1279 31.35 32.4759 31.218C32.8239 31.074 33.1059 30.9 33.3219 30.696ZM38.4198 19.86H40.8318V29.976C40.8318 30.408 40.9038 30.702 41.0478 30.858C41.1918 31.002 41.3898 31.074 41.6418 31.074C41.8338 31.074 42.0318 31.05 42.2358 31.002C42.4398 30.954 42.6198 30.894 42.7758 30.822L43.0998 32.658C42.7758 32.814 42.3978 32.934 41.9658 33.018C41.5338 33.102 41.1438 33.144 40.7958 33.144C40.0398 33.144 39.4518 32.946 39.0318 32.55C38.6238 32.142 38.4198 31.566 38.4198 30.822V19.86ZM48.5247 33.18C47.7687 33.18 47.0847 33.054 46.4727 32.802C45.8607 32.538 45.3387 32.184 44.9067 31.74C44.4747 31.284 44.1387 30.768 43.8987 30.192C43.6707 29.604 43.5567 28.986 43.5567 28.338C43.5567 27.438 43.7547 26.616 44.1507 25.872C44.5587 25.128 45.1347 24.534 45.8787 24.09C46.6347 23.634 47.5227 23.406 48.5427 23.406C49.5747 23.406 50.4567 23.634 51.1887 24.09C51.9207 24.534 52.4787 25.128 52.8627 25.872C53.2587 26.604 53.4567 27.396 53.4567 28.248C53.4567 28.392 53.4507 28.542 53.4387 28.698C53.4267 28.842 53.4147 28.962 53.4027 29.058H46.1127C46.1607 29.538 46.2987 29.958 46.5267 30.318C46.7667 30.678 47.0667 30.954 47.4267 31.146C47.7987 31.326 48.1947 31.416 48.6147 31.416C49.0947 31.416 49.5447 31.302 49.9647 31.074C50.3967 30.834 50.6907 30.522 50.8467 30.138L52.9167 30.714C52.6887 31.194 52.3587 31.62 51.9267 31.992C51.5067 32.364 51.0087 32.658 50.4327 32.874C49.8567 33.078 49.2207 33.18 48.5247 33.18ZM46.0587 27.528H50.9907C50.9427 27.048 50.8047 26.634 50.5767 26.286C50.3607 25.926 50.0727 25.65 49.7127 25.458C49.3527 25.254 48.9507 25.152 48.5067 25.152C48.0747 25.152 47.6787 25.254 47.3187 25.458C46.9707 25.65 46.6827 25.926 46.4547 26.286C46.2387 26.634 46.1067 27.048 46.0587 27.528ZM58.4001 33.18C57.5961 33.18 56.8281 33.048 56.0961 32.784C55.3641 32.52 54.7341 32.13 54.2061 31.614L55.0701 30.048C55.6341 30.504 56.1861 30.84 56.7261 31.056C57.2781 31.272 57.8061 31.38 58.3101 31.38C58.7781 31.38 59.1501 31.296 59.4261 31.128C59.7141 30.96 59.8581 30.708 59.8581 30.372C59.8581 30.144 59.7801 29.97 59.6241 29.85C59.4681 29.718 59.2401 29.604 58.9401 29.508C58.6521 29.412 58.2981 29.304 57.8781 29.184C57.1821 28.956 56.6001 28.734 56.1321 28.518C55.6641 28.302 55.3101 28.032 55.0701 27.708C54.8421 27.372 54.7281 26.946 54.7281 26.43C54.7281 25.806 54.8841 25.272 55.1961 24.828C55.5201 24.372 55.9641 24.018 56.5281 23.766C57.1041 23.514 57.7761 23.388 58.5441 23.388C59.2161 23.388 59.8521 23.496 60.4521 23.712C61.0521 23.916 61.5981 24.252 62.0901 24.72L61.1181 26.25C60.6381 25.878 60.1821 25.608 59.7501 25.44C59.3181 25.26 58.8801 25.17 58.4361 25.17C58.1841 25.17 57.9441 25.2 57.7161 25.26C57.5001 25.32 57.3201 25.422 57.1761 25.566C57.0441 25.698 56.9781 25.89 56.9781 26.142C56.9781 26.37 57.0381 26.55 57.1581 26.682C57.2901 26.802 57.4821 26.91 57.7341 27.006C57.9981 27.102 58.3161 27.21 58.6881 27.33C59.4441 27.546 60.0801 27.768 60.5961 27.996C61.1241 28.224 61.5201 28.506 61.7841 28.842C62.0481 29.166 62.1801 29.616 62.1801 30.192C62.1801 31.128 61.8381 31.86 61.1541 32.388C60.4701 32.916 59.5521 33.18 58.4001 33.18Z" fill="#343434"/>
<rect x="348.5" y="17.5" width="261" height="37" rx="7.5" stroke="#FFB459"/>
<path d="M368.52 29.704H369.88L371.384 33.656L372.904 29.704H374.264L372.296 34.648L374.248 39.336L378.088 29.64H379.656L374.904 41H373.656L371.4 35.64L369.128 41H367.88L363.144 29.64H364.696L368.552 39.336L370.488 34.648L368.52 29.704ZM383.52 41.16C382.89 41.16 382.314 41.048 381.792 40.824C381.28 40.5893 380.832 40.2747 380.448 39.88C380.074 39.4747 379.781 39.0107 379.568 38.488C379.365 37.9653 379.264 37.4107 379.264 36.824C379.264 36.0347 379.445 35.3147 379.808 34.664C380.17 34.0133 380.672 33.4907 381.312 33.096C381.962 32.7013 382.704 32.504 383.536 32.504C384.378 32.504 385.109 32.7067 385.728 33.112C386.357 33.5067 386.842 34.0293 387.184 34.68C387.536 35.32 387.712 36.0133 387.712 36.76C387.712 36.8667 387.706 36.9733 387.696 37.08C387.696 37.176 387.69 37.2507 387.68 37.304H380.752C380.794 37.848 380.944 38.3333 381.2 38.76C381.466 39.176 381.808 39.5067 382.224 39.752C382.64 39.9867 383.088 40.104 383.568 40.104C384.08 40.104 384.56 39.976 385.008 39.72C385.466 39.464 385.781 39.128 385.952 38.712L387.168 39.048C386.986 39.4533 386.714 39.816 386.352 40.136C386 40.456 385.578 40.7067 385.088 40.888C384.608 41.0693 384.085 41.16 383.52 41.16ZM380.704 36.328H386.4C386.357 35.784 386.202 35.304 385.936 34.888C385.669 34.472 385.328 34.1467 384.912 33.912C384.496 33.6773 384.037 33.56 383.536 33.56C383.045 33.56 382.592 33.6773 382.176 33.912C381.76 34.1467 381.418 34.472 381.152 34.888C380.896 35.304 380.746 35.784 380.704 36.328ZM392.973 41.16C392.343 41.16 391.767 41.048 391.245 40.824C390.733 40.5893 390.285 40.2747 389.901 39.88C389.527 39.4747 389.234 39.0107 389.021 38.488C388.818 37.9653 388.717 37.4107 388.717 36.824C388.717 36.0347 388.898 35.3147 389.261 34.664C389.623 34.0133 390.125 33.4907 390.765 33.096C391.415 32.7013 392.157 32.504 392.989 32.504C393.831 32.504 394.562 32.7067 395.181 33.112C395.81 33.5067 396.295 34.0293 396.637 34.68C396.989 35.32 397.165 36.0133 397.165 36.76C397.165 36.8667 397.159 36.9733 397.149 37.08C397.149 37.176 397.143 37.2507 397.133 37.304H390.205C390.247 37.848 390.397 38.3333 390.653 38.76C390.919 39.176 391.261 39.5067 391.677 39.752C392.093 39.9867 392.541 40.104 393.021 40.104C393.533 40.104 394.013 39.976 394.461 39.72C394.919 39.464 395.234 39.128 395.405 38.712L396.621 39.048C396.439 39.4533 396.167 39.816 395.805 40.136C395.453 40.456 395.031 40.7067 394.541 40.888C394.061 41.0693 393.538 41.16 392.973 41.16ZM390.157 36.328H395.853C395.81 35.784 395.655 35.304 395.389 34.888C395.122 34.472 394.781 34.1467 394.365 33.912C393.949 33.6773 393.49 33.56 392.989 33.56C392.498 33.56 392.045 33.6773 391.629 33.912C391.213 34.1467 390.871 34.472 390.605 34.888C390.349 35.304 390.199 35.784 390.157 36.328ZM404.618 41L401.722 36.936L400.138 38.424V41H398.73V29.32H400.138V36.952L404.458 32.664H405.978L402.65 36.12L406.138 41H404.618ZM407.387 29.32H408.795V38.84C408.795 39.2987 408.859 39.5813 408.987 39.688C409.115 39.7947 409.269 39.848 409.451 39.848C409.675 39.848 409.888 39.8267 410.091 39.784C410.293 39.7307 410.464 39.6773 410.603 39.624L410.827 40.776C410.592 40.872 410.315 40.952 409.995 41.016C409.675 41.08 409.392 41.112 409.147 41.112C408.603 41.112 408.171 40.9573 407.851 40.648C407.541 40.3387 407.387 39.9067 407.387 39.352V29.32ZM412.02 43.272C412.159 43.2827 412.297 43.2933 412.436 43.304C412.575 43.3253 412.681 43.336 412.756 43.336C412.927 43.336 413.076 43.2773 413.204 43.16C413.332 43.0427 413.471 42.8133 413.62 42.472C413.78 42.1413 413.983 41.6507 414.228 41L410.692 32.648H412.18L414.996 39.576L417.54 32.648H418.932L414.868 43.192C414.772 43.4373 414.628 43.6667 414.436 43.88C414.255 44.104 414.02 44.28 413.732 44.408C413.444 44.536 413.097 44.6 412.692 44.6C412.596 44.6 412.495 44.5947 412.388 44.584C412.292 44.5733 412.169 44.552 412.02 44.52V43.272Z" fill="#FF8458"/>
<path d="M455.184 42V33.328L451.44 40H450.56L446.8 33.328V42H445.36V30.64H446.88L450.992 38.016L455.12 30.64H456.624V42H455.184ZM462.628 42.16C461.998 42.16 461.428 42.048 460.916 41.824C460.404 41.5893 459.961 41.2747 459.588 40.88C459.214 40.4747 458.926 40.0107 458.724 39.488C458.521 38.9653 458.42 38.416 458.42 37.84C458.42 37.2533 458.521 36.6987 458.724 36.176C458.926 35.6533 459.214 35.1947 459.588 34.8C459.961 34.3947 460.404 34.08 460.916 33.856C461.438 33.6213 462.009 33.504 462.628 33.504C463.257 33.504 463.828 33.6213 464.34 33.856C464.852 34.08 465.294 34.3947 465.668 34.8C466.052 35.1947 466.345 35.6533 466.548 36.176C466.75 36.6987 466.852 37.2533 466.852 37.84C466.852 38.416 466.75 38.9653 466.548 39.488C466.345 40.0107 466.057 40.4747 465.684 40.88C465.31 41.2747 464.862 41.5893 464.34 41.824C463.828 42.048 463.257 42.16 462.628 42.16ZM459.86 37.856C459.86 38.432 459.982 38.9547 460.228 39.424C460.484 39.8933 460.82 40.2667 461.236 40.544C461.652 40.8107 462.116 40.944 462.628 40.944C463.14 40.944 463.604 40.8053 464.02 40.528C464.446 40.2507 464.782 39.8773 465.028 39.408C465.284 38.928 465.412 38.4 465.412 37.824C465.412 37.248 465.284 36.7253 465.028 36.256C464.782 35.7867 464.446 35.4133 464.02 35.136C463.604 34.8587 463.14 34.72 462.628 34.72C462.116 34.72 461.652 34.864 461.236 35.152C460.82 35.4293 460.484 35.8027 460.228 36.272C459.982 36.7413 459.86 37.2693 459.86 37.856ZM475.806 42H474.398V37.328C474.398 36.4427 474.259 35.7973 473.982 35.392C473.715 34.976 473.305 34.768 472.75 34.768C472.366 34.768 471.982 34.864 471.598 35.056C471.225 35.248 470.889 35.5093 470.59 35.84C470.302 36.16 470.094 36.5333 469.966 36.96V42H468.558V33.648H469.838V35.44C470.062 35.0453 470.35 34.704 470.702 34.416C471.054 34.128 471.454 33.904 471.902 33.744C472.35 33.584 472.819 33.504 473.31 33.504C473.79 33.504 474.19 33.5947 474.51 33.776C474.841 33.9467 475.097 34.192 475.278 34.512C475.47 34.8213 475.603 35.1893 475.678 35.616C475.763 36.0427 475.806 36.5067 475.806 37.008V42ZM482.237 41.584C482.12 41.6373 481.96 41.7067 481.757 41.792C481.555 41.8773 481.32 41.952 481.053 42.016C480.787 42.08 480.504 42.112 480.205 42.112C479.864 42.112 479.549 42.0533 479.261 41.936C478.973 41.808 478.744 41.616 478.573 41.36C478.403 41.0933 478.317 40.7627 478.317 40.368V34.752H477.181V33.648H478.317V30.864H479.725V33.648H481.597V34.752H479.725V39.936C479.747 40.2347 479.848 40.4587 480.029 40.608C480.211 40.7467 480.424 40.816 480.669 40.816C480.947 40.816 481.203 40.768 481.437 40.672C481.672 40.576 481.827 40.5067 481.901 40.464L482.237 41.584ZM490.79 42H489.382V37.328C489.382 36.4747 489.228 35.8347 488.918 35.408C488.62 34.9813 488.188 34.768 487.622 34.768C487.26 34.768 486.892 34.864 486.518 35.056C486.156 35.248 485.836 35.5093 485.558 35.84C485.281 36.16 485.078 36.5333 484.95 36.96V42H483.542V30.32H484.95V35.44C485.281 34.8427 485.729 34.3733 486.294 34.032C486.87 33.68 487.489 33.504 488.15 33.504C488.652 33.504 489.068 33.5947 489.398 33.776C489.74 33.9467 490.012 34.192 490.214 34.512C490.417 34.832 490.561 35.2053 490.646 35.632C490.742 36.048 490.79 36.5067 490.79 37.008V42ZM493.012 30.32H494.42V39.84C494.42 40.2987 494.484 40.5813 494.612 40.688C494.74 40.7947 494.894 40.848 495.076 40.848C495.3 40.848 495.513 40.8267 495.716 40.784C495.918 40.7307 496.089 40.6773 496.228 40.624L496.452 41.776C496.217 41.872 495.94 41.952 495.62 42.016C495.3 42.08 495.017 42.112 494.772 42.112C494.228 42.112 493.796 41.9573 493.476 41.648C493.166 41.3387 493.012 40.9067 493.012 40.352V30.32ZM497.645 44.272C497.784 44.2827 497.922 44.2933 498.061 44.304C498.2 44.3253 498.306 44.336 498.381 44.336C498.552 44.336 498.701 44.2773 498.829 44.16C498.957 44.0427 499.096 43.8133 499.245 43.472C499.405 43.1413 499.608 42.6507 499.853 42L496.317 33.648H497.805L500.621 40.576L503.165 33.648H504.557L500.493 44.192C500.397 44.4373 500.253 44.6667 500.061 44.88C499.88 45.104 499.645 45.28 499.357 45.408C499.069 45.536 498.722 45.6 498.317 45.6C498.221 45.6 498.12 45.5947 498.013 45.584C497.917 45.5733 497.794 45.552 497.645 45.52V44.272Z" fill="#FF8458"/>
<rect x="531" y="24" width="57" height="24" rx="8" fill="#FFD8C8"/>
<path d="M542.36 41.5V30.14H546.296C547.512 30.14 548.525 30.396 549.336 30.908C550.157 31.4093 550.771 32.092 551.176 32.956C551.581 33.8093 551.784 34.7587 551.784 35.804C551.784 36.956 551.56 37.9587 551.112 38.812C550.664 39.6653 550.029 40.3267 549.208 40.796C548.387 41.2653 547.416 41.5 546.296 41.5H542.36ZM550.328 35.804C550.328 34.9507 550.168 34.1933 549.848 33.532C549.539 32.8707 549.085 32.3533 548.488 31.98C547.891 31.6067 547.16 31.42 546.296 31.42H543.8V40.22H546.296C547.171 40.22 547.907 40.028 548.504 39.644C549.101 39.2493 549.555 38.7213 549.864 38.06C550.173 37.388 550.328 36.636 550.328 35.804ZM552.855 39.084C552.855 38.5507 553.004 38.092 553.303 37.708C553.612 37.3133 554.034 37.0093 554.567 36.796C555.1 36.5827 555.719 36.476 556.423 36.476C556.796 36.476 557.191 36.508 557.607 36.572C558.023 36.6253 558.391 36.7107 558.711 36.828V36.22C558.711 35.58 558.519 35.0787 558.135 34.716C557.751 34.3427 557.207 34.156 556.503 34.156C556.044 34.156 555.602 34.2413 555.175 34.412C554.759 34.572 554.316 34.8067 553.847 35.116L553.335 34.124C553.879 33.7507 554.423 33.4733 554.967 33.292C555.511 33.1 556.076 33.004 556.663 33.004C557.73 33.004 558.572 33.3027 559.191 33.9C559.81 34.4867 560.119 35.308 560.119 36.364V39.9C560.119 40.0707 560.151 40.1987 560.215 40.284C560.29 40.3587 560.407 40.4013 560.567 40.412V41.5C560.428 41.5213 560.306 41.5373 560.199 41.548C560.103 41.5587 560.023 41.564 559.959 41.564C559.628 41.564 559.378 41.4733 559.207 41.292C559.047 41.1107 558.956 40.9187 558.935 40.716L558.903 40.188C558.54 40.6573 558.066 41.02 557.479 41.276C556.892 41.532 556.311 41.66 555.735 41.66C555.18 41.66 554.684 41.548 554.247 41.324C553.81 41.0893 553.468 40.78 553.223 40.396C552.978 40.0013 552.855 39.564 552.855 39.084ZM558.295 39.676C558.423 39.5267 558.524 39.3773 558.599 39.228C558.674 39.068 558.711 38.9347 558.711 38.828V37.788C558.38 37.66 558.034 37.564 557.671 37.5C557.308 37.4253 556.951 37.388 556.599 37.388C555.884 37.388 555.303 37.532 554.855 37.82C554.418 38.0973 554.199 38.4813 554.199 38.972C554.199 39.2387 554.268 39.5 554.407 39.756C554.556 40.0013 554.77 40.204 555.047 40.364C555.335 40.524 555.687 40.604 556.103 40.604C556.54 40.604 556.956 40.5187 557.351 40.348C557.746 40.1667 558.06 39.9427 558.295 39.676ZM562.37 41.5V33.148H563.778V41.5H562.37ZM562.37 31.58V29.82H563.778V31.58H562.37ZM566.09 29.82H567.498V39.34C567.498 39.7987 567.562 40.0813 567.69 40.188C567.818 40.2947 567.973 40.348 568.154 40.348C568.378 40.348 568.591 40.3267 568.794 40.284C568.997 40.2307 569.167 40.1773 569.306 40.124L569.53 41.276C569.295 41.372 569.018 41.452 568.698 41.516C568.378 41.58 568.095 41.612 567.85 41.612C567.306 41.612 566.874 41.4573 566.554 41.148C566.245 40.8387 566.09 40.4067 566.09 39.852V29.82ZM570.723 43.772C570.862 43.7827 571 43.7933 571.139 43.804C571.278 43.8253 571.384 43.836 571.459 43.836C571.63 43.836 571.779 43.7773 571.907 43.66C572.035 43.5427 572.174 43.3133 572.323 42.972C572.483 42.6413 572.686 42.1507 572.931 41.5L569.395 33.148H570.883L573.699 40.076L576.243 33.148H577.635L573.571 43.692C573.475 43.9373 573.331 44.1667 573.139 44.38C572.958 44.604 572.723 44.78 572.435 44.908C572.147 45.036 571.8 45.1 571.395 45.1C571.299 45.1 571.198 45.0947 571.091 45.084C570.995 45.0733 570.872 45.052 570.723 45.02V43.772Z" fill="#FF8458"/>
<g clip-path="url(#clip0_212_513)">
<path d="M17.72 312.4V316.94H29.5V319.68H17.72V324.22H15.3V312.4H17.72ZM29.5 310.397H19.02V307.717H29.5V310.397ZM17.56 310.397H14.9V307.717H17.56V310.397ZM29.7 299.92C29.7 300.773 29.56 301.54 29.28 302.22C28.9867 302.9 28.5867 303.48 28.08 303.96C27.56 304.44 26.9733 304.813 26.32 305.08C25.6667 305.333 24.98 305.46 24.26 305.46C23.2733 305.46 22.3733 305.24 21.56 304.8C20.7333 304.346 20.0733 303.706 19.58 302.88C19.0867 302.053 18.84 301.073 18.84 299.94C18.84 298.806 19.0867 297.833 19.58 297.02C20.0733 296.206 20.72 295.6 21.52 295.2L22.32 297.82C21.9333 298.046 21.64 298.346 21.44 298.72C21.2267 299.093 21.12 299.506 21.12 299.96C21.12 300.466 21.2533 300.933 21.52 301.36C21.7733 301.773 22.14 302.1 22.62 302.34C23.0867 302.58 23.6333 302.7 24.26 302.7C24.8733 302.7 25.42 302.58 25.9 302.34C26.3667 302.086 26.74 301.753 27.02 301.34C27.2867 300.926 27.42 300.466 27.42 299.96C27.42 299.64 27.3667 299.34 27.26 299.06C27.1533 298.766 27.0067 298.506 26.82 298.28C26.6333 298.053 26.42 297.886 26.18 297.78L26.98 295.16C27.5 295.4 27.9667 295.753 28.38 296.22C28.7933 296.673 29.12 297.213 29.36 297.84C29.5867 298.453 29.7 299.146 29.7 299.92ZM29.5 285.85L24.98 288.91L26.38 290.33H29.5V293.01H14.9V290.33H23.74L19.04 286.11V283.27L23.48 287.17L29.5 282.99V285.85ZM29.7 277.045C29.7 277.885 29.56 278.645 29.28 279.325C28.9867 280.005 28.5933 280.585 28.1 281.065C27.5933 281.545 27.02 281.918 26.38 282.185C25.7267 282.438 25.04 282.565 24.32 282.565C23.32 282.565 22.4067 282.345 21.58 281.905C20.7533 281.452 20.0933 280.812 19.6 279.985C19.0933 279.145 18.84 278.158 18.84 277.025C18.84 275.878 19.0933 274.898 19.6 274.085C20.0933 273.272 20.7533 272.652 21.58 272.225C22.3933 271.785 23.2733 271.565 24.22 271.565C24.38 271.565 24.5467 271.572 24.72 271.585C24.88 271.598 25.0133 271.612 25.12 271.625V279.725C25.6533 279.672 26.12 279.518 26.52 279.265C26.92 278.998 27.2267 278.665 27.44 278.265C27.64 277.852 27.74 277.412 27.74 276.945C27.74 276.412 27.6133 275.912 27.36 275.445C27.0933 274.965 26.7467 274.638 26.32 274.465L26.96 272.165C27.4933 272.418 27.9667 272.785 28.38 273.265C28.7933 273.732 29.12 274.285 29.36 274.925C29.5867 275.565 29.7 276.272 29.7 277.045ZM23.42 279.785V274.305C22.8867 274.358 22.4267 274.512 22.04 274.765C21.64 275.005 21.3333 275.325 21.12 275.725C20.8933 276.125 20.78 276.572 20.78 277.065C20.78 277.545 20.8933 277.985 21.12 278.385C21.3333 278.772 21.64 279.092 22.04 279.345C22.4267 279.585 22.8867 279.732 23.42 279.785ZM28.96 263.25C29.0533 263.477 29.16 263.75 29.28 264.07C29.4 264.39 29.4933 264.737 29.56 265.11C29.64 265.47 29.68 265.837 29.68 266.21C29.68 266.703 29.5933 267.157 29.42 267.57C29.2467 267.983 28.9733 268.317 28.6 268.57C28.2133 268.81 27.7133 268.93 27.1 268.93H21.08V270.31H19.02V268.93H15.62V266.25H19.02V264.05H21.08V266.25H26.2C26.56 266.237 26.82 266.137 26.98 265.95C27.14 265.763 27.22 265.53 27.22 265.25C27.22 264.97 27.1733 264.697 27.08 264.43C26.9867 264.163 26.9067 263.95 26.84 263.79L28.96 263.25ZM29.7 257.494C29.7 258.388 29.5533 259.241 29.26 260.054C28.9667 260.868 28.5333 261.568 27.96 262.154L26.22 261.194C26.7267 260.568 27.1 259.954 27.34 259.354C27.58 258.741 27.7 258.154 27.7 257.594C27.7 257.074 27.6067 256.661 27.42 256.354C27.2333 256.034 26.9533 255.874 26.58 255.874C26.3267 255.874 26.1333 255.961 26 256.134C25.8533 256.308 25.7267 256.561 25.62 256.894C25.5133 257.214 25.3933 257.608 25.26 258.074C25.0067 258.848 24.76 259.494 24.52 260.014C24.28 260.534 23.98 260.928 23.62 261.194C23.2467 261.448 22.7733 261.574 22.2 261.574C21.5067 261.574 20.9133 261.401 20.42 261.054C19.9133 260.694 19.52 260.201 19.24 259.574C18.96 258.934 18.82 258.188 18.82 257.334C18.82 256.588 18.94 255.881 19.18 255.214C19.4067 254.548 19.78 253.941 20.3 253.394L22 254.474C21.5867 255.008 21.2867 255.514 21.1 255.994C20.9 256.474 20.8 256.961 20.8 257.454C20.8 257.734 20.8333 258.001 20.9 258.254C20.9667 258.494 21.08 258.694 21.24 258.854C21.3867 259.001 21.6 259.074 21.88 259.074C22.1333 259.074 22.3333 259.008 22.48 258.874C22.6133 258.728 22.7333 258.514 22.84 258.234C22.9467 257.941 23.0667 257.588 23.2 257.174C23.44 256.334 23.6867 255.628 23.94 255.054C24.1933 254.468 24.5067 254.028 24.88 253.734C25.24 253.441 25.74 253.294 26.38 253.294C27.42 253.294 28.2333 253.674 28.82 254.434C29.4067 255.194 29.7 256.214 29.7 257.494Z" fill="#606060"/>
<rect x="115.737" y="138" width="1.79193" height="269.108" fill="#F3F3F3"/>
<rect x="181.128" y="138" width="1.79192" height="269.108" fill="#F3F3F3"/>
<rect x="246.519" y="138" width="1.79192" height="269.108" fill="#F3F3F3"/>
<rect x="311.91" y="138" width="1.79192" height="269.108" fill="#F3F3F3"/>
<rect x="377.301" y="138" width="1.79195" height="269.108" fill="#F3F3F3"/>
<rect x="442.692" y="138" width="1.79192" height="269.108" fill="#F3F3F3"/>
<rect x="508.083" y="138" width="1.79197" height="269.108" fill="#F3F3F3"/>
<rect x="573.474" y="138" width="1.79197" height="269.108" fill="#F3F3F3"/>
<path d="M110.995 434.74V436.149C110.995 436.906 110.928 437.545 110.792 438.066C110.657 438.586 110.462 439.005 110.208 439.323C109.954 439.64 109.648 439.871 109.288 440.015C108.932 440.154 108.53 440.224 108.082 440.224C107.726 440.224 107.398 440.18 107.098 440.091C106.797 440.002 106.527 439.86 106.285 439.665C106.048 439.467 105.845 439.208 105.676 438.891C105.507 438.574 105.378 438.189 105.289 437.736C105.2 437.283 105.156 436.754 105.156 436.149V434.74C105.156 433.982 105.223 433.347 105.359 432.835C105.498 432.323 105.695 431.913 105.949 431.604C106.203 431.291 106.508 431.067 106.863 430.931C107.223 430.796 107.625 430.728 108.069 430.728C108.429 430.728 108.759 430.772 109.059 430.861C109.364 430.946 109.635 431.083 109.872 431.274C110.109 431.46 110.31 431.71 110.475 432.023C110.644 432.332 110.773 432.711 110.862 433.159C110.951 433.608 110.995 434.135 110.995 434.74ZM109.815 436.339V434.543C109.815 434.128 109.789 433.764 109.739 433.451C109.692 433.134 109.622 432.863 109.529 432.639C109.436 432.414 109.317 432.232 109.174 432.093C109.034 431.953 108.871 431.852 108.685 431.788C108.503 431.72 108.298 431.686 108.069 431.686C107.79 431.686 107.542 431.739 107.326 431.845C107.111 431.947 106.929 432.11 106.781 432.334C106.637 432.558 106.527 432.852 106.45 433.216C106.374 433.58 106.336 434.022 106.336 434.543V436.339C106.336 436.754 106.359 437.12 106.406 437.437C106.457 437.755 106.531 438.03 106.628 438.263C106.726 438.491 106.844 438.679 106.984 438.828C107.123 438.976 107.284 439.086 107.466 439.158C107.652 439.225 107.858 439.259 108.082 439.259C108.37 439.259 108.621 439.204 108.837 439.094C109.053 438.984 109.233 438.813 109.377 438.58C109.525 438.343 109.635 438.04 109.707 437.672C109.779 437.3 109.815 436.856 109.815 436.339ZM116.865 430.804V440.097H115.691V432.27L113.323 433.134V432.074L116.681 430.804H116.865ZM123.389 435.685V436.65H120.292V435.685H123.389ZM132.332 435.184V435.768C132.332 436.462 132.245 437.084 132.072 437.634C131.898 438.184 131.648 438.652 131.323 439.037C130.997 439.422 130.605 439.716 130.148 439.919C129.695 440.122 129.188 440.224 128.625 440.224C128.079 440.224 127.577 440.122 127.12 439.919C126.668 439.716 126.274 439.422 125.94 439.037C125.61 438.652 125.354 438.184 125.172 437.634C124.99 437.084 124.899 436.462 124.899 435.768V435.184C124.899 434.49 124.988 433.87 125.165 433.324C125.347 432.774 125.603 432.306 125.933 431.921C126.263 431.532 126.655 431.236 127.108 431.033C127.565 430.83 128.066 430.728 128.612 430.728C129.175 430.728 129.683 430.83 130.135 431.033C130.593 431.236 130.984 431.532 131.31 431.921C131.64 432.306 131.892 432.774 132.065 433.324C132.243 433.87 132.332 434.49 132.332 435.184ZM131.119 435.768V435.171C131.119 434.621 131.062 434.135 130.948 433.711C130.838 433.288 130.675 432.933 130.459 432.645C130.243 432.357 129.979 432.139 129.666 431.991C129.357 431.843 129.006 431.769 128.612 431.769C128.231 431.769 127.886 431.843 127.577 431.991C127.273 432.139 127.01 432.357 126.79 432.645C126.574 432.933 126.407 433.288 126.289 433.711C126.17 434.135 126.111 434.621 126.111 435.171V435.768C126.111 436.322 126.17 436.813 126.289 437.241C126.407 437.664 126.577 438.021 126.797 438.313C127.021 438.601 127.285 438.819 127.59 438.967C127.899 439.115 128.244 439.189 128.625 439.189C129.023 439.189 129.376 439.115 129.685 438.967C129.994 438.819 130.254 438.601 130.466 438.313C130.681 438.021 130.844 437.664 130.954 437.241C131.064 436.813 131.119 436.322 131.119 435.768ZM137.237 439.259C137.516 439.259 137.774 439.202 138.011 439.088C138.248 438.974 138.443 438.817 138.595 438.618C138.748 438.415 138.835 438.184 138.856 437.926H139.973C139.952 438.332 139.814 438.711 139.56 439.062C139.311 439.409 138.983 439.691 138.576 439.907C138.17 440.118 137.724 440.224 137.237 440.224C136.721 440.224 136.27 440.133 135.885 439.951C135.504 439.769 135.187 439.519 134.933 439.202C134.683 438.885 134.495 438.521 134.368 438.11C134.245 437.696 134.184 437.258 134.184 436.796V436.53C134.184 436.068 134.245 435.633 134.368 435.222C134.495 434.807 134.683 434.441 134.933 434.124C135.187 433.807 135.504 433.557 135.885 433.375C136.27 433.193 136.721 433.102 137.237 433.102C137.774 433.102 138.244 433.212 138.646 433.432C139.048 433.648 139.364 433.944 139.592 434.321C139.825 434.693 139.952 435.116 139.973 435.59H138.856C138.835 435.307 138.754 435.051 138.615 434.822C138.479 434.594 138.293 434.412 138.056 434.276C137.823 434.137 137.55 434.067 137.237 434.067C136.877 434.067 136.575 434.139 136.329 434.283C136.088 434.422 135.896 434.613 135.752 434.854C135.612 435.091 135.51 435.355 135.447 435.647C135.388 435.935 135.358 436.229 135.358 436.53V436.796C135.358 437.097 135.388 437.393 135.447 437.685C135.506 437.977 135.606 438.241 135.745 438.478C135.889 438.715 136.082 438.906 136.323 439.05C136.568 439.189 136.873 439.259 137.237 439.259ZM144.669 433.229V434.13H140.955V433.229H144.669ZM142.212 431.56H143.386V438.396C143.386 438.629 143.422 438.804 143.494 438.923C143.566 439.041 143.659 439.12 143.774 439.158C143.888 439.196 144.011 439.215 144.142 439.215C144.239 439.215 144.341 439.206 144.447 439.189C144.557 439.168 144.639 439.151 144.694 439.139L144.7 440.097C144.607 440.127 144.485 440.154 144.332 440.18C144.184 440.209 144.004 440.224 143.793 440.224C143.505 440.224 143.24 440.167 142.999 440.053C142.758 439.938 142.566 439.748 142.422 439.481C142.282 439.211 142.212 438.847 142.212 438.39V431.56Z" fill="black"/>
<path d="M175.995 434.74V436.149C175.995 436.906 175.928 437.545 175.792 438.066C175.657 438.586 175.462 439.005 175.208 439.323C174.954 439.64 174.648 439.871 174.288 440.015C173.932 440.154 173.53 440.224 173.082 440.224C172.726 440.224 172.398 440.18 172.098 440.091C171.797 440.002 171.527 439.86 171.285 439.665C171.048 439.467 170.845 439.208 170.676 438.891C170.507 438.574 170.378 438.189 170.289 437.736C170.2 437.283 170.156 436.754 170.156 436.149V434.74C170.156 433.982 170.223 433.347 170.359 432.835C170.498 432.323 170.695 431.913 170.949 431.604C171.203 431.291 171.508 431.067 171.863 430.931C172.223 430.796 172.625 430.728 173.069 430.728C173.429 430.728 173.759 430.772 174.059 430.861C174.364 430.946 174.635 431.083 174.872 431.274C175.109 431.46 175.31 431.71 175.475 432.023C175.644 432.332 175.773 432.711 175.862 433.159C175.951 433.608 175.995 434.135 175.995 434.74ZM174.815 436.339V434.543C174.815 434.128 174.789 433.764 174.739 433.451C174.692 433.134 174.622 432.863 174.529 432.639C174.436 432.414 174.317 432.232 174.174 432.093C174.034 431.953 173.871 431.852 173.685 431.788C173.503 431.72 173.298 431.686 173.069 431.686C172.79 431.686 172.542 431.739 172.326 431.845C172.111 431.947 171.929 432.11 171.781 432.334C171.637 432.558 171.527 432.852 171.45 433.216C171.374 433.58 171.336 434.022 171.336 434.543V436.339C171.336 436.754 171.359 437.12 171.406 437.437C171.457 437.755 171.531 438.03 171.628 438.263C171.726 438.491 171.844 438.679 171.984 438.828C172.123 438.976 172.284 439.086 172.466 439.158C172.652 439.225 172.858 439.259 173.082 439.259C173.37 439.259 173.621 439.204 173.837 439.094C174.053 438.984 174.233 438.813 174.377 438.58C174.525 438.343 174.635 438.04 174.707 437.672C174.779 437.3 174.815 436.856 174.815 436.339ZM181.865 430.804V440.097H180.691V432.27L178.323 433.134V432.074L181.681 430.804H181.865ZM188.389 435.685V436.65H185.292V435.685H188.389ZM197.332 435.184V435.768C197.332 436.462 197.245 437.084 197.072 437.634C196.898 438.184 196.648 438.652 196.323 439.037C195.997 439.422 195.605 439.716 195.148 439.919C194.695 440.122 194.188 440.224 193.625 440.224C193.079 440.224 192.577 440.122 192.12 439.919C191.668 439.716 191.274 439.422 190.94 439.037C190.61 438.652 190.354 438.184 190.172 437.634C189.99 437.084 189.899 436.462 189.899 435.768V435.184C189.899 434.49 189.988 433.87 190.165 433.324C190.347 432.774 190.603 432.306 190.933 431.921C191.263 431.532 191.655 431.236 192.108 431.033C192.565 430.83 193.066 430.728 193.612 430.728C194.175 430.728 194.683 430.83 195.135 431.033C195.593 431.236 195.984 431.532 196.31 431.921C196.64 432.306 196.892 432.774 197.065 433.324C197.243 433.87 197.332 434.49 197.332 435.184ZM196.119 435.768V435.171C196.119 434.621 196.062 434.135 195.948 433.711C195.838 433.288 195.675 432.933 195.459 432.645C195.243 432.357 194.979 432.139 194.666 431.991C194.357 431.843 194.006 431.769 193.612 431.769C193.231 431.769 192.886 431.843 192.577 431.991C192.273 432.139 192.01 432.357 191.79 432.645C191.574 432.933 191.407 433.288 191.289 433.711C191.17 434.135 191.111 434.621 191.111 435.171V435.768C191.111 436.322 191.17 436.813 191.289 437.241C191.407 437.664 191.577 438.021 191.797 438.313C192.021 438.601 192.285 438.819 192.59 438.967C192.899 439.115 193.244 439.189 193.625 439.189C194.023 439.189 194.376 439.115 194.685 438.967C194.994 438.819 195.254 438.601 195.466 438.313C195.681 438.021 195.844 437.664 195.954 437.241C196.064 436.813 196.119 436.322 196.119 435.768ZM202.237 439.259C202.516 439.259 202.774 439.202 203.011 439.088C203.248 438.974 203.443 438.817 203.595 438.618C203.748 438.415 203.835 438.184 203.856 437.926H204.973C204.952 438.332 204.814 438.711 204.56 439.062C204.311 439.409 203.983 439.691 203.576 439.907C203.17 440.118 202.724 440.224 202.237 440.224C201.721 440.224 201.27 440.133 200.885 439.951C200.504 439.769 200.187 439.519 199.933 439.202C199.683 438.885 199.495 438.521 199.368 438.11C199.245 437.696 199.184 437.258 199.184 436.796V436.53C199.184 436.068 199.245 435.633 199.368 435.222C199.495 434.807 199.683 434.441 199.933 434.124C200.187 433.807 200.504 433.557 200.885 433.375C201.27 433.193 201.721 433.102 202.237 433.102C202.774 433.102 203.244 433.212 203.646 433.432C204.048 433.648 204.364 433.944 204.592 434.321C204.825 434.693 204.952 435.116 204.973 435.59H203.856C203.835 435.307 203.754 435.051 203.615 434.822C203.479 434.594 203.293 434.412 203.056 434.276C202.823 434.137 202.55 434.067 202.237 434.067C201.877 434.067 201.575 434.139 201.329 434.283C201.088 434.422 200.896 434.613 200.752 434.854C200.612 435.091 200.51 435.355 200.447 435.647C200.388 435.935 200.358 436.229 200.358 436.53V436.796C200.358 437.097 200.388 437.393 200.447 437.685C200.506 437.977 200.606 438.241 200.745 438.478C200.889 438.715 201.082 438.906 201.323 439.05C201.568 439.189 201.873 439.259 202.237 439.259ZM209.669 433.229V434.13H205.955V433.229H209.669ZM207.212 431.56H208.386V438.396C208.386 438.629 208.422 438.804 208.494 438.923C208.566 439.041 208.659 439.12 208.774 439.158C208.888 439.196 209.011 439.215 209.142 439.215C209.239 439.215 209.341 439.206 209.447 439.189C209.557 439.168 209.639 439.151 209.694 439.139L209.7 440.097C209.607 440.127 209.485 440.154 209.332 440.18C209.184 440.209 209.004 440.224 208.793 440.224C208.505 440.224 208.24 440.167 207.999 440.053C207.758 439.938 207.566 439.748 207.422 439.481C207.282 439.211 207.212 438.847 207.212 438.39V431.56Z" fill="black"/>
<path d="M240.995 434.74V436.149C240.995 436.906 240.928 437.545 240.792 438.066C240.657 438.586 240.462 439.005 240.208 439.323C239.954 439.64 239.648 439.871 239.288 440.015C238.932 440.154 238.53 440.224 238.082 440.224C237.726 440.224 237.398 440.18 237.098 440.091C236.797 440.002 236.527 439.86 236.285 439.665C236.048 439.467 235.845 439.208 235.676 438.891C235.507 438.574 235.378 438.189 235.289 437.736C235.2 437.283 235.156 436.754 235.156 436.149V434.74C235.156 433.982 235.223 433.347 235.359 432.835C235.498 432.323 235.695 431.913 235.949 431.604C236.203 431.291 236.508 431.067 236.863 430.931C237.223 430.796 237.625 430.728 238.069 430.728C238.429 430.728 238.759 430.772 239.059 430.861C239.364 430.946 239.635 431.083 239.872 431.274C240.109 431.46 240.31 431.71 240.475 432.023C240.644 432.332 240.773 432.711 240.862 433.159C240.951 433.608 240.995 434.135 240.995 434.74ZM239.815 436.339V434.543C239.815 434.128 239.789 433.764 239.739 433.451C239.692 433.134 239.622 432.863 239.529 432.639C239.436 432.414 239.317 432.232 239.174 432.093C239.034 431.953 238.871 431.852 238.685 431.788C238.503 431.72 238.298 431.686 238.069 431.686C237.79 431.686 237.542 431.739 237.326 431.845C237.111 431.947 236.929 432.11 236.781 432.334C236.637 432.558 236.527 432.852 236.45 433.216C236.374 433.58 236.336 434.022 236.336 434.543V436.339C236.336 436.754 236.359 437.12 236.406 437.437C236.457 437.755 236.531 438.03 236.628 438.263C236.726 438.491 236.844 438.679 236.984 438.828C237.123 438.976 237.284 439.086 237.466 439.158C237.652 439.225 237.858 439.259 238.082 439.259C238.37 439.259 238.621 439.204 238.837 439.094C239.053 438.984 239.233 438.813 239.377 438.58C239.525 438.343 239.635 438.04 239.707 437.672C239.779 437.3 239.815 436.856 239.815 436.339ZM244.72 434.898H245.558C245.968 434.898 246.307 434.831 246.573 434.695C246.844 434.556 247.045 434.367 247.177 434.13C247.312 433.889 247.38 433.618 247.38 433.318C247.38 432.962 247.32 432.664 247.202 432.423C247.083 432.182 246.906 432 246.669 431.877C246.432 431.754 246.131 431.693 245.767 431.693C245.437 431.693 245.145 431.758 244.891 431.89C244.642 432.017 244.445 432.199 244.301 432.435C244.161 432.672 244.092 432.952 244.092 433.273H242.917C242.917 432.804 243.036 432.376 243.273 431.991C243.51 431.606 243.842 431.299 244.269 431.071C244.701 430.842 245.2 430.728 245.767 430.728C246.326 430.728 246.815 430.827 247.234 431.026C247.653 431.221 247.978 431.513 248.211 431.902C248.444 432.287 248.56 432.768 248.56 433.343C248.56 433.576 248.505 433.826 248.395 434.092C248.289 434.355 248.122 434.6 247.894 434.829C247.67 435.057 247.378 435.245 247.018 435.393C246.658 435.537 246.226 435.609 245.723 435.609H244.72V434.898ZM244.72 435.863V435.159H245.723C246.311 435.159 246.798 435.228 247.183 435.368C247.568 435.508 247.871 435.694 248.091 435.927C248.315 436.159 248.471 436.415 248.56 436.695C248.653 436.97 248.7 437.245 248.7 437.52C248.7 437.952 248.626 438.335 248.478 438.669C248.334 439.003 248.129 439.287 247.862 439.519C247.6 439.752 247.291 439.928 246.935 440.046C246.58 440.165 246.193 440.224 245.774 440.224C245.372 440.224 244.993 440.167 244.637 440.053C244.286 439.938 243.975 439.773 243.704 439.558C243.434 439.338 243.222 439.069 243.07 438.751C242.917 438.43 242.841 438.064 242.841 437.653H244.015C244.015 437.975 244.085 438.256 244.225 438.497C244.369 438.739 244.572 438.927 244.834 439.062C245.101 439.194 245.414 439.259 245.774 439.259C246.133 439.259 246.442 439.198 246.7 439.075C246.963 438.948 247.164 438.758 247.303 438.504C247.447 438.25 247.519 437.93 247.519 437.545C247.519 437.16 247.439 436.845 247.278 436.6C247.117 436.35 246.889 436.166 246.593 436.047C246.301 435.925 245.956 435.863 245.558 435.863H244.72ZM253.389 435.685V436.65H250.292V435.685H253.389ZM262.332 435.184V435.768C262.332 436.462 262.245 437.084 262.072 437.634C261.898 438.184 261.648 438.652 261.323 439.037C260.997 439.422 260.605 439.716 260.148 439.919C259.695 440.122 259.188 440.224 258.625 440.224C258.079 440.224 257.577 440.122 257.12 439.919C256.668 439.716 256.274 439.422 255.94 439.037C255.61 438.652 255.354 438.184 255.172 437.634C254.99 437.084 254.899 436.462 254.899 435.768V435.184C254.899 434.49 254.988 433.87 255.165 433.324C255.347 432.774 255.603 432.306 255.933 431.921C256.263 431.532 256.655 431.236 257.108 431.033C257.565 430.83 258.066 430.728 258.612 430.728C259.175 430.728 259.683 430.83 260.135 431.033C260.593 431.236 260.984 431.532 261.31 431.921C261.64 432.306 261.892 432.774 262.065 433.324C262.243 433.87 262.332 434.49 262.332 435.184ZM261.119 435.768V435.171C261.119 434.621 261.062 434.135 260.948 433.711C260.838 433.288 260.675 432.933 260.459 432.645C260.243 432.357 259.979 432.139 259.666 431.991C259.357 431.843 259.006 431.769 258.612 431.769C258.231 431.769 257.886 431.843 257.577 431.991C257.273 432.139 257.01 432.357 256.79 432.645C256.574 432.933 256.407 433.288 256.289 433.711C256.17 434.135 256.111 434.621 256.111 435.171V435.768C256.111 436.322 256.17 436.813 256.289 437.241C256.407 437.664 256.577 438.021 256.797 438.313C257.021 438.601 257.285 438.819 257.59 438.967C257.899 439.115 258.244 439.189 258.625 439.189C259.023 439.189 259.376 439.115 259.685 438.967C259.994 438.819 260.254 438.601 260.466 438.313C260.681 438.021 260.844 437.664 260.954 437.241C261.064 436.813 261.119 436.322 261.119 435.768ZM267.237 439.259C267.516 439.259 267.774 439.202 268.011 439.088C268.248 438.974 268.443 438.817 268.595 438.618C268.748 438.415 268.835 438.184 268.856 437.926H269.973C269.952 438.332 269.814 438.711 269.56 439.062C269.311 439.409 268.983 439.691 268.576 439.907C268.17 440.118 267.724 440.224 267.237 440.224C266.721 440.224 266.27 440.133 265.885 439.951C265.504 439.769 265.187 439.519 264.933 439.202C264.683 438.885 264.495 438.521 264.368 438.11C264.245 437.696 264.184 437.258 264.184 436.796V436.53C264.184 436.068 264.245 435.633 264.368 435.222C264.495 434.807 264.683 434.441 264.933 434.124C265.187 433.807 265.504 433.557 265.885 433.375C266.27 433.193 266.721 433.102 267.237 433.102C267.774 433.102 268.244 433.212 268.646 433.432C269.048 433.648 269.364 433.944 269.592 434.321C269.825 434.693 269.952 435.116 269.973 435.59H268.856C268.835 435.307 268.754 435.051 268.615 434.822C268.479 434.594 268.293 434.412 268.056 434.276C267.823 434.137 267.55 434.067 267.237 434.067C266.877 434.067 266.575 434.139 266.329 434.283C266.088 434.422 265.896 434.613 265.752 434.854C265.612 435.091 265.51 435.355 265.447 435.647C265.388 435.935 265.358 436.229 265.358 436.53V436.796C265.358 437.097 265.388 437.393 265.447 437.685C265.506 437.977 265.606 438.241 265.745 438.478C265.889 438.715 266.082 438.906 266.323 439.05C266.568 439.189 266.873 439.259 267.237 439.259ZM274.669 433.229V434.13H270.955V433.229H274.669ZM272.212 431.56H273.386V438.396C273.386 438.629 273.422 438.804 273.494 438.923C273.566 439.041 273.659 439.12 273.774 439.158C273.888 439.196 274.011 439.215 274.142 439.215C274.239 439.215 274.341 439.206 274.447 439.189C274.557 439.168 274.639 439.151 274.694 439.139L274.7 440.097C274.607 440.127 274.485 440.154 274.332 440.18C274.184 440.209 274.004 440.224 273.793 440.224C273.505 440.224 273.24 440.167 272.999 440.053C272.758 439.938 272.566 439.748 272.422 439.481C272.282 439.211 272.212 438.847 272.212 438.39V431.56Z" fill="black"/>
<path d="M305.995 434.74V436.149C305.995 436.906 305.928 437.545 305.792 438.066C305.657 438.586 305.462 439.005 305.208 439.323C304.954 439.64 304.648 439.871 304.288 440.015C303.932 440.154 303.53 440.224 303.082 440.224C302.726 440.224 302.398 440.18 302.098 440.091C301.797 440.002 301.527 439.86 301.285 439.665C301.048 439.467 300.845 439.208 300.676 438.891C300.507 438.574 300.378 438.189 300.289 437.736C300.2 437.283 300.156 436.754 300.156 436.149V434.74C300.156 433.982 300.223 433.347 300.359 432.835C300.498 432.323 300.695 431.913 300.949 431.604C301.203 431.291 301.508 431.067 301.863 430.931C302.223 430.796 302.625 430.728 303.069 430.728C303.429 430.728 303.759 430.772 304.059 430.861C304.364 430.946 304.635 431.083 304.872 431.274C305.109 431.46 305.31 431.71 305.475 432.023C305.644 432.332 305.773 432.711 305.862 433.159C305.951 433.608 305.995 434.135 305.995 434.74ZM304.815 436.339V434.543C304.815 434.128 304.789 433.764 304.739 433.451C304.692 433.134 304.622 432.863 304.529 432.639C304.436 432.414 304.317 432.232 304.174 432.093C304.034 431.953 303.871 431.852 303.685 431.788C303.503 431.72 303.298 431.686 303.069 431.686C302.79 431.686 302.542 431.739 302.326 431.845C302.111 431.947 301.929 432.11 301.781 432.334C301.637 432.558 301.527 432.852 301.45 433.216C301.374 433.58 301.336 434.022 301.336 434.543V436.339C301.336 436.754 301.359 437.12 301.406 437.437C301.457 437.755 301.531 438.03 301.628 438.263C301.726 438.491 301.844 438.679 301.984 438.828C302.123 438.976 302.284 439.086 302.466 439.158C302.652 439.225 302.858 439.259 303.082 439.259C303.37 439.259 303.621 439.204 303.837 439.094C304.053 438.984 304.233 438.813 304.377 438.58C304.525 438.343 304.635 438.04 304.707 437.672C304.779 437.3 304.815 436.856 304.815 436.339ZM314.252 436.987V437.952H307.574V437.26L311.713 430.855H312.672L311.643 432.708L308.907 436.987H314.252ZM312.964 430.855V440.097H311.789V430.855H312.964ZM318.389 435.685V436.65H315.292V435.685H318.389ZM327.332 435.184V435.768C327.332 436.462 327.245 437.084 327.072 437.634C326.898 438.184 326.648 438.652 326.323 439.037C325.997 439.422 325.605 439.716 325.148 439.919C324.695 440.122 324.188 440.224 323.625 440.224C323.079 440.224 322.577 440.122 322.12 439.919C321.668 439.716 321.274 439.422 320.94 439.037C320.61 438.652 320.354 438.184 320.172 437.634C319.99 437.084 319.899 436.462 319.899 435.768V435.184C319.899 434.49 319.988 433.87 320.165 433.324C320.347 432.774 320.603 432.306 320.933 431.921C321.263 431.532 321.655 431.236 322.108 431.033C322.565 430.83 323.066 430.728 323.612 430.728C324.175 430.728 324.683 430.83 325.135 431.033C325.593 431.236 325.984 431.532 326.31 431.921C326.64 432.306 326.892 432.774 327.065 433.324C327.243 433.87 327.332 434.49 327.332 435.184ZM326.119 435.768V435.171C326.119 434.621 326.062 434.135 325.948 433.711C325.838 433.288 325.675 432.933 325.459 432.645C325.243 432.357 324.979 432.139 324.666 431.991C324.357 431.843 324.006 431.769 323.612 431.769C323.231 431.769 322.886 431.843 322.577 431.991C322.273 432.139 322.01 432.357 321.79 432.645C321.574 432.933 321.407 433.288 321.289 433.711C321.17 434.135 321.111 434.621 321.111 435.171V435.768C321.111 436.322 321.17 436.813 321.289 437.241C321.407 437.664 321.577 438.021 321.797 438.313C322.021 438.601 322.285 438.819 322.59 438.967C322.899 439.115 323.244 439.189 323.625 439.189C324.023 439.189 324.376 439.115 324.685 438.967C324.994 438.819 325.254 438.601 325.466 438.313C325.681 438.021 325.844 437.664 325.954 437.241C326.064 436.813 326.119 436.322 326.119 435.768ZM332.237 439.259C332.516 439.259 332.774 439.202 333.011 439.088C333.248 438.974 333.443 438.817 333.595 438.618C333.748 438.415 333.835 438.184 333.856 437.926H334.973C334.952 438.332 334.814 438.711 334.56 439.062C334.311 439.409 333.983 439.691 333.576 439.907C333.17 440.118 332.724 440.224 332.237 440.224C331.721 440.224 331.27 440.133 330.885 439.951C330.504 439.769 330.187 439.519 329.933 439.202C329.683 438.885 329.495 438.521 329.368 438.11C329.245 437.696 329.184 437.258 329.184 436.796V436.53C329.184 436.068 329.245 435.633 329.368 435.222C329.495 434.807 329.683 434.441 329.933 434.124C330.187 433.807 330.504 433.557 330.885 433.375C331.27 433.193 331.721 433.102 332.237 433.102C332.774 433.102 333.244 433.212 333.646 433.432C334.048 433.648 334.364 433.944 334.592 434.321C334.825 434.693 334.952 435.116 334.973 435.59H333.856C333.835 435.307 333.754 435.051 333.615 434.822C333.479 434.594 333.293 434.412 333.056 434.276C332.823 434.137 332.55 434.067 332.237 434.067C331.877 434.067 331.575 434.139 331.329 434.283C331.088 434.422 330.896 434.613 330.752 434.854C330.612 435.091 330.51 435.355 330.447 435.647C330.388 435.935 330.358 436.229 330.358 436.53V436.796C330.358 437.097 330.388 437.393 330.447 437.685C330.506 437.977 330.606 438.241 330.745 438.478C330.889 438.715 331.082 438.906 331.323 439.05C331.568 439.189 331.873 439.259 332.237 439.259ZM339.669 433.229V434.13H335.955V433.229H339.669ZM337.212 431.56H338.386V438.396C338.386 438.629 338.422 438.804 338.494 438.923C338.566 439.041 338.659 439.12 338.774 439.158C338.888 439.196 339.011 439.215 339.142 439.215C339.239 439.215 339.341 439.206 339.447 439.189C339.557 439.168 339.639 439.151 339.694 439.139L339.7 440.097C339.607 440.127 339.485 440.154 339.332 440.18C339.184 440.209 339.004 440.224 338.793 440.224C338.505 440.224 338.24 440.167 337.999 440.053C337.758 439.938 337.566 439.748 337.422 439.481C337.282 439.211 337.212 438.847 337.212 438.39V431.56Z" fill="black"/>
<path d="M370.995 434.74V436.149C370.995 436.906 370.928 437.545 370.792 438.066C370.657 438.586 370.462 439.005 370.208 439.323C369.954 439.64 369.648 439.871 369.288 440.015C368.932 440.154 368.53 440.224 368.082 440.224C367.726 440.224 367.398 440.18 367.098 440.091C366.797 440.002 366.527 439.86 366.285 439.665C366.048 439.467 365.845 439.208 365.676 438.891C365.507 438.574 365.378 438.189 365.289 437.736C365.2 437.283 365.156 436.754 365.156 436.149V434.74C365.156 433.982 365.223 433.347 365.359 432.835C365.498 432.323 365.695 431.913 365.949 431.604C366.203 431.291 366.508 431.067 366.863 430.931C367.223 430.796 367.625 430.728 368.069 430.728C368.429 430.728 368.759 430.772 369.059 430.861C369.364 430.946 369.635 431.083 369.872 431.274C370.109 431.46 370.31 431.71 370.475 432.023C370.644 432.332 370.773 432.711 370.862 433.159C370.951 433.608 370.995 434.135 370.995 434.74ZM369.815 436.339V434.543C369.815 434.128 369.789 433.764 369.739 433.451C369.692 433.134 369.622 432.863 369.529 432.639C369.436 432.414 369.317 432.232 369.174 432.093C369.034 431.953 368.871 431.852 368.685 431.788C368.503 431.72 368.298 431.686 368.069 431.686C367.79 431.686 367.542 431.739 367.326 431.845C367.111 431.947 366.929 432.11 366.781 432.334C366.637 432.558 366.527 432.852 366.45 433.216C366.374 433.58 366.336 434.022 366.336 434.543V436.339C366.336 436.754 366.359 437.12 366.406 437.437C366.457 437.755 366.531 438.03 366.628 438.263C366.726 438.491 366.844 438.679 366.984 438.828C367.123 438.976 367.284 439.086 367.466 439.158C367.652 439.225 367.858 439.259 368.082 439.259C368.37 439.259 368.621 439.204 368.837 439.094C369.053 438.984 369.233 438.813 369.377 438.58C369.525 438.343 369.635 438.04 369.707 437.672C369.779 437.3 369.815 436.856 369.815 436.339ZM374.491 435.698L373.552 435.457L374.015 430.855H378.757V431.94H375.012L374.733 434.454C374.902 434.357 375.116 434.266 375.374 434.181C375.636 434.096 375.937 434.054 376.275 434.054C376.703 434.054 377.086 434.128 377.424 434.276C377.763 434.42 378.05 434.628 378.287 434.898C378.529 435.169 378.713 435.495 378.84 435.876C378.967 436.257 379.03 436.682 379.03 437.152C379.03 437.596 378.969 438.004 378.846 438.377C378.727 438.749 378.548 439.075 378.306 439.354C378.065 439.629 377.76 439.843 377.392 439.996C377.028 440.148 376.599 440.224 376.104 440.224C375.731 440.224 375.378 440.173 375.044 440.072C374.714 439.966 374.417 439.807 374.155 439.596C373.897 439.38 373.685 439.113 373.52 438.796C373.359 438.474 373.258 438.098 373.216 437.666H374.333C374.384 438.013 374.485 438.305 374.637 438.542C374.79 438.779 374.989 438.959 375.234 439.081C375.484 439.2 375.774 439.259 376.104 439.259C376.383 439.259 376.631 439.211 376.846 439.113C377.062 439.016 377.244 438.876 377.392 438.694C377.54 438.512 377.653 438.292 377.729 438.034C377.809 437.776 377.849 437.486 377.849 437.164C377.849 436.872 377.809 436.602 377.729 436.352C377.648 436.102 377.528 435.884 377.367 435.698C377.21 435.512 377.018 435.368 376.789 435.267C376.561 435.161 376.298 435.108 376.002 435.108C375.609 435.108 375.31 435.161 375.107 435.267C374.908 435.372 374.703 435.516 374.491 435.698ZM383.389 435.685V436.65H380.292V435.685H383.389ZM392.332 435.184V435.768C392.332 436.462 392.245 437.084 392.072 437.634C391.898 438.184 391.648 438.652 391.323 439.037C390.997 439.422 390.605 439.716 390.148 439.919C389.695 440.122 389.188 440.224 388.625 440.224C388.079 440.224 387.577 440.122 387.12 439.919C386.668 439.716 386.274 439.422 385.94 439.037C385.61 438.652 385.354 438.184 385.172 437.634C384.99 437.084 384.899 436.462 384.899 435.768V435.184C384.899 434.49 384.988 433.87 385.165 433.324C385.347 432.774 385.603 432.306 385.933 431.921C386.263 431.532 386.655 431.236 387.108 431.033C387.565 430.83 388.066 430.728 388.612 430.728C389.175 430.728 389.683 430.83 390.135 431.033C390.593 431.236 390.984 431.532 391.31 431.921C391.64 432.306 391.892 432.774 392.065 433.324C392.243 433.87 392.332 434.49 392.332 435.184ZM391.119 435.768V435.171C391.119 434.621 391.062 434.135 390.948 433.711C390.838 433.288 390.675 432.933 390.459 432.645C390.243 432.357 389.979 432.139 389.666 431.991C389.357 431.843 389.006 431.769 388.612 431.769C388.231 431.769 387.886 431.843 387.577 431.991C387.273 432.139 387.01 432.357 386.79 432.645C386.574 432.933 386.407 433.288 386.289 433.711C386.17 434.135 386.111 434.621 386.111 435.171V435.768C386.111 436.322 386.17 436.813 386.289 437.241C386.407 437.664 386.577 438.021 386.797 438.313C387.021 438.601 387.285 438.819 387.59 438.967C387.899 439.115 388.244 439.189 388.625 439.189C389.023 439.189 389.376 439.115 389.685 438.967C389.994 438.819 390.254 438.601 390.466 438.313C390.681 438.021 390.844 437.664 390.954 437.241C391.064 436.813 391.119 436.322 391.119 435.768ZM397.237 439.259C397.516 439.259 397.774 439.202 398.011 439.088C398.248 438.974 398.443 438.817 398.595 438.618C398.748 438.415 398.835 438.184 398.856 437.926H399.973C399.952 438.332 399.814 438.711 399.56 439.062C399.311 439.409 398.983 439.691 398.576 439.907C398.17 440.118 397.724 440.224 397.237 440.224C396.721 440.224 396.27 440.133 395.885 439.951C395.504 439.769 395.187 439.519 394.933 439.202C394.683 438.885 394.495 438.521 394.368 438.11C394.245 437.696 394.184 437.258 394.184 436.796V436.53C394.184 436.068 394.245 435.633 394.368 435.222C394.495 434.807 394.683 434.441 394.933 434.124C395.187 433.807 395.504 433.557 395.885 433.375C396.27 433.193 396.721 433.102 397.237 433.102C397.774 433.102 398.244 433.212 398.646 433.432C399.048 433.648 399.364 433.944 399.592 434.321C399.825 434.693 399.952 435.116 399.973 435.59H398.856C398.835 435.307 398.754 435.051 398.615 434.822C398.479 434.594 398.293 434.412 398.056 434.276C397.823 434.137 397.55 434.067 397.237 434.067C396.877 434.067 396.575 434.139 396.329 434.283C396.088 434.422 395.896 434.613 395.752 434.854C395.612 435.091 395.51 435.355 395.447 435.647C395.388 435.935 395.358 436.229 395.358 436.53V436.796C395.358 437.097 395.388 437.393 395.447 437.685C395.506 437.977 395.606 438.241 395.745 438.478C395.889 438.715 396.082 438.906 396.323 439.05C396.568 439.189 396.873 439.259 397.237 439.259ZM404.669 433.229V434.13H400.955V433.229H404.669ZM402.212 431.56H403.386V438.396C403.386 438.629 403.422 438.804 403.494 438.923C403.566 439.041 403.659 439.12 403.774 439.158C403.888 439.196 404.011 439.215 404.142 439.215C404.239 439.215 404.341 439.206 404.447 439.189C404.557 439.168 404.639 439.151 404.694 439.139L404.7 440.097C404.607 440.127 404.485 440.154 404.332 440.18C404.184 440.209 404.004 440.224 403.793 440.224C403.505 440.224 403.24 440.167 402.999 440.053C402.758 439.938 402.566 439.748 402.422 439.481C402.282 439.211 402.212 438.847 402.212 438.39V431.56Z" fill="black"/>
<path d="M435.995 434.74V436.149C435.995 436.906 435.928 437.545 435.792 438.066C435.657 438.586 435.462 439.005 435.208 439.323C434.954 439.64 434.648 439.871 434.288 440.015C433.932 440.154 433.53 440.224 433.082 440.224C432.726 440.224 432.398 440.18 432.098 440.091C431.797 440.002 431.527 439.86 431.285 439.665C431.048 439.467 430.845 439.208 430.676 438.891C430.507 438.574 430.378 438.189 430.289 437.736C430.2 437.283 430.156 436.754 430.156 436.149V434.74C430.156 433.982 430.223 433.347 430.359 432.835C430.498 432.323 430.695 431.913 430.949 431.604C431.203 431.291 431.508 431.067 431.863 430.931C432.223 430.796 432.625 430.728 433.069 430.728C433.429 430.728 433.759 430.772 434.059 430.861C434.364 430.946 434.635 431.083 434.872 431.274C435.109 431.46 435.31 431.71 435.475 432.023C435.644 432.332 435.773 432.711 435.862 433.159C435.951 433.608 435.995 434.135 435.995 434.74ZM434.815 436.339V434.543C434.815 434.128 434.789 433.764 434.739 433.451C434.692 433.134 434.622 432.863 434.529 432.639C434.436 432.414 434.317 432.232 434.174 432.093C434.034 431.953 433.871 431.852 433.685 431.788C433.503 431.72 433.298 431.686 433.069 431.686C432.79 431.686 432.542 431.739 432.326 431.845C432.111 431.947 431.929 432.11 431.781 432.334C431.637 432.558 431.527 432.852 431.45 433.216C431.374 433.58 431.336 434.022 431.336 434.543V436.339C431.336 436.754 431.359 437.12 431.406 437.437C431.457 437.755 431.531 438.03 431.628 438.263C431.726 438.491 431.844 438.679 431.984 438.828C432.123 438.976 432.284 439.086 432.466 439.158C432.652 439.225 432.858 439.259 433.082 439.259C433.37 439.259 433.621 439.204 433.837 439.094C434.053 438.984 434.233 438.813 434.377 438.58C434.525 438.343 434.635 438.04 434.707 437.672C434.779 437.3 434.815 436.856 434.815 436.339ZM442.513 430.842H442.615V431.839H442.513C441.891 431.839 441.37 431.94 440.951 432.143C440.532 432.342 440.2 432.611 439.955 432.95C439.709 433.284 439.532 433.661 439.422 434.08C439.316 434.498 439.263 434.924 439.263 435.355V436.714C439.263 437.124 439.312 437.488 439.409 437.806C439.506 438.119 439.64 438.383 439.809 438.599C439.978 438.815 440.169 438.978 440.38 439.088C440.596 439.198 440.82 439.253 441.053 439.253C441.324 439.253 441.565 439.202 441.777 439.101C441.988 438.995 442.166 438.849 442.31 438.663C442.458 438.472 442.57 438.248 442.646 437.99C442.722 437.732 442.76 437.448 442.76 437.139C442.76 436.864 442.727 436.6 442.659 436.346C442.591 436.088 442.488 435.859 442.348 435.66C442.208 435.457 442.033 435.298 441.821 435.184C441.614 435.066 441.366 435.006 441.078 435.006C440.753 435.006 440.448 435.087 440.164 435.247C439.885 435.404 439.654 435.611 439.472 435.87C439.295 436.123 439.193 436.401 439.168 436.701L438.546 436.695C438.605 436.221 438.715 435.817 438.876 435.482C439.041 435.144 439.244 434.869 439.485 434.657C439.731 434.441 440.003 434.285 440.304 434.187C440.609 434.086 440.93 434.035 441.269 434.035C441.73 434.035 442.128 434.122 442.462 434.295C442.796 434.469 443.072 434.702 443.287 434.994C443.503 435.281 443.662 435.607 443.763 435.971C443.869 436.331 443.922 436.701 443.922 437.082C443.922 437.518 443.861 437.926 443.738 438.307C443.615 438.688 443.431 439.022 443.186 439.31C442.945 439.598 442.646 439.822 442.291 439.983C441.935 440.144 441.523 440.224 441.053 440.224C440.554 440.224 440.118 440.122 439.745 439.919C439.373 439.712 439.064 439.437 438.819 439.094C438.573 438.751 438.389 438.371 438.266 437.952C438.144 437.533 438.082 437.107 438.082 436.676V436.123C438.082 435.472 438.148 434.833 438.279 434.206C438.41 433.58 438.637 433.013 438.958 432.505C439.284 431.997 439.735 431.593 440.31 431.293C440.886 430.992 441.62 430.842 442.513 430.842ZM448.389 435.685V436.65H445.292V435.685H448.389ZM457.332 435.184V435.768C457.332 436.462 457.245 437.084 457.072 437.634C456.898 438.184 456.648 438.652 456.323 439.037C455.997 439.422 455.605 439.716 455.148 439.919C454.695 440.122 454.188 440.224 453.625 440.224C453.079 440.224 452.577 440.122 452.12 439.919C451.668 439.716 451.274 439.422 450.94 439.037C450.61 438.652 450.354 438.184 450.172 437.634C449.99 437.084 449.899 436.462 449.899 435.768V435.184C449.899 434.49 449.988 433.87 450.165 433.324C450.347 432.774 450.603 432.306 450.933 431.921C451.263 431.532 451.655 431.236 452.108 431.033C452.565 430.83 453.066 430.728 453.612 430.728C454.175 430.728 454.683 430.83 455.135 431.033C455.593 431.236 455.984 431.532 456.31 431.921C456.64 432.306 456.892 432.774 457.065 433.324C457.243 433.87 457.332 434.49 457.332 435.184ZM456.119 435.768V435.171C456.119 434.621 456.062 434.135 455.948 433.711C455.838 433.288 455.675 432.933 455.459 432.645C455.243 432.357 454.979 432.139 454.666 431.991C454.357 431.843 454.006 431.769 453.612 431.769C453.231 431.769 452.886 431.843 452.577 431.991C452.273 432.139 452.01 432.357 451.79 432.645C451.574 432.933 451.407 433.288 451.289 433.711C451.17 434.135 451.111 434.621 451.111 435.171V435.768C451.111 436.322 451.17 436.813 451.289 437.241C451.407 437.664 451.577 438.021 451.797 438.313C452.021 438.601 452.285 438.819 452.59 438.967C452.899 439.115 453.244 439.189 453.625 439.189C454.023 439.189 454.376 439.115 454.685 438.967C454.994 438.819 455.254 438.601 455.466 438.313C455.681 438.021 455.844 437.664 455.954 437.241C456.064 436.813 456.119 436.322 456.119 435.768ZM462.237 439.259C462.516 439.259 462.774 439.202 463.011 439.088C463.248 438.974 463.443 438.817 463.595 438.618C463.748 438.415 463.835 438.184 463.856 437.926H464.973C464.952 438.332 464.814 438.711 464.56 439.062C464.311 439.409 463.983 439.691 463.576 439.907C463.17 440.118 462.724 440.224 462.237 440.224C461.721 440.224 461.27 440.133 460.885 439.951C460.504 439.769 460.187 439.519 459.933 439.202C459.683 438.885 459.495 438.521 459.368 438.11C459.245 437.696 459.184 437.258 459.184 436.796V436.53C459.184 436.068 459.245 435.633 459.368 435.222C459.495 434.807 459.683 434.441 459.933 434.124C460.187 433.807 460.504 433.557 460.885 433.375C461.27 433.193 461.721 433.102 462.237 433.102C462.774 433.102 463.244 433.212 463.646 433.432C464.048 433.648 464.364 433.944 464.592 434.321C464.825 434.693 464.952 435.116 464.973 435.59H463.856C463.835 435.307 463.754 435.051 463.615 434.822C463.479 434.594 463.293 434.412 463.056 434.276C462.823 434.137 462.55 434.067 462.237 434.067C461.877 434.067 461.575 434.139 461.329 434.283C461.088 434.422 460.896 434.613 460.752 434.854C460.612 435.091 460.51 435.355 460.447 435.647C460.388 435.935 460.358 436.229 460.358 436.53V436.796C460.358 437.097 460.388 437.393 460.447 437.685C460.506 437.977 460.606 438.241 460.745 438.478C460.889 438.715 461.082 438.906 461.323 439.05C461.568 439.189 461.873 439.259 462.237 439.259ZM469.669 433.229V434.13H465.955V433.229H469.669ZM467.212 431.56H468.386V438.396C468.386 438.629 468.422 438.804 468.494 438.923C468.566 439.041 468.659 439.12 468.774 439.158C468.888 439.196 469.011 439.215 469.142 439.215C469.239 439.215 469.341 439.206 469.447 439.189C469.557 439.168 469.639 439.151 469.694 439.139L469.7 440.097C469.607 440.127 469.485 440.154 469.332 440.18C469.184 440.209 469.004 440.224 468.793 440.224C468.505 440.224 468.24 440.167 467.999 440.053C467.758 439.938 467.566 439.748 467.422 439.481C467.282 439.211 467.212 438.847 467.212 438.39V431.56Z" fill="black"/>
<path d="M500.995 434.74V436.149C500.995 436.906 500.928 437.545 500.792 438.066C500.657 438.586 500.462 439.005 500.208 439.323C499.954 439.64 499.648 439.871 499.288 440.015C498.932 440.154 498.53 440.224 498.082 440.224C497.726 440.224 497.398 440.18 497.098 440.091C496.797 440.002 496.527 439.86 496.285 439.665C496.048 439.467 495.845 439.208 495.676 438.891C495.507 438.574 495.378 438.189 495.289 437.736C495.2 437.283 495.156 436.754 495.156 436.149V434.74C495.156 433.982 495.223 433.347 495.359 432.835C495.498 432.323 495.695 431.913 495.949 431.604C496.203 431.291 496.508 431.067 496.863 430.931C497.223 430.796 497.625 430.728 498.069 430.728C498.429 430.728 498.759 430.772 499.059 430.861C499.364 430.946 499.635 431.083 499.872 431.274C500.109 431.46 500.31 431.71 500.475 432.023C500.644 432.332 500.773 432.711 500.862 433.159C500.951 433.608 500.995 434.135 500.995 434.74ZM499.815 436.339V434.543C499.815 434.128 499.789 433.764 499.739 433.451C499.692 433.134 499.622 432.863 499.529 432.639C499.436 432.414 499.317 432.232 499.174 432.093C499.034 431.953 498.871 431.852 498.685 431.788C498.503 431.72 498.298 431.686 498.069 431.686C497.79 431.686 497.542 431.739 497.326 431.845C497.111 431.947 496.929 432.11 496.781 432.334C496.637 432.558 496.527 432.852 496.45 433.216C496.374 433.58 496.336 434.022 496.336 434.543V436.339C496.336 436.754 496.359 437.12 496.406 437.437C496.457 437.755 496.531 438.03 496.628 438.263C496.726 438.491 496.844 438.679 496.984 438.828C497.123 438.976 497.284 439.086 497.466 439.158C497.652 439.225 497.858 439.259 498.082 439.259C498.37 439.259 498.621 439.204 498.837 439.094C499.053 438.984 499.233 438.813 499.377 438.58C499.525 438.343 499.635 438.04 499.707 437.672C499.779 437.3 499.815 436.856 499.815 436.339ZM508.979 430.855V431.515L505.152 440.097H503.914L507.735 431.82H502.733V430.855H508.979ZM513.389 435.685V436.65H510.292V435.685H513.389ZM522.332 435.184V435.768C522.332 436.462 522.245 437.084 522.072 437.634C521.898 438.184 521.648 438.652 521.323 439.037C520.997 439.422 520.605 439.716 520.148 439.919C519.695 440.122 519.188 440.224 518.625 440.224C518.079 440.224 517.577 440.122 517.12 439.919C516.668 439.716 516.274 439.422 515.94 439.037C515.61 438.652 515.354 438.184 515.172 437.634C514.99 437.084 514.899 436.462 514.899 435.768V435.184C514.899 434.49 514.988 433.87 515.165 433.324C515.347 432.774 515.603 432.306 515.933 431.921C516.263 431.532 516.655 431.236 517.108 431.033C517.565 430.83 518.066 430.728 518.612 430.728C519.175 430.728 519.683 430.83 520.135 431.033C520.593 431.236 520.984 431.532 521.31 431.921C521.64 432.306 521.892 432.774 522.065 433.324C522.243 433.87 522.332 434.49 522.332 435.184ZM521.119 435.768V435.171C521.119 434.621 521.062 434.135 520.948 433.711C520.838 433.288 520.675 432.933 520.459 432.645C520.243 432.357 519.979 432.139 519.666 431.991C519.357 431.843 519.006 431.769 518.612 431.769C518.231 431.769 517.886 431.843 517.577 431.991C517.273 432.139 517.01 432.357 516.79 432.645C516.574 432.933 516.407 433.288 516.289 433.711C516.17 434.135 516.111 434.621 516.111 435.171V435.768C516.111 436.322 516.17 436.813 516.289 437.241C516.407 437.664 516.577 438.021 516.797 438.313C517.021 438.601 517.285 438.819 517.59 438.967C517.899 439.115 518.244 439.189 518.625 439.189C519.023 439.189 519.376 439.115 519.685 438.967C519.994 438.819 520.254 438.601 520.466 438.313C520.681 438.021 520.844 437.664 520.954 437.241C521.064 436.813 521.119 436.322 521.119 435.768ZM527.237 439.259C527.516 439.259 527.774 439.202 528.011 439.088C528.248 438.974 528.443 438.817 528.595 438.618C528.748 438.415 528.835 438.184 528.856 437.926H529.973C529.952 438.332 529.814 438.711 529.56 439.062C529.311 439.409 528.983 439.691 528.576 439.907C528.17 440.118 527.724 440.224 527.237 440.224C526.721 440.224 526.27 440.133 525.885 439.951C525.504 439.769 525.187 439.519 524.933 439.202C524.683 438.885 524.495 438.521 524.368 438.11C524.245 437.696 524.184 437.258 524.184 436.796V436.53C524.184 436.068 524.245 435.633 524.368 435.222C524.495 434.807 524.683 434.441 524.933 434.124C525.187 433.807 525.504 433.557 525.885 433.375C526.27 433.193 526.721 433.102 527.237 433.102C527.774 433.102 528.244 433.212 528.646 433.432C529.048 433.648 529.364 433.944 529.592 434.321C529.825 434.693 529.952 435.116 529.973 435.59H528.856C528.835 435.307 528.754 435.051 528.615 434.822C528.479 434.594 528.293 434.412 528.056 434.276C527.823 434.137 527.55 434.067 527.237 434.067C526.877 434.067 526.575 434.139 526.329 434.283C526.088 434.422 525.896 434.613 525.752 434.854C525.612 435.091 525.51 435.355 525.447 435.647C525.388 435.935 525.358 436.229 525.358 436.53V436.796C525.358 437.097 525.388 437.393 525.447 437.685C525.506 437.977 525.606 438.241 525.745 438.478C525.889 438.715 526.082 438.906 526.323 439.05C526.568 439.189 526.873 439.259 527.237 439.259ZM534.669 433.229V434.13H530.955V433.229H534.669ZM532.212 431.56H533.386V438.396C533.386 438.629 533.422 438.804 533.494 438.923C533.566 439.041 533.659 439.12 533.774 439.158C533.888 439.196 534.011 439.215 534.142 439.215C534.239 439.215 534.341 439.206 534.447 439.189C534.557 439.168 534.639 439.151 534.694 439.139L534.7 440.097C534.607 440.127 534.485 440.154 534.332 440.18C534.184 440.209 534.004 440.224 533.793 440.224C533.505 440.224 533.24 440.167 532.999 440.053C532.758 439.938 532.566 439.748 532.422 439.481C532.282 439.211 532.212 438.847 532.212 438.39V431.56Z" fill="black"/>
<path d="M565.995 434.74V436.149C565.995 436.906 565.928 437.545 565.792 438.066C565.657 438.586 565.462 439.005 565.208 439.323C564.954 439.64 564.648 439.871 564.288 440.015C563.932 440.154 563.53 440.224 563.082 440.224C562.726 440.224 562.398 440.18 562.098 440.091C561.797 440.002 561.527 439.86 561.285 439.665C561.048 439.467 560.845 439.208 560.676 438.891C560.507 438.574 560.378 438.189 560.289 437.736C560.2 437.283 560.156 436.754 560.156 436.149V434.74C560.156 433.982 560.223 433.347 560.359 432.835C560.498 432.323 560.695 431.913 560.949 431.604C561.203 431.291 561.508 431.067 561.863 430.931C562.223 430.796 562.625 430.728 563.069 430.728C563.429 430.728 563.759 430.772 564.059 430.861C564.364 430.946 564.635 431.083 564.872 431.274C565.109 431.46 565.31 431.71 565.475 432.023C565.644 432.332 565.773 432.711 565.862 433.159C565.951 433.608 565.995 434.135 565.995 434.74ZM564.815 436.339V434.543C564.815 434.128 564.789 433.764 564.739 433.451C564.692 433.134 564.622 432.863 564.529 432.639C564.436 432.414 564.317 432.232 564.174 432.093C564.034 431.953 563.871 431.852 563.685 431.788C563.503 431.72 563.298 431.686 563.069 431.686C562.79 431.686 562.542 431.739 562.326 431.845C562.111 431.947 561.929 432.11 561.781 432.334C561.637 432.558 561.527 432.852 561.45 433.216C561.374 433.58 561.336 434.022 561.336 434.543V436.339C561.336 436.754 561.359 437.12 561.406 437.437C561.457 437.755 561.531 438.03 561.628 438.263C561.726 438.491 561.844 438.679 561.984 438.828C562.123 438.976 562.284 439.086 562.466 439.158C562.652 439.225 562.858 439.259 563.082 439.259C563.37 439.259 563.621 439.204 563.837 439.094C564.053 438.984 564.233 438.813 564.377 438.58C564.525 438.343 564.635 438.04 564.707 437.672C564.779 437.3 564.815 436.856 564.815 436.339ZM573.833 437.596C573.833 438.159 573.702 438.637 573.44 439.031C573.182 439.42 572.83 439.716 572.386 439.919C571.946 440.122 571.449 440.224 570.894 440.224C570.34 440.224 569.841 440.122 569.396 439.919C568.952 439.716 568.601 439.42 568.343 439.031C568.084 438.637 567.955 438.159 567.955 437.596C567.955 437.228 568.025 436.892 568.165 436.587C568.309 436.278 568.51 436.009 568.768 435.781C569.03 435.552 569.339 435.377 569.695 435.254C570.054 435.127 570.45 435.063 570.882 435.063C571.449 435.063 571.954 435.173 572.399 435.393C572.843 435.609 573.192 435.908 573.446 436.289C573.704 436.669 573.833 437.105 573.833 437.596ZM572.653 437.571C572.653 437.228 572.579 436.925 572.43 436.663C572.282 436.396 572.075 436.189 571.808 436.041C571.542 435.893 571.233 435.819 570.882 435.819C570.522 435.819 570.211 435.893 569.948 436.041C569.69 436.189 569.489 436.396 569.345 436.663C569.202 436.925 569.13 437.228 569.13 437.571C569.13 437.926 569.199 438.231 569.339 438.485C569.483 438.734 569.686 438.927 569.948 439.062C570.215 439.194 570.53 439.259 570.894 439.259C571.258 439.259 571.571 439.194 571.834 439.062C572.096 438.927 572.297 438.734 572.437 438.485C572.581 438.231 572.653 437.926 572.653 437.571ZM573.617 433.261C573.617 433.709 573.499 434.113 573.262 434.473C573.025 434.833 572.701 435.116 572.291 435.324C571.88 435.531 571.415 435.635 570.894 435.635C570.365 435.635 569.893 435.531 569.479 435.324C569.068 435.116 568.747 434.833 568.514 434.473C568.281 434.113 568.165 433.709 568.165 433.261C568.165 432.723 568.281 432.266 568.514 431.89C568.751 431.513 569.075 431.225 569.485 431.026C569.896 430.827 570.363 430.728 570.888 430.728C571.417 430.728 571.887 430.827 572.297 431.026C572.708 431.225 573.029 431.513 573.262 431.89C573.499 432.266 573.617 432.723 573.617 433.261ZM572.443 433.28C572.443 432.971 572.378 432.698 572.246 432.461C572.115 432.224 571.933 432.038 571.7 431.902C571.468 431.763 571.197 431.693 570.888 431.693C570.579 431.693 570.308 431.758 570.075 431.89C569.847 432.017 569.667 432.199 569.536 432.435C569.409 432.672 569.345 432.954 569.345 433.28C569.345 433.597 569.409 433.874 569.536 434.111C569.667 434.348 569.849 434.532 570.082 434.664C570.315 434.795 570.585 434.86 570.894 434.86C571.203 434.86 571.472 434.795 571.7 434.664C571.933 434.532 572.115 434.348 572.246 434.111C572.378 433.874 572.443 433.597 572.443 433.28ZM578.389 435.685V436.65H575.292V435.685H578.389ZM587.332 435.184V435.768C587.332 436.462 587.245 437.084 587.072 437.634C586.898 438.184 586.648 438.652 586.323 439.037C585.997 439.422 585.605 439.716 585.148 439.919C584.695 440.122 584.188 440.224 583.625 440.224C583.079 440.224 582.577 440.122 582.12 439.919C581.668 439.716 581.274 439.422 580.94 439.037C580.61 438.652 580.354 438.184 580.172 437.634C579.99 437.084 579.899 436.462 579.899 435.768V435.184C579.899 434.49 579.988 433.87 580.165 433.324C580.347 432.774 580.603 432.306 580.933 431.921C581.263 431.532 581.655 431.236 582.108 431.033C582.565 430.83 583.066 430.728 583.612 430.728C584.175 430.728 584.683 430.83 585.135 431.033C585.593 431.236 585.984 431.532 586.31 431.921C586.64 432.306 586.892 432.774 587.065 433.324C587.243 433.87 587.332 434.49 587.332 435.184ZM586.119 435.768V435.171C586.119 434.621 586.062 434.135 585.948 433.711C585.838 433.288 585.675 432.933 585.459 432.645C585.243 432.357 584.979 432.139 584.666 431.991C584.357 431.843 584.006 431.769 583.612 431.769C583.231 431.769 582.886 431.843 582.577 431.991C582.273 432.139 582.01 432.357 581.79 432.645C581.574 432.933 581.407 433.288 581.289 433.711C581.17 434.135 581.111 434.621 581.111 435.171V435.768C581.111 436.322 581.17 436.813 581.289 437.241C581.407 437.664 581.577 438.021 581.797 438.313C582.021 438.601 582.285 438.819 582.59 438.967C582.899 439.115 583.244 439.189 583.625 439.189C584.023 439.189 584.376 439.115 584.685 438.967C584.994 438.819 585.254 438.601 585.466 438.313C585.681 438.021 585.844 437.664 585.954 437.241C586.064 436.813 586.119 436.322 586.119 435.768ZM592.237 439.259C592.516 439.259 592.774 439.202 593.011 439.088C593.248 438.974 593.443 438.817 593.595 438.618C593.748 438.415 593.835 438.184 593.856 437.926H594.973C594.952 438.332 594.814 438.711 594.56 439.062C594.311 439.409 593.983 439.691 593.576 439.907C593.17 440.118 592.724 440.224 592.237 440.224C591.721 440.224 591.27 440.133 590.885 439.951C590.504 439.769 590.187 439.519 589.933 439.202C589.683 438.885 589.495 438.521 589.368 438.11C589.245 437.696 589.184 437.258 589.184 436.796V436.53C589.184 436.068 589.245 435.633 589.368 435.222C589.495 434.807 589.683 434.441 589.933 434.124C590.187 433.807 590.504 433.557 590.885 433.375C591.27 433.193 591.721 433.102 592.237 433.102C592.774 433.102 593.244 433.212 593.646 433.432C594.048 433.648 594.364 433.944 594.592 434.321C594.825 434.693 594.952 435.116 594.973 435.59H593.856C593.835 435.307 593.754 435.051 593.615 434.822C593.479 434.594 593.293 434.412 593.056 434.276C592.823 434.137 592.55 434.067 592.237 434.067C591.877 434.067 591.575 434.139 591.329 434.283C591.088 434.422 590.896 434.613 590.752 434.854C590.612 435.091 590.51 435.355 590.447 435.647C590.388 435.935 590.358 436.229 590.358 436.53V436.796C590.358 437.097 590.388 437.393 590.447 437.685C590.506 437.977 590.606 438.241 590.745 438.478C590.889 438.715 591.082 438.906 591.323 439.05C591.568 439.189 591.873 439.259 592.237 439.259ZM599.669 433.229V434.13H595.955V433.229H599.669ZM597.212 431.56H598.386V438.396C598.386 438.629 598.422 438.804 598.494 438.923C598.566 439.041 598.659 439.12 598.774 439.158C598.888 439.196 599.011 439.215 599.142 439.215C599.239 439.215 599.341 439.206 599.447 439.189C599.557 439.168 599.639 439.151 599.694 439.139L599.7 440.097C599.607 440.127 599.485 440.154 599.332 440.18C599.184 440.209 599.004 440.224 598.793 440.224C598.505 440.224 598.24 440.167 597.999 440.053C597.758 439.938 597.566 439.748 597.422 439.481C597.282 439.211 597.212 438.847 597.212 438.39V431.56Z" fill="black"/>
<path d="M59.7412 140.758V141.418L55.9136 150H54.6758L58.4971 141.723H53.4951V140.758H59.7412ZM63.0659 145.601L62.1265 145.36L62.5898 140.758H67.3315V141.843H63.5864L63.3071 144.357C63.4764 144.26 63.6901 144.169 63.9482 144.084C64.2106 143.999 64.5111 143.957 64.8496 143.957C65.277 143.957 65.66 144.031 65.9985 144.179C66.3371 144.323 66.6248 144.53 66.8618 144.801C67.103 145.072 67.2871 145.398 67.4141 145.779C67.541 146.16 67.6045 146.585 67.6045 147.055C67.6045 147.499 67.5431 147.907 67.4204 148.28C67.3019 148.652 67.1221 148.978 66.8809 149.257C66.6396 149.532 66.335 149.746 65.9668 149.898C65.6029 150.051 65.1733 150.127 64.6782 150.127C64.3058 150.127 63.9525 150.076 63.6182 149.975C63.2881 149.869 62.9919 149.71 62.7295 149.499C62.4714 149.283 62.2598 149.016 62.0947 148.699C61.9339 148.377 61.8324 148.001 61.79 147.569H62.9072C62.958 147.916 63.0596 148.208 63.2119 148.445C63.3643 148.682 63.5632 148.862 63.8086 148.984C64.0583 149.103 64.3481 149.162 64.6782 149.162C64.9575 149.162 65.2051 149.114 65.4209 149.016C65.6367 148.919 65.8187 148.779 65.9668 148.597C66.1149 148.415 66.2271 148.195 66.3032 147.937C66.3836 147.679 66.4238 147.389 66.4238 147.067C66.4238 146.775 66.3836 146.505 66.3032 146.255C66.2228 146.005 66.1022 145.787 65.9414 145.601C65.7848 145.415 65.5923 145.271 65.3638 145.169C65.1353 145.064 64.8729 145.011 64.5767 145.011C64.1831 145.011 63.8848 145.064 63.6816 145.169C63.4827 145.275 63.2775 145.419 63.0659 145.601ZM70.9229 140.758V150H69.6978V140.758H70.9229ZM76.5024 140.758L72.6621 145.068L70.5039 147.309L70.3008 146.001L71.9258 144.211L75.0298 140.758H76.5024ZM75.3218 150L71.9004 145.493L72.6304 144.522L76.7817 150H75.3218Z" fill="black"/>
<path d="M55.2534 233.601L54.314 233.36L54.7773 228.758H59.519V229.843H55.7739L55.4946 232.357C55.6639 232.26 55.8776 232.169 56.1357 232.084C56.3981 231.999 56.6986 231.957 57.0371 231.957C57.4645 231.957 57.8475 232.031 58.186 232.179C58.5246 232.323 58.8123 232.53 59.0493 232.801C59.2905 233.072 59.4746 233.398 59.6016 233.779C59.7285 234.16 59.792 234.585 59.792 235.055C59.792 235.499 59.7306 235.907 59.6079 236.28C59.4894 236.652 59.3096 236.978 59.0684 237.257C58.8271 237.532 58.5225 237.746 58.1543 237.898C57.7904 238.051 57.3608 238.127 56.8657 238.127C56.4933 238.127 56.14 238.076 55.8057 237.975C55.4756 237.869 55.1794 237.71 54.917 237.499C54.6589 237.283 54.4473 237.016 54.2822 236.699C54.1214 236.377 54.0199 236.001 53.9775 235.569H55.0947C55.1455 235.916 55.2471 236.208 55.3994 236.445C55.5518 236.682 55.7507 236.862 55.9961 236.984C56.2458 237.103 56.5356 237.162 56.8657 237.162C57.145 237.162 57.3926 237.114 57.6084 237.016C57.8242 236.919 58.0062 236.779 58.1543 236.597C58.3024 236.415 58.4146 236.195 58.4907 235.937C58.5711 235.679 58.6113 235.389 58.6113 235.067C58.6113 234.775 58.5711 234.505 58.4907 234.255C58.4103 234.005 58.2897 233.787 58.1289 233.601C57.9723 233.415 57.7798 233.271 57.5513 233.169C57.3228 233.064 57.0604 233.011 56.7642 233.011C56.3706 233.011 56.0723 233.064 55.8691 233.169C55.6702 233.275 55.465 233.419 55.2534 233.601ZM67.3823 232.643V234.052C67.3823 234.809 67.3146 235.448 67.1792 235.969C67.0438 236.489 66.8491 236.908 66.5952 237.226C66.3413 237.543 66.0345 237.774 65.6748 237.918C65.3193 238.057 64.9173 238.127 64.4688 238.127C64.1133 238.127 63.7853 238.083 63.4849 237.994C63.1844 237.905 62.9136 237.763 62.6724 237.568C62.4354 237.37 62.2323 237.111 62.063 236.794C61.8937 236.477 61.7646 236.092 61.6758 235.639C61.5869 235.186 61.5425 234.657 61.5425 234.052V232.643C61.5425 231.885 61.6102 231.25 61.7456 230.738C61.8853 230.226 62.082 229.816 62.3359 229.507C62.5898 229.194 62.8945 228.969 63.25 228.834C63.6097 228.699 64.0117 228.631 64.4561 228.631C64.8158 228.631 65.1458 228.675 65.4463 228.764C65.751 228.849 66.0218 228.986 66.2588 229.177C66.4958 229.363 66.6968 229.613 66.8618 229.926C67.0311 230.235 67.1602 230.614 67.249 231.062C67.3379 231.511 67.3823 232.037 67.3823 232.643ZM66.2017 234.242V232.446C66.2017 232.031 66.1763 231.667 66.1255 231.354C66.0789 231.037 66.0091 230.766 65.916 230.542C65.8229 230.317 65.7044 230.135 65.5605 229.996C65.4209 229.856 65.258 229.754 65.0718 229.691C64.8898 229.623 64.6846 229.589 64.4561 229.589C64.1768 229.589 63.9292 229.642 63.7134 229.748C63.4976 229.85 63.3156 230.013 63.1675 230.237C63.0236 230.461 62.9136 230.755 62.8374 231.119C62.7612 231.483 62.7231 231.925 62.7231 232.446V234.242C62.7231 234.657 62.7464 235.023 62.793 235.34C62.8438 235.658 62.9178 235.933 63.0151 236.166C63.1125 236.394 63.231 236.582 63.3706 236.731C63.5103 236.879 63.6711 236.989 63.853 237.061C64.0392 237.128 64.2445 237.162 64.4688 237.162C64.7565 237.162 65.0083 237.107 65.2241 236.997C65.4399 236.887 65.6198 236.716 65.7637 236.483C65.9118 236.246 66.0218 235.943 66.0938 235.575C66.1657 235.203 66.2017 234.759 66.2017 234.242ZM70.9229 228.758V238H69.6978V228.758H70.9229ZM76.5024 228.758L72.6621 233.068L70.5039 235.309L70.3008 234.001L71.9258 232.211L75.0298 228.758H76.5024ZM75.3218 238L71.9004 233.493L72.6304 232.522L76.7817 238H75.3218Z" fill="black"/>
<path d="M59.8237 325.035V326H53.7744V325.156L56.8022 321.785C57.1746 321.371 57.4624 321.019 57.6655 320.732C57.8729 320.44 58.0168 320.179 58.0972 319.951C58.1818 319.718 58.2241 319.481 58.2241 319.24C58.2241 318.935 58.1606 318.66 58.0337 318.415C57.911 318.165 57.729 317.966 57.4878 317.818C57.2466 317.67 56.9546 317.596 56.6118 317.596C56.2013 317.596 55.8586 317.676 55.5835 317.837C55.3127 317.994 55.1095 318.214 54.9741 318.497C54.8387 318.781 54.771 319.107 54.771 319.475H53.5967C53.5967 318.954 53.7109 318.478 53.9395 318.046C54.168 317.615 54.5065 317.272 54.9551 317.018C55.4036 316.76 55.9559 316.631 56.6118 316.631C57.1958 316.631 57.6951 316.735 58.1099 316.942C58.5246 317.145 58.842 317.433 59.062 317.805C59.2863 318.173 59.3984 318.605 59.3984 319.1C59.3984 319.371 59.3519 319.646 59.2588 319.925C59.1699 320.2 59.0451 320.475 58.8843 320.751C58.7277 321.026 58.5436 321.296 58.332 321.563C58.1247 321.83 57.9025 322.092 57.6655 322.35L55.1899 325.035H59.8237ZM63.0659 321.601L62.1265 321.36L62.5898 316.758H67.3315V317.843H63.5864L63.3071 320.357C63.4764 320.26 63.6901 320.169 63.9482 320.084C64.2106 319.999 64.5111 319.957 64.8496 319.957C65.277 319.957 65.66 320.031 65.9985 320.179C66.3371 320.323 66.6248 320.53 66.8618 320.801C67.103 321.072 67.2871 321.398 67.4141 321.779C67.541 322.16 67.6045 322.585 67.6045 323.055C67.6045 323.499 67.5431 323.907 67.4204 324.28C67.3019 324.652 67.1221 324.978 66.8809 325.257C66.6396 325.532 66.335 325.746 65.9668 325.898C65.6029 326.051 65.1733 326.127 64.6782 326.127C64.3058 326.127 63.9525 326.076 63.6182 325.975C63.2881 325.869 62.9919 325.71 62.7295 325.499C62.4714 325.283 62.2598 325.016 62.0947 324.699C61.9339 324.377 61.8324 324.001 61.79 323.569H62.9072C62.958 323.916 63.0596 324.208 63.2119 324.445C63.3643 324.682 63.5632 324.862 63.8086 324.984C64.0583 325.103 64.3481 325.162 64.6782 325.162C64.9575 325.162 65.2051 325.114 65.4209 325.016C65.6367 324.919 65.8187 324.779 65.9668 324.597C66.1149 324.415 66.2271 324.195 66.3032 323.937C66.3836 323.679 66.4238 323.389 66.4238 323.067C66.4238 322.775 66.3836 322.505 66.3032 322.255C66.2228 322.005 66.1022 321.787 65.9414 321.601C65.7848 321.415 65.5923 321.271 65.3638 321.169C65.1353 321.064 64.8729 321.011 64.5767 321.011C64.1831 321.011 63.8848 321.064 63.6816 321.169C63.4827 321.275 63.2775 321.419 63.0659 321.601ZM70.9229 316.758V326H69.6978V316.758H70.9229ZM76.5024 316.758L72.6621 321.068L70.5039 323.309L70.3008 322.001L71.9258 320.211L75.0298 316.758H76.5024ZM75.3218 326L71.9004 321.493L72.6304 320.522L76.7817 326H75.3218Z" fill="black"/>
<path d="M59.5698 408.643V410.052C59.5698 410.809 59.5021 411.448 59.3667 411.969C59.2313 412.489 59.0366 412.908 58.7827 413.226C58.5288 413.543 58.222 413.774 57.8623 413.918C57.5068 414.057 57.1048 414.127 56.6562 414.127C56.3008 414.127 55.9728 414.083 55.6724 413.994C55.3719 413.905 55.1011 413.763 54.8599 413.568C54.6229 413.37 54.4198 413.111 54.2505 412.794C54.0812 412.477 53.9521 412.092 53.8633 411.639C53.7744 411.186 53.73 410.657 53.73 410.052V408.643C53.73 407.885 53.7977 407.25 53.9331 406.738C54.0728 406.226 54.2695 405.816 54.5234 405.507C54.7773 405.194 55.082 404.969 55.4375 404.834C55.7972 404.699 56.1992 404.631 56.6436 404.631C57.0033 404.631 57.3333 404.675 57.6338 404.764C57.9385 404.849 58.2093 404.986 58.4463 405.177C58.6833 405.363 58.8843 405.613 59.0493 405.926C59.2186 406.235 59.3477 406.614 59.4365 407.062C59.5254 407.511 59.5698 408.037 59.5698 408.643ZM58.3892 410.242V408.446C58.3892 408.031 58.3638 407.667 58.313 407.354C58.2664 407.037 58.1966 406.766 58.1035 406.542C58.0104 406.317 57.8919 406.135 57.748 405.996C57.6084 405.856 57.4455 405.754 57.2593 405.691C57.0773 405.623 56.8721 405.589 56.6436 405.589C56.3643 405.589 56.1167 405.642 55.9009 405.748C55.6851 405.85 55.5031 406.013 55.355 406.237C55.2111 406.461 55.1011 406.755 55.0249 407.119C54.9487 407.483 54.9106 407.925 54.9106 408.446V410.242C54.9106 410.657 54.9339 411.023 54.9805 411.34C55.0312 411.658 55.1053 411.933 55.2026 412.166C55.3 412.394 55.4185 412.582 55.5581 412.731C55.6978 412.879 55.8586 412.989 56.0405 413.061C56.2267 413.128 56.432 413.162 56.6562 413.162C56.944 413.162 57.1958 413.107 57.4116 412.997C57.6274 412.887 57.8073 412.716 57.9512 412.483C58.0993 412.246 58.2093 411.943 58.2812 411.575C58.3532 411.203 58.3892 410.759 58.3892 410.242ZM66.6128 404.25V414H65.4321V404.25H66.6128ZM70.8086 407.132L67.8125 410.337L66.1367 412.077L66.0415 410.826L67.2412 409.392L69.374 407.132H70.8086ZM69.7358 414L67.2856 410.725L67.895 409.677L71.1196 414H69.7358ZM73.689 408.497V414H72.5083V407.132H73.6255L73.689 408.497ZM73.4478 410.306L72.9019 410.287C72.9061 409.817 72.9674 409.383 73.0859 408.985C73.2044 408.583 73.38 408.234 73.6128 407.938C73.8455 407.642 74.1354 407.413 74.4824 407.253C74.8294 407.087 75.2314 407.005 75.6885 407.005C76.0101 407.005 76.3063 407.051 76.5771 407.145C76.848 407.233 77.0828 407.375 77.2817 407.57C77.4806 407.765 77.6351 408.014 77.7451 408.319C77.8551 408.624 77.9102 408.992 77.9102 409.423V414H76.7358V409.481C76.7358 409.121 76.6745 408.833 76.5518 408.617C76.4333 408.401 76.264 408.245 76.0439 408.148C75.8239 408.046 75.5658 407.995 75.2695 407.995C74.9225 407.995 74.6326 408.057 74.3999 408.179C74.1672 408.302 73.981 408.471 73.8413 408.687C73.7017 408.903 73.6001 409.15 73.5366 409.43C73.4774 409.705 73.4478 409.997 73.4478 410.306ZM77.8975 409.658L77.1104 409.899C77.1146 409.523 77.1759 409.161 77.2944 408.814C77.4172 408.467 77.5928 408.158 77.8213 407.887C78.054 407.616 78.3397 407.403 78.6782 407.246C79.0168 407.085 79.404 407.005 79.8398 407.005C80.208 407.005 80.5339 407.054 80.8174 407.151C81.1051 407.248 81.3464 407.398 81.541 407.602C81.7399 407.801 81.8901 408.057 81.9917 408.37C82.0933 408.683 82.144 409.055 82.144 409.487V414H80.9634V409.474C80.9634 409.089 80.902 408.791 80.7793 408.579C80.6608 408.363 80.4915 408.213 80.2715 408.128C80.0557 408.04 79.7975 407.995 79.4971 407.995C79.2389 407.995 79.0104 408.04 78.8115 408.128C78.6126 408.217 78.4455 408.34 78.3101 408.497C78.1746 408.649 78.071 408.825 77.999 409.023C77.9313 409.222 77.8975 409.434 77.8975 409.658Z" fill="black"/>
<path d="M132.842 325.369C192.661 325.369 185.593 234.146 245.412 234.146C305.231 234.146 298.152 258.472 357.971 258.472C417.79 258.472 408.576 298.437 468.395 298.437C528.214 298.437 538.346 318.967 598.165 318.967" stroke="#164473" stroke-width="5.81515" stroke-linecap="round"/>
<path d="M132.842 298.002C191.261 298.002 198.723 234.46 257.142 234.46C315.561 234.46 305.876 183.974 364.295 183.974C422.713 183.974 421.597 255.351 480.016 255.351C538.434 255.351 541.607 291.326 600.026 291.326" stroke="#0096C7" stroke-opacity="0.07" stroke-width="34" stroke-linecap="round"/>
<path d="M132.842 298.002C191.261 298.002 198.723 234.46 257.142 234.46C315.561 234.46 305.876 183.974 364.295 183.974C422.713 183.974 421.597 255.351 480.016 255.351C538.434 255.351 541.607 291.326 600.026 291.326" stroke="#FC6435" stroke-width="5.81515" stroke-linecap="round"/>
<path d="M372.879 183.213C372.879 188.779 367.275 193.616 359.919 193.616C352.563 193.616 346.96 188.779 346.96 183.213C346.96 177.648 352.563 172.811 359.919 172.811C367.275 172.811 372.879 177.648 372.879 183.213Z" fill="#0096C7" stroke="white" stroke-width="2"/>
<rect x="321.281" y="136.505" width="81" height="25" rx="4" fill="#FF8458"/>
<path d="M336.392 146.673L334.274 152.505H333.408L335.847 146.106H336.405L336.392 146.673ZM338.167 152.505L336.045 146.673L336.032 146.106H336.59L339.038 152.505H338.167ZM338.058 150.136V150.83H334.463V150.136H338.058ZM341.498 151.771L342.798 147.75H343.629L341.919 152.505H341.375L341.498 151.771ZM340.412 147.75L341.752 151.793L341.845 152.505H341.3L339.577 147.75H340.412ZM346.823 152.593C346.492 152.593 346.191 152.537 345.922 152.426C345.655 152.311 345.425 152.152 345.232 151.947C345.042 151.742 344.895 151.498 344.792 151.217C344.69 150.936 344.639 150.628 344.639 150.294V150.11C344.639 149.723 344.696 149.379 344.81 149.077C344.924 148.772 345.08 148.515 345.276 148.304C345.472 148.093 345.695 147.933 345.944 147.825C346.193 147.716 346.451 147.662 346.717 147.662C347.057 147.662 347.35 147.721 347.596 147.838C347.845 147.955 348.049 148.119 348.207 148.33C348.365 148.538 348.482 148.784 348.559 149.068C348.635 149.35 348.673 149.657 348.673 149.991V150.356H345.122V149.692H347.86V149.631C347.848 149.42 347.804 149.215 347.728 149.016C347.655 148.816 347.538 148.652 347.376 148.523C347.215 148.394 346.996 148.33 346.717 148.33C346.533 148.33 346.363 148.37 346.208 148.449C346.052 148.525 345.919 148.639 345.808 148.791C345.696 148.944 345.61 149.13 345.548 149.35C345.487 149.569 345.456 149.823 345.456 150.11V150.294C345.456 150.52 345.487 150.732 345.548 150.932C345.613 151.128 345.705 151.301 345.825 151.45C345.948 151.6 346.096 151.717 346.269 151.802C346.445 151.887 346.644 151.929 346.867 151.929C347.154 151.929 347.397 151.871 347.596 151.753C347.795 151.636 347.97 151.479 348.119 151.283L348.611 151.674C348.509 151.829 348.378 151.977 348.22 152.118C348.062 152.259 347.867 152.373 347.636 152.461C347.407 152.549 347.136 152.593 346.823 152.593ZM350.935 148.497V152.505H350.122V147.75H350.913L350.935 148.497ZM352.42 147.724L352.416 148.479C352.349 148.465 352.284 148.456 352.223 148.453C352.164 148.447 352.097 148.444 352.021 148.444C351.833 148.444 351.667 148.474 351.524 148.532C351.38 148.591 351.259 148.673 351.159 148.778C351.06 148.884 350.98 149.01 350.922 149.156C350.866 149.3 350.83 149.458 350.812 149.631L350.583 149.763C350.583 149.475 350.611 149.206 350.667 148.954C350.726 148.702 350.815 148.479 350.935 148.286C351.055 148.09 351.208 147.937 351.392 147.829C351.58 147.718 351.802 147.662 352.06 147.662C352.119 147.662 352.186 147.669 352.262 147.684C352.338 147.696 352.391 147.709 352.42 147.724ZM356.3 151.692V149.244C356.3 149.057 356.262 148.894 356.186 148.756C356.112 148.616 356.001 148.507 355.852 148.431C355.702 148.355 355.518 148.317 355.298 148.317C355.093 148.317 354.913 148.352 354.757 148.422C354.605 148.493 354.485 148.585 354.397 148.699C354.312 148.813 354.27 148.936 354.27 149.068H353.457C353.457 148.898 353.5 148.73 353.588 148.563C353.676 148.396 353.802 148.245 353.966 148.11C354.133 147.973 354.333 147.864 354.564 147.785C354.798 147.703 355.059 147.662 355.346 147.662C355.692 147.662 355.997 147.721 356.26 147.838C356.527 147.955 356.735 148.132 356.884 148.37C357.037 148.604 357.113 148.898 357.113 149.253V151.468C357.113 151.626 357.126 151.794 357.152 151.973C357.182 152.152 357.224 152.306 357.28 152.434V152.505H356.432C356.391 152.411 356.358 152.287 356.335 152.131C356.312 151.973 356.3 151.827 356.3 151.692ZM356.44 149.622L356.449 150.193H355.627C355.396 150.193 355.189 150.212 355.008 150.25C354.826 150.286 354.674 150.34 354.551 150.413C354.428 150.486 354.334 150.579 354.27 150.69C354.205 150.798 354.173 150.926 354.173 151.072C354.173 151.222 354.207 151.358 354.274 151.481C354.341 151.604 354.442 151.702 354.577 151.775C354.715 151.846 354.883 151.881 355.083 151.881C355.332 151.881 355.551 151.828 355.742 151.723C355.932 151.617 356.083 151.488 356.194 151.336C356.309 151.184 356.37 151.036 356.379 150.892L356.726 151.283C356.706 151.406 356.65 151.542 356.559 151.692C356.468 151.841 356.347 151.985 356.194 152.122C356.045 152.257 355.866 152.37 355.658 152.461C355.453 152.549 355.222 152.593 354.964 152.593C354.642 152.593 354.359 152.53 354.116 152.404C353.875 152.278 353.688 152.109 353.553 151.898C353.421 151.684 353.355 151.446 353.355 151.182C353.355 150.927 353.405 150.703 353.505 150.51C353.604 150.313 353.748 150.151 353.936 150.022C354.123 149.89 354.349 149.79 354.612 149.723C354.876 149.656 355.17 149.622 355.496 149.622H356.44ZM361.972 147.75H362.71V152.404C362.71 152.823 362.625 153.18 362.456 153.476C362.286 153.772 362.048 153.996 361.744 154.148C361.442 154.304 361.093 154.381 360.698 154.381C360.534 154.381 360.34 154.355 360.118 154.302C359.898 154.252 359.681 154.166 359.467 154.043C359.256 153.923 359.079 153.76 358.936 153.555L359.362 153.072C359.561 153.312 359.769 153.479 359.986 153.573C360.206 153.666 360.422 153.713 360.636 153.713C360.894 153.713 361.117 153.665 361.304 153.568C361.492 153.472 361.637 153.328 361.739 153.138C361.845 152.95 361.897 152.719 361.897 152.443V148.796L361.972 147.75ZM358.698 150.18V150.088C358.698 149.725 358.741 149.395 358.826 149.099C358.914 148.8 359.038 148.544 359.199 148.33C359.363 148.116 359.561 147.952 359.792 147.838C360.024 147.721 360.285 147.662 360.575 147.662C360.874 147.662 361.134 147.715 361.357 147.82C361.583 147.923 361.773 148.074 361.928 148.273C362.086 148.469 362.211 148.706 362.302 148.985C362.393 149.263 362.456 149.578 362.491 149.93V150.334C362.458 150.683 362.396 150.996 362.302 151.274C362.211 151.553 362.086 151.79 361.928 151.986C361.773 152.183 361.583 152.333 361.357 152.439C361.131 152.541 360.868 152.593 360.566 152.593C360.282 152.593 360.024 152.533 359.792 152.413C359.564 152.292 359.368 152.124 359.204 151.907C359.04 151.69 358.914 151.435 358.826 151.142C358.741 150.847 358.698 150.526 358.698 150.18ZM359.511 150.088V150.18C359.511 150.417 359.535 150.64 359.582 150.848C359.631 151.056 359.706 151.239 359.806 151.397C359.908 151.556 360.039 151.68 360.197 151.771C360.355 151.859 360.544 151.903 360.764 151.903C361.033 151.903 361.256 151.846 361.432 151.731C361.607 151.617 361.747 151.466 361.849 151.279C361.955 151.091 362.037 150.888 362.095 150.668V149.609C362.063 149.448 362.013 149.292 361.946 149.143C361.881 148.991 361.796 148.856 361.691 148.739C361.588 148.619 361.461 148.523 361.309 148.453C361.156 148.383 360.978 148.348 360.772 148.348C360.55 148.348 360.358 148.394 360.197 148.488C360.039 148.579 359.908 148.705 359.806 148.866C359.706 149.024 359.631 149.209 359.582 149.42C359.535 149.628 359.511 149.85 359.511 150.088ZM366.418 152.593C366.087 152.593 365.787 152.537 365.518 152.426C365.251 152.311 365.021 152.152 364.828 151.947C364.637 151.742 364.491 151.498 364.388 151.217C364.286 150.936 364.234 150.628 364.234 150.294V150.11C364.234 149.723 364.292 149.379 364.406 149.077C364.52 148.772 364.675 148.515 364.872 148.304C365.068 148.093 365.291 147.933 365.54 147.825C365.789 147.716 366.046 147.662 366.313 147.662C366.653 147.662 366.946 147.721 367.192 147.838C367.441 147.955 367.645 148.119 367.803 148.33C367.961 148.538 368.078 148.784 368.154 149.068C368.23 149.35 368.269 149.657 368.269 149.991V150.356H364.718V149.692H367.456V149.631C367.444 149.42 367.4 149.215 367.324 149.016C367.25 148.816 367.133 148.652 366.972 148.523C366.811 148.394 366.591 148.33 366.313 148.33C366.128 148.33 365.958 148.37 365.803 148.449C365.648 148.525 365.515 148.639 365.403 148.791C365.292 148.944 365.206 149.13 365.144 149.35C365.083 149.569 365.052 149.823 365.052 150.11V150.294C365.052 150.52 365.083 150.732 365.144 150.932C365.208 151.128 365.301 151.301 365.421 151.45C365.544 151.6 365.692 151.717 365.865 151.802C366.041 151.887 366.24 151.929 366.462 151.929C366.75 151.929 366.993 151.871 367.192 151.753C367.391 151.636 367.565 151.479 367.715 151.283L368.207 151.674C368.104 151.829 367.974 151.977 367.816 152.118C367.658 152.259 367.463 152.373 367.231 152.461C367.003 152.549 366.732 152.593 366.418 152.593ZM373.391 149.459L372.74 149.292L373.061 146.106H376.344V146.858H373.751L373.558 148.598C373.675 148.531 373.823 148.468 374.001 148.409C374.183 148.35 374.391 148.321 374.625 148.321C374.921 148.321 375.187 148.372 375.421 148.475C375.655 148.575 375.854 148.718 376.019 148.906C376.186 149.093 376.313 149.319 376.401 149.582C376.489 149.846 376.533 150.141 376.533 150.466C376.533 150.773 376.49 151.056 376.405 151.314C376.323 151.572 376.199 151.797 376.032 151.991C375.865 152.181 375.654 152.329 375.399 152.434C375.147 152.54 374.85 152.593 374.507 152.593C374.249 152.593 374.004 152.558 373.773 152.487C373.544 152.414 373.339 152.304 373.158 152.158C372.979 152.008 372.833 151.824 372.718 151.604C372.607 151.381 372.537 151.121 372.507 150.822H373.281C373.316 151.062 373.386 151.264 373.492 151.428C373.597 151.592 373.735 151.717 373.905 151.802C374.078 151.884 374.278 151.925 374.507 151.925C374.7 151.925 374.872 151.891 375.021 151.824C375.17 151.756 375.296 151.66 375.399 151.534C375.501 151.408 375.579 151.255 375.632 151.077C375.688 150.898 375.715 150.697 375.715 150.475C375.715 150.272 375.688 150.085 375.632 149.912C375.576 149.739 375.493 149.588 375.381 149.459C375.273 149.33 375.14 149.231 374.981 149.161C374.823 149.087 374.642 149.051 374.437 149.051C374.164 149.051 373.958 149.087 373.817 149.161C373.679 149.234 373.537 149.333 373.391 149.459ZM382.06 146.106V146.563L379.41 152.505H378.553L381.199 146.774H377.736V146.106H382.06ZM383.417 147.675V147.337C383.417 147.094 383.47 146.872 383.575 146.673C383.681 146.474 383.832 146.314 384.028 146.194C384.224 146.074 384.457 146.014 384.727 146.014C385.002 146.014 385.236 146.074 385.43 146.194C385.626 146.314 385.777 146.474 385.882 146.673C385.988 146.872 386.041 147.094 386.041 147.337V147.675C386.041 147.913 385.988 148.131 385.882 148.33C385.78 148.529 385.63 148.689 385.434 148.809C385.241 148.929 385.008 148.989 384.735 148.989C384.463 148.989 384.227 148.929 384.028 148.809C383.832 148.689 383.681 148.529 383.575 148.33C383.47 148.131 383.417 147.913 383.417 147.675ZM384.028 147.337V147.675C384.028 147.81 384.053 147.937 384.103 148.058C384.155 148.178 384.234 148.276 384.34 148.352C384.445 148.425 384.577 148.462 384.735 148.462C384.894 148.462 385.024 148.425 385.126 148.352C385.229 148.276 385.305 148.178 385.355 148.058C385.405 147.937 385.43 147.81 385.43 147.675V147.337C385.43 147.199 385.403 147.07 385.351 146.95C385.301 146.827 385.223 146.729 385.118 146.656C385.015 146.579 384.885 146.541 384.727 146.541C384.571 146.541 384.441 146.579 384.335 146.656C384.233 146.729 384.155 146.827 384.103 146.95C384.053 147.07 384.028 147.199 384.028 147.337ZM386.533 151.279V150.936C386.533 150.696 386.585 150.476 386.691 150.277C386.796 150.078 386.947 149.918 387.144 149.798C387.34 149.678 387.573 149.618 387.842 149.618C388.118 149.618 388.352 149.678 388.545 149.798C388.742 149.918 388.893 150.078 388.998 150.277C389.104 150.476 389.156 150.696 389.156 150.936V151.279C389.156 151.519 389.104 151.739 388.998 151.938C388.896 152.137 388.746 152.297 388.55 152.417C388.356 152.537 388.124 152.597 387.851 152.597C387.579 152.597 387.344 152.537 387.148 152.417C386.952 152.297 386.799 152.137 386.691 151.938C386.585 151.739 386.533 151.519 386.533 151.279ZM387.144 150.936V151.279C387.144 151.413 387.168 151.542 387.218 151.665C387.271 151.786 387.35 151.884 387.456 151.96C387.561 152.033 387.693 152.07 387.851 152.07C388.009 152.07 388.14 152.033 388.242 151.96C388.348 151.884 388.425 151.786 388.475 151.665C388.525 151.545 388.55 151.416 388.55 151.279V150.936C388.55 150.798 388.523 150.669 388.471 150.549C388.421 150.429 388.343 150.332 388.238 150.259C388.135 150.183 388.003 150.145 387.842 150.145C387.687 150.145 387.557 150.183 387.451 150.259C387.349 150.332 387.271 150.429 387.218 150.549C387.168 150.669 387.144 150.798 387.144 150.936ZM388.044 147.016L384.92 152.017L384.463 151.727L387.587 146.726L388.044 147.016Z" fill="white"/>
</g>
<defs>
<clipPath id="clip0_212_513">
<rect width="607" height="367" fill="white" transform="translate(12 105)"/>
</clipPath>
</defs>
</svg>
