<svg width="21" height="22" viewBox="0 0 21 22" fill="none" xmlns="http://www.w3.org/2000/svg">
<path d="M3.658 10.4912C3.585 11.8872 3.669 13.3732 2.422 14.3082C2.13531 14.5227 1.90266 14.8012 1.74259 15.1215C1.58253 15.4418 1.49946 15.7951 1.5 16.1532C1.5 17.1502 2.282 18.0002 3.3 18.0002H17.7C18.718 18.0002 19.5 17.1502 19.5 16.1532C19.5 15.4272 19.158 14.7432 18.578 14.3082C17.331 13.3732 17.415 11.8872 17.342 10.4912C17.252 8.73724 16.4919 7.08486 15.2186 5.87526C13.9454 4.66565 12.2562 3.99121 10.5 3.99121C8.74378 3.99121 7.05462 4.66565 5.78136 5.87526C4.5081 7.08486 3.74799 8.73724 3.658 10.4912Z" stroke="#F5F5F5" stroke-width="1.5" stroke-linecap="round" stroke-linejoin="round"/>
<path d="M13.5 18C13.5 18.7956 13.1839 19.5587 12.6213 20.1213C12.0587 20.6839 11.2956 21 10.5 21C9.70435 21 8.94129 20.6839 8.37868 20.1213C7.81607 19.5587 7.5 18.7956 7.5 18M9 2.125C9 2.953 9.672 4 10.5 4C11.328 4 12 2.953 12 2.125C12 1.297 11.328 1 10.5 1C9.672 1 9 1.297 9 2.125Z" stroke="#F5F5F5" stroke-width="1.5" stroke-linecap="round" stroke-linejoin="round"/>
</svg>
