<svg width="55" height="55" viewBox="0 0 55 55" fill="none" xmlns="http://www.w3.org/2000/svg">
<rect width="55" height="55" rx="4" fill="#F1994C" fill-opacity="0.42"/>
<path d="M35.9517 41.045L40.685 36.385L39.6417 35.34L35.9517 38.9784L34.36 37.3534L33.315 38.4067L35.9517 41.045ZM18.2833 22.5517H35.72V20.885H18.2817L18.2833 22.5517ZM37 44.86C35.1433 44.86 33.5683 44.2128 32.275 42.9184C30.9806 41.625 30.3333 40.05 30.3333 38.1934C30.3333 36.3367 30.9806 34.7611 32.275 33.4667C33.5694 32.1722 35.1444 31.5256 37 31.5267C38.8556 31.5278 40.4311 32.1745 41.7267 33.4667C43.0222 34.7589 43.6689 36.3345 43.6667 38.1934C43.6667 40.0489 43.02 41.6239 41.7267 42.9184C40.4311 44.2128 38.8556 44.86 37 44.86ZM13.6667 42.615V14.6667H40.3333V27.2667C40.0622 27.1667 39.7933 27.0811 39.5267 27.01C39.2589 26.9389 38.9722 26.8834 38.6667 26.8434V16.3334H15.3333V39.75H25.9067C25.9822 40.2056 26.08 40.6511 26.2 41.0867C26.3211 41.5222 26.4894 41.9378 26.705 42.3334L26.6483 42.39L24.7567 41.0134L22.5133 42.615L20.27 41.0134L18.0267 42.615L15.7817 41.0134L13.6667 42.615ZM18.2833 35.115H26.1317C26.1939 34.8095 26.2706 34.5234 26.3617 34.2567C26.4528 33.99 26.5594 33.7206 26.6817 33.4484H18.2833V35.115ZM18.2833 28.8334H30.4667C31.0111 28.4034 31.5944 28.045 32.2167 27.7584C32.8389 27.4706 33.5039 27.2734 34.2117 27.1667H18.2817L18.2833 28.8334Z" fill="#F1994C"/>
</svg>
