<svg width="36" height="26" viewBox="0 0 36 26" fill="none" xmlns="http://www.w3.org/2000/svg">
<path d="M20.5 10.5C20.5 11.8261 19.9732 13.0979 19.0355 14.0355C18.0979 14.9732 16.8261 15.5 15.5 15.5C14.1739 15.5 12.9021 14.9732 11.9645 14.0355C11.0268 13.0979 10.5 11.8261 10.5 10.5C10.5 9.17392 11.0268 7.90215 11.9645 6.96447C12.9021 6.02678 14.1739 5.5 15.5 5.5C16.8261 5.5 18.0979 6.02678 19.0355 6.96447C19.9732 7.90215 20.5 9.17392 20.5 10.5ZM18 10.5C18 9.83696 17.7366 9.20107 17.2678 8.73223C16.7989 8.26339 16.163 8 15.5 8C14.837 8 14.2011 8.26339 13.7322 8.73223C13.2634 9.20107 13 9.83696 13 10.5C13 11.163 13.2634 11.7989 13.7322 12.2678C14.2011 12.7366 14.837 13 15.5 13C16.163 13 16.7989 12.7366 17.2678 12.2678C17.7366 11.7989 18 11.163 18 10.5ZM0.5 3.625C0.5 1.9 1.9 0.5 3.625 0.5H27.375C29.1 0.5 30.5 1.9 30.5 3.625V17.375C30.5 19.1 29.1 20.5 27.375 20.5H3.625C1.9 20.5 0.5 19.1 0.5 17.375V3.625ZM3.625 3C3.45924 3 3.30027 3.06585 3.18306 3.18306C3.06585 3.30027 3 3.45924 3 3.625V5.5H4.25C4.58152 5.5 4.89946 5.3683 5.13388 5.13388C5.3683 4.89946 5.5 4.58152 5.5 4.25V3H3.625ZM3 17.375C3 17.72 3.28 18 3.625 18H5.5V16.75C5.5 16.4185 5.3683 16.1005 5.13388 15.8661C4.89946 15.6317 4.58152 15.5 4.25 15.5H3V17.375ZM8 16.75V18H23V16.75C23 15.7554 23.3951 14.8016 24.0983 14.0983C24.8016 13.3951 25.7554 13 26.75 13H28V8H26.75C25.7554 8 24.8016 7.60491 24.0983 6.90165C23.3951 6.19839 23 5.24456 23 4.25V3H8V4.25C8 5.24456 7.60491 6.19839 6.90165 6.90165C6.19839 7.60491 5.24456 8 4.25 8H3V13H4.25C5.24456 13 6.19839 13.3951 6.90165 14.0983C7.60491 14.8016 8 15.7554 8 16.75ZM25.5 18H27.375C27.5408 18 27.6997 17.9342 27.8169 17.8169C27.9342 17.6997 28 17.5408 28 17.375V15.5H26.75C26.4185 15.5 26.1005 15.6317 25.8661 15.8661C25.6317 16.1005 25.5 16.4185 25.5 16.75V18ZM28 5.5V3.625C28 3.45924 27.9342 3.30027 27.8169 3.18306C27.6997 3.06585 27.5408 3 27.375 3H25.5V4.25C25.5 4.58152 25.6317 4.89946 25.8661 5.13388C26.1005 5.3683 26.4185 5.5 26.75 5.5H28ZM9.25 25.5C8.45805 25.5003 7.68633 25.2499 7.04546 24.7846C6.40459 24.3193 5.92748 23.6631 5.6825 22.91C6.02917 22.97 6.385 23 6.75 23H27.375C28.8668 23 30.2976 22.4074 31.3525 21.3525C32.4074 20.2976 33 18.8668 33 17.375V5.7125C33.7314 5.97111 34.3647 6.45021 34.8124 7.08377C35.2602 7.71734 35.5004 8.47418 35.5 9.25V17.375C35.5 18.442 35.2898 19.4985 34.8815 20.4843C34.4732 21.4701 33.8747 22.3658 33.1202 23.1202C32.3658 23.8747 31.4701 24.4732 30.4843 24.8815C29.4985 25.2898 28.442 25.5 27.375 25.5H9.25Z" fill="#F5F5F5"/>
</svg>
