<svg width="38" height="40" viewBox="0 0 38 40" fill="none" xmlns="http://www.w3.org/2000/svg">
<rect width="38" height="40" rx="4" fill="#B1350F"/>
<g clip-path="url(#clip0_212_332)">
<path d="M24.7646 14.2355C24.6601 14.131 24.5361 14.048 24.3996 13.9915C24.263 13.9349 24.1167 13.9058 23.9689 13.9058C23.8211 13.9058 23.6747 13.9349 23.5382 13.9915C23.4016 14.048 23.2776 14.131 23.1731 14.2355L19.0001 18.41L14.8271 14.2363C14.6161 14.0252 14.3298 13.9067 14.0314 13.9067C13.7329 13.9067 13.4467 14.0252 13.2356 14.2363C13.0246 14.4473 12.906 14.7336 12.906 15.032C12.906 15.3305 13.0246 15.6167 13.2356 15.8278L17.4101 20L13.2364 24.173C13.1319 24.2775 13.049 24.4016 12.9924 24.5381C12.9359 24.6747 12.9068 24.821 12.9068 24.9688C12.9068 25.2672 13.0253 25.5535 13.2364 25.7645C13.4474 25.9756 13.7337 26.0941 14.0321 26.0941C14.3306 26.0941 14.6168 25.9756 14.8279 25.7645L19.0001 21.59L23.1731 25.7638C23.3842 25.9748 23.6704 26.0934 23.9689 26.0934C24.2673 26.0934 24.5536 25.9748 24.7646 25.7638C24.9757 25.5527 25.0942 25.2665 25.0942 24.968C25.0942 24.6696 24.9757 24.3833 24.7646 24.1723L20.5901 20L24.7639 15.827C24.8684 15.7225 24.9513 15.5985 25.0079 15.462C25.0645 15.3254 25.0936 15.1791 25.0936 15.0313C25.0936 14.8835 25.0645 14.7371 25.0079 14.6006C24.9513 14.464 24.8684 14.34 24.7639 14.2355" fill="white"/>
<path d="M11.5 8.75C11.0075 8.75 10.5199 8.847 10.0649 9.03545C9.60997 9.22391 9.19657 9.50013 8.84835 9.84835C8.14509 10.5516 7.75 11.5054 7.75 12.5V27.5C7.75 28.4946 8.14509 29.4484 8.84835 30.1516C9.19657 30.4999 9.60997 30.7761 10.0649 30.9645C10.5199 31.153 11.0075 31.25 11.5 31.25H26.5C27.4946 31.25 28.4484 30.8549 29.1516 30.1516C29.8549 29.4484 30.25 28.4946 30.25 27.5V12.5C30.25 12.0075 30.153 11.5199 29.9645 11.0649C29.7761 10.61 29.4999 10.1966 29.1516 9.84835C28.8034 9.50013 28.39 9.22391 27.9351 9.03545C27.4801 8.847 26.9925 8.75 26.5 8.75H11.5ZM9.25 12.5C9.25 11.9033 9.48705 11.331 9.90901 10.909C10.331 10.4871 10.9033 10.25 11.5 10.25H26.5C27.0967 10.25 27.669 10.4871 28.091 10.909C28.5129 11.331 28.75 11.9033 28.75 12.5V27.5C28.75 28.0967 28.5129 28.669 28.091 29.091C27.669 29.5129 27.0967 29.75 26.5 29.75H11.5C10.9033 29.75 10.331 29.5129 9.90901 29.091C9.48705 28.669 9.25 28.0967 9.25 27.5V12.5Z" fill="white"/>
</g>
<defs>
<clipPath id="clip0_212_332">
<rect width="24" height="24" fill="white" transform="translate(7 8)"/>
</clipPath>
</defs>
</svg>
