<svg width="38" height="40" viewBox="0 0 38 40" fill="none" xmlns="http://www.w3.org/2000/svg">
<rect width="38" height="40" rx="4" fill="#089A47"/>
<g clip-path="url(#clip0_212_317)">
<path d="M15.9999 24.296L16.0014 24.2945L11.9514 20.2445C11.8147 20.1031 11.7389 19.9137 11.7405 19.7171C11.7421 19.5204 11.8208 19.3323 11.9598 19.1931C12.0987 19.054 12.2868 18.9749 12.4834 18.9731C12.6801 18.9712 12.8696 19.0467 13.0111 19.1832L17.0611 23.234L25.0164 15.2802C25.0856 15.2086 25.1683 15.1515 25.2598 15.1122C25.3513 15.0729 25.4498 15.0522 25.5493 15.0513C25.6489 15.0504 25.7477 15.0694 25.8399 15.1071C25.932 15.1448 26.0158 15.2005 26.0862 15.2709C26.1566 15.3414 26.2123 15.4251 26.25 15.5173C26.2877 15.6094 26.3067 15.7082 26.3058 15.8078C26.305 15.9074 26.2843 16.0058 26.245 16.0973C26.2057 16.1888 26.1485 16.2716 26.0769 16.3407L17.5906 24.8262C17.45 24.9668 17.2593 25.0458 17.0604 25.0458C16.8615 25.0458 16.6708 24.9668 16.5301 24.8262L15.9999 24.296Z" fill="white"/>
<path d="M11.5 8.75C11.0075 8.75 10.5199 8.847 10.0649 9.03545C9.60997 9.22391 9.19657 9.50013 8.84835 9.84835C8.14509 10.5516 7.75 11.5054 7.75 12.5V27.5C7.75 28.4946 8.14509 29.4484 8.84835 30.1516C9.19657 30.4999 9.60997 30.7761 10.0649 30.9645C10.5199 31.153 11.0075 31.25 11.5 31.25H26.5C27.4946 31.25 28.4484 30.8549 29.1516 30.1516C29.8549 29.4484 30.25 28.4946 30.25 27.5V12.5C30.25 12.0075 30.153 11.5199 29.9645 11.0649C29.7761 10.61 29.4999 10.1966 29.1516 9.84835C28.8034 9.50013 28.39 9.22391 27.9351 9.03545C27.4801 8.847 26.9925 8.75 26.5 8.75H11.5ZM9.25 12.5C9.25 11.9033 9.48705 11.331 9.90901 10.909C10.331 10.4871 10.9033 10.25 11.5 10.25H26.5C27.0967 10.25 27.669 10.4871 28.091 10.909C28.5129 11.331 28.75 11.9033 28.75 12.5V27.5C28.75 28.0967 28.5129 28.669 28.091 29.091C27.669 29.5129 27.0967 29.75 26.5 29.75H11.5C10.9033 29.75 10.331 29.5129 9.90901 29.091C9.48705 28.669 9.25 28.0967 9.25 27.5V12.5Z" fill="white"/>
<path d="M16.0015 24.2945L16.2662 24.56L16.5317 24.2945L16.2662 24.0297L16.0015 24.2945ZM16 24.296L15.7353 24.0305L15.4698 24.296L15.7345 24.5607L16 24.296ZM17.0612 23.234L16.7965 23.4995L17.062 23.7642L17.3267 23.4995L17.0612 23.234ZM8.125 12.5C8.125 11.6049 8.48058 10.7464 9.11351 10.1135C9.74645 9.48058 10.6049 9.125 11.5 9.125V8.375C10.406 8.375 9.35677 8.8096 8.58318 9.58318C7.8096 10.3568 7.375 11.406 7.375 12.5H8.125ZM8.125 27.5V12.5H7.375V27.5H8.125ZM11.5 30.875C10.6049 30.875 9.74645 30.5194 9.11351 29.8865C8.48058 29.2535 8.125 28.3951 8.125 27.5H7.375C7.375 28.594 7.8096 29.6432 8.58318 30.4168C9.35677 31.1904 10.406 31.625 11.5 31.625V30.875ZM26.5 30.875H11.5V31.625H26.5V30.875ZM29.875 27.5C29.875 28.3951 29.5194 29.2535 28.8865 29.8865C28.2535 30.5194 27.3951 30.875 26.5 30.875V31.625C27.594 31.625 28.6432 31.1904 29.4168 30.4168C30.1904 29.6432 30.625 28.594 30.625 27.5H29.875ZM29.875 12.5V27.5H30.625V12.5H29.875ZM26.5 9.125C27.3951 9.125 28.2535 9.48058 28.8865 10.1135C29.5194 10.7464 29.875 11.6049 29.875 12.5H30.625C30.625 11.406 30.1904 10.3568 29.4168 9.58318C28.6432 8.8096 27.594 8.375 26.5 8.375V9.125ZM11.5 9.125H26.5V8.375H11.5V9.125ZM11.5 9.875C10.8038 9.875 10.1361 10.1516 9.64384 10.6438C9.15156 11.1361 8.875 11.8038 8.875 12.5H9.625C9.625 12.0027 9.82254 11.5258 10.1742 11.1742C10.5258 10.8225 11.0027 10.625 11.5 10.625V9.875ZM26.5 9.875H11.5V10.625H26.5V9.875ZM29.125 12.5C29.125 12.1553 29.0571 11.8139 28.9252 11.4955C28.7933 11.177 28.5999 10.8876 28.3562 10.6438C28.1124 10.4001 27.823 10.2067 27.5045 10.0748C27.1861 9.9429 26.8447 9.875 26.5 9.875V10.625C26.9973 10.625 27.4742 10.8225 27.8258 11.1742C28.1775 11.5258 28.375 12.0027 28.375 12.5H29.125ZM29.125 27.5V12.5H28.375V27.5H29.125ZM26.5 30.125C26.8447 30.125 27.1861 30.0571 27.5045 29.9252C27.823 29.7933 28.1124 29.5999 28.3562 29.3562C28.5999 29.1124 28.7933 28.823 28.9252 28.5045C29.0571 28.1861 29.125 27.8447 29.125 27.5H28.375C28.375 27.9973 28.1775 28.4742 27.8258 28.8258C27.4742 29.1775 26.9973 29.375 26.5 29.375V30.125ZM11.5 30.125H26.5V29.375H11.5V30.125ZM8.875 27.5C8.875 27.8447 8.9429 28.1861 9.07482 28.5045C9.20673 28.823 9.40009 29.1124 9.64384 29.3562C9.8876 29.5999 10.177 29.7933 10.4955 29.9252C10.8139 30.0571 11.1553 30.125 11.5 30.125V29.375C11.0027 29.375 10.5258 29.1775 10.1742 28.8258C9.82254 28.4742 9.625 27.9973 9.625 27.5H8.875ZM8.875 12.5V27.5H9.625V12.5H8.875ZM15.736 24.029L15.7353 24.0305L16.2647 24.5615L16.2662 24.56L15.736 24.029ZM11.686 20.5093L15.736 24.5592L16.2662 24.0297L12.2162 19.979L11.686 20.5093ZM11.686 18.9185C11.4751 19.1295 11.3566 19.4156 11.3566 19.7139C11.3566 20.0122 11.4751 20.2983 11.686 20.5093L12.2162 19.979C12.1459 19.9087 12.1065 19.8133 12.1065 19.7139C12.1065 19.6144 12.1459 19.5191 12.2162 19.4488L11.686 18.9185ZM13.276 18.9185C13.0651 18.7078 12.7791 18.5895 12.481 18.5895C12.1829 18.5895 11.8969 18.7078 11.686 18.9185L12.2162 19.4488C12.2866 19.3784 12.3819 19.339 12.4814 19.339C12.5808 19.339 12.6762 19.3784 12.7465 19.4488L13.276 18.9185ZM17.3267 22.9685L13.2768 18.9185L12.7465 19.4488L16.7965 23.4995L17.3267 22.9685ZM24.751 15.0155L16.7965 22.9692L17.3267 23.4995L25.2805 15.545L24.751 15.0155ZM26.3417 15.0155C26.2373 14.911 26.1132 14.828 25.9767 14.7714C25.8401 14.7149 25.6938 14.6857 25.546 14.6857C25.3982 14.6857 25.2519 14.7149 25.1153 14.7714C24.9788 14.828 24.8555 14.911 24.751 15.0155L25.2805 15.545C25.3508 15.4747 25.4462 15.436 25.5456 15.436C25.6451 15.436 25.7404 15.4754 25.8107 15.5457L26.3417 15.0155ZM26.3417 16.6055C26.5524 16.3946 26.6708 16.1086 26.6708 15.8105C26.6708 15.5124 26.5524 15.2264 26.3417 15.0155L25.8107 15.5457C25.8811 15.6161 25.9205 15.7114 25.9205 15.8109C25.9205 15.9103 25.8811 16.0057 25.8107 16.076L26.3417 16.6055ZM17.8563 25.0925L26.3417 16.607L25.8107 16.0767L17.326 24.5607L17.8563 25.0925ZM16.2655 25.0925C16.4764 25.3032 16.7624 25.4215 17.0605 25.4215C17.3586 25.4215 17.6446 25.3032 17.8555 25.0925L17.326 24.5615C17.2557 24.6318 17.1603 24.6713 17.0609 24.6713C16.9614 24.6713 16.8661 24.6318 16.7957 24.5615L16.2655 25.0925ZM15.7345 24.5615L16.2655 25.0925L16.7957 24.5615L16.2655 24.0312L15.7345 24.5615Z" fill="white"/>
</g>
<defs>
<clipPath id="clip0_212_317">
<rect width="24" height="24" fill="white" transform="translate(7 8)"/>
</clipPath>
</defs>
</svg>
