<svg width="38" height="40" viewBox="0 0 38 40" fill="none" xmlns="http://www.w3.org/2000/svg">
<rect width="38" height="40" rx="4" fill="#5C098C"/>
<path d="M26 12H24V11C24 10.7348 23.8946 10.4804 23.7071 10.2929C23.5196 10.1054 23.2652 10 23 10C22.7348 10 22.4804 10.1054 22.2929 10.2929C22.1054 10.4804 22 10.7348 22 11V12H16V11C16 10.7348 15.8946 10.4804 15.7071 10.2929C15.5196 10.1054 15.2652 10 15 10C14.7348 10 14.4804 10.1054 14.2929 10.2929C14.1054 10.4804 14 10.7348 14 11V12H12C11.2044 12 10.4413 12.3161 9.87868 12.8787C9.31607 13.4413 9 14.2044 9 15V27C9 27.7956 9.31607 28.5587 9.87868 29.1213C10.4413 29.6839 11.2044 30 12 30H26C26.7956 30 27.5587 29.6839 28.1213 29.1213C28.6839 28.5587 29 27.7956 29 27V15C29 14.2044 28.6839 13.4413 28.1213 12.8787C27.5587 12.3161 26.7956 12 26 12ZM27 27C27 27.2652 26.8946 27.5196 26.7071 27.7071C26.5196 27.8946 26.2652 28 26 28H12C11.7348 28 11.4804 27.8946 11.2929 27.7071C11.1054 27.5196 11 27.2652 11 27V20H27V27ZM27 18H11V15C11 14.7348 11.1054 14.4804 11.2929 14.2929C11.4804 14.1054 11.7348 14 12 14H14V15C14 15.2652 14.1054 15.5196 14.2929 15.7071C14.4804 15.8946 14.7348 16 15 16C15.2652 16 15.5196 15.8946 15.7071 15.7071C15.8946 15.5196 16 15.2652 16 15V14H22V15C22 15.2652 22.1054 15.5196 22.2929 15.7071C22.4804 15.8946 22.7348 16 23 16C23.2652 16 23.5196 15.8946 23.7071 15.7071C23.8946 15.5196 24 15.2652 24 15V14H26C26.2652 14 26.5196 14.1054 26.7071 14.2929C26.8946 14.4804 27 14.7348 27 15V18Z" fill="#F5F5F5"/>
</svg>
