<svg width="34" height="34" viewBox="0 0 34 34" fill="none" xmlns="http://www.w3.org/2000/svg">
<path d="M28.6668 3.66634H25.3335V1.99967C25.3335 1.55765 25.1579 1.13372 24.8453 0.821163C24.5328 0.508602 24.1089 0.333008 23.6668 0.333008C23.2248 0.333008 22.8009 0.508602 22.4883 0.821163C22.1758 1.13372 22.0002 1.55765 22.0002 1.99967V3.66634H12.0002V1.99967C12.0002 1.55765 11.8246 1.13372 11.512 0.821163C11.1994 0.508602 10.7755 0.333008 10.3335 0.333008C9.89147 0.333008 9.46755 0.508602 9.15498 0.821163C8.84242 1.13372 8.66683 1.55765 8.66683 1.99967V3.66634H5.3335C4.00741 3.66634 2.73564 4.19313 1.79796 5.13081C0.86028 6.06849 0.333496 7.34026 0.333496 8.66634V28.6663C0.333496 29.9924 0.86028 31.2642 1.79796 32.2019C2.73564 33.1396 4.00741 33.6663 5.3335 33.6663H28.6668C29.9929 33.6663 31.2647 33.1396 32.2024 32.2019C33.14 31.2642 33.6668 29.9924 33.6668 28.6663V8.66634C33.6668 7.34026 33.14 6.06849 32.2024 5.13081C31.2647 4.19313 29.9929 3.66634 28.6668 3.66634ZM30.3335 28.6663C30.3335 29.1084 30.1579 29.5323 29.8453 29.8449C29.5328 30.1574 29.1089 30.333 28.6668 30.333H5.3335C4.89147 30.333 4.46755 30.1574 4.15498 29.8449C3.84242 29.5323 3.66683 29.1084 3.66683 28.6663V16.9997H30.3335V28.6663ZM30.3335 13.6663H3.66683V8.66634C3.66683 8.22431 3.84242 7.80039 4.15498 7.48783C4.46755 7.17527 4.89147 6.99967 5.3335 6.99967H8.66683V8.66634C8.66683 9.10837 8.84242 9.53229 9.15498 9.84485C9.46755 10.1574 9.89147 10.333 10.3335 10.333C10.7755 10.333 11.1994 10.1574 11.512 9.84485C11.8246 9.53229 12.0002 9.10837 12.0002 8.66634V6.99967H22.0002V8.66634C22.0002 9.10837 22.1758 9.53229 22.4883 9.84485C22.8009 10.1574 23.2248 10.333 23.6668 10.333C24.1089 10.333 24.5328 10.1574 24.8453 9.84485C25.1579 9.53229 25.3335 9.10837 25.3335 8.66634V6.99967H28.6668C29.1089 6.99967 29.5328 7.17527 29.8453 7.48783C30.1579 7.80039 30.3335 8.22431 30.3335 8.66634V13.6663Z" fill="#F5F5F5"/>
</svg>
