<svg width="38" height="40" viewBox="0 0 38 40" fill="none" xmlns="http://www.w3.org/2000/svg">
<rect width="38" height="40" rx="4" fill="#1215C4"/>
<path d="M9.99194 19.576C9.99194 17.944 10.3999 16.432 11.2079 15.048C12.0159 13.664 13.1119 12.568 14.4959 11.76C15.8799 10.952 17.3839 10.552 19.0079 10.552C20.2239 10.552 21.3919 10.792 22.5039 11.264C23.6159 11.736 24.5679 12.384 25.3759 13.184C26.1839 13.984 26.8239 14.944 27.2959 16.064C27.7679 17.184 28.0079 18.344 28.0079 19.576C28.0079 20.792 27.7679 21.96 27.2959 23.072C26.8239 24.184 26.1759 25.144 25.3759 25.944C24.5759 26.744 23.6159 27.384 22.5039 27.856C21.3919 28.328 20.2319 28.568 19.0079 28.568C17.7839 28.568 16.6079 28.328 15.4959 27.856C14.3839 27.384 13.4239 26.736 12.6159 25.936C11.8079 25.136 11.1759 24.176 10.6959 23.072C10.2159 21.968 9.99194 20.8 9.99194 19.576ZM11.9759 19.576C11.9759 21.472 12.6639 23.12 14.0479 24.52C15.4319 25.904 17.0799 26.592 19.0079 26.592C20.2719 26.592 21.4479 26.28 22.5199 25.648C23.5919 25.016 24.4559 24.168 25.0879 23.088C25.7199 22.008 26.0399 20.84 26.0399 19.576C26.0399 18.312 25.7199 17.136 25.0879 16.056C24.4559 14.976 23.5999 14.12 22.5199 13.488C21.4399 12.856 20.2719 12.544 19.0079 12.544C17.7439 12.544 16.5679 12.856 15.4959 13.488C14.4239 14.12 13.5599 14.976 12.9199 16.056C12.2799 17.136 11.9759 18.312 11.9759 19.576ZM18.3119 19.576V14.248C18.3119 14.064 18.3759 13.904 18.5039 13.776C18.6319 13.648 18.7919 13.584 18.9759 13.584C19.1599 13.584 19.3199 13.648 19.4479 13.776C19.5759 13.904 19.6399 14.064 19.6399 14.248V19.384L21.3599 22.456C21.4559 22.624 21.4719 22.8 21.4239 22.976C21.3759 23.152 21.2719 23.288 21.1119 23.384C21.0106 23.4357 20.8976 23.4605 20.7839 23.456C20.5199 23.456 20.3199 23.344 20.1999 23.128L18.4399 20.008C18.3568 19.8792 18.3123 19.7293 18.3119 19.576Z" fill="white"/>
</svg>
