<svg width="25" height="24" viewBox="0 0 25 24" fill="none" xmlns="http://www.w3.org/2000/svg">
<path d="M12.7274 1.92191C9.15314 1.91254 6.00783 3.76175 4.21018 6.5555C4.13049 6.67972 4.21955 6.84379 4.36721 6.84379H6.01486C6.12736 6.84379 6.23283 6.79457 6.30314 6.70785C6.46721 6.50863 6.64299 6.31644 6.82815 6.13363C7.59221 5.37191 8.48049 4.77191 9.46955 4.35472C10.4914 3.92347 11.5789 3.70316 12.7016 3.70316C13.8242 3.70316 14.9117 3.92113 15.9336 4.35472C16.9227 4.77191 17.811 5.37191 18.575 6.13363C19.3391 6.89535 19.9367 7.78363 20.3563 8.77035C20.7899 9.79222 21.0078 10.8774 21.0078 12C21.0078 13.1227 20.7875 14.2078 20.3563 15.2297C19.9391 16.2164 19.3391 17.1047 18.575 17.8664C17.811 18.6282 16.9227 19.2282 15.9336 19.6453C14.9109 20.0773 13.8117 20.2989 12.7016 20.2969C11.5789 20.2969 10.4914 20.0766 9.46955 19.6453C8.48242 19.2286 7.58541 18.6245 6.82815 17.8664C6.64299 17.6813 6.46955 17.4891 6.30314 17.2922C6.23283 17.2055 6.12502 17.1563 6.01486 17.1563H4.36721C4.21955 17.1563 4.12814 17.3203 4.21018 17.4446C6.00549 20.2313 9.13674 22.0782 12.7016 22.0782C18.2375 22.0782 22.7328 17.6227 22.7891 12.1032C22.8453 6.49457 18.343 1.93597 12.7274 1.92191ZM9.7583 14.625V12.8438H2.39893C2.2958 12.8438 2.21143 12.7594 2.21143 12.6563V11.3438C2.21143 11.2407 2.2958 11.1563 2.39893 11.1563H9.7583V9.37504C9.7583 9.218 9.94111 9.12894 10.063 9.22738L13.3888 11.8524C13.4112 11.8699 13.4293 11.8923 13.4418 11.9179C13.4542 11.9435 13.4607 11.9716 13.4607 12C13.4607 12.0285 13.4542 12.0566 13.4418 12.0822C13.4293 12.1077 13.4112 12.1302 13.3888 12.1477L10.063 14.7727C9.94111 14.8688 9.7583 14.7821 9.7583 14.625Z" fill="#F5F5F5"/>
</svg>
