<svg width="241" height="56" viewBox="0 0 241 56" fill="none" xmlns="http://www.w3.org/2000/svg">
<mask id="mask0_21_397" style="mask-type:luminance" maskUnits="userSpaceOnUse" x="0" y="0" width="51" height="51">
<path d="M0 0.00683594H51V50.1611H0V0.00683594Z" fill="white"/>
</mask>
<g mask="url(#mask0_21_397)">
<path d="M18.5229 0.0490067C22.9783 0.0490067 27.4338 0.0283812 31.8892 0.0490067C40.604 0.0902605 47.9988 6.18551 49.5664 14.8282C51 22.7489 46.6993 31.2162 38.8198 34.5475C36.3239 35.6098 33.7353 36.012 31.0435 35.9707C29.2489 35.9398 28.8776 36.2595 28.4135 38.0231C27.64 40.9212 26.8871 43.809 26.1033 46.6967C25.4536 49.0585 23.4424 50.162 21.3076 49.3782C19.6265 48.7594 18.6879 47.1196 19.1521 45.3147C20.4103 40.4055 21.7201 35.5066 23.0402 30.6181C23.3806 29.3392 24.1953 28.8132 25.7011 28.7926C27.7535 28.772 29.8058 28.8132 31.8582 28.7823C36.9737 28.6998 41.2125 25.3582 42.3986 20.5006C43.8424 14.5807 40.0471 8.56791 34.0962 7.40249C33.1165 7.20654 32.0954 7.16529 31.0847 7.15497C22.3698 7.14466 13.6447 7.16529 4.92981 7.15497C4.30069 7.15497 3.66125 7.11372 3.05276 7.00027C1.14477 6.6393 -2.21208e-05 5.20573 0.123739 3.38025C0.247501 1.5032 1.7017 0.0799478 3.64063 0.0490067C6.79654 0.00775296 9.96277 0.0283818 13.1187 0.0180664C14.9235 0.0180664 16.7181 0.0180664 18.5229 0.0180664C18.5229 0.0283818 18.5229 0.038694 18.5229 0.0490067Z" fill="#164473"/>
</g>
<path d="M23.2156 14.392C26.0312 14.392 28.8364 14.3611 31.652 14.4023C34.4779 14.4436 36.2312 16.8672 35.2307 19.3115C34.581 20.8998 33.2815 21.5186 31.6829 21.5289C28.1145 21.5598 24.5357 21.5392 20.9672 21.5495C18.4817 21.5495 17.8835 22.0446 17.2338 24.5198C14.7173 33.9876 12.2008 43.4553 9.66371 52.9127C8.90052 55.7902 6.11588 56.8834 3.96037 55.192C2.62994 54.1503 2.34116 52.7374 2.76401 51.1491C4.14601 45.9202 5.53833 40.6913 6.93065 35.4727C8.56017 29.3259 10.1897 23.1791 11.8192 17.0322C12.3761 14.9592 13.1393 14.3817 15.2536 14.3817C17.9145 14.3817 20.565 14.3817 23.2156 14.3817C23.2156 14.392 23.2156 14.392 23.2156 14.392Z" fill="#FC6435"/>
<path d="M63.528 10.92H70.632L83.064 45H75L72.36 37.368H61.752L59.16 45H51.096L63.528 10.92ZM71.064 31.944L67.08 19.896L63 31.944H71.064ZM106.353 20.904C106.257 20.776 105.921 20.536 105.345 20.184C104.769 19.832 104.049 19.464 103.185 19.08C102.321 18.696 101.377 18.36 100.353 18.072C99.3286 17.784 98.3046 17.64 97.2806 17.64C94.4646 17.64 93.0566 18.584 93.0566 20.472C93.0566 21.048 93.2006 21.528 93.4886 21.912C93.8086 22.296 94.2566 22.648 94.8326 22.968C95.4406 23.256 96.1926 23.528 97.0886 23.784C97.9846 24.04 99.0246 24.328 100.209 24.648C101.841 25.096 103.313 25.592 104.625 26.136C105.937 26.648 107.041 27.304 107.937 28.104C108.865 28.872 109.569 29.816 110.049 30.936C110.561 32.056 110.817 33.4 110.817 34.968C110.817 36.888 110.449 38.52 109.713 39.864C109.009 41.176 108.065 42.248 106.881 43.08C105.697 43.88 104.337 44.472 102.801 44.856C101.265 45.208 99.6806 45.384 98.0486 45.384C96.8006 45.384 95.5206 45.288 94.2086 45.096C92.8966 44.904 91.6166 44.632 90.3686 44.28C89.1206 43.896 87.9046 43.448 86.7206 42.936C85.5686 42.424 84.4966 41.832 83.5046 41.16L86.9606 34.296C87.0886 34.456 87.5046 34.76 88.2086 35.208C88.9126 35.656 89.7766 36.104 90.8006 36.552C91.8566 37 93.0246 37.4 94.3046 37.752C95.5846 38.104 96.8806 38.28 98.1926 38.28C100.977 38.28 102.369 37.432 102.369 35.736C102.369 35.096 102.161 34.568 101.745 34.152C101.329 33.736 100.753 33.368 100.017 33.048C99.2806 32.696 98.4006 32.376 97.3766 32.088C96.3846 31.8 95.2966 31.48 94.1126 31.128C92.5446 30.648 91.1846 30.136 90.0326 29.592C88.8806 29.016 87.9206 28.36 87.1526 27.624C86.4166 26.888 85.8566 26.04 85.4726 25.08C85.1206 24.12 84.9446 23 84.9446 21.72C84.9446 19.928 85.2806 18.344 85.9526 16.968C86.6246 15.592 87.5366 14.44 88.6886 13.512C89.8406 12.552 91.1686 11.832 92.6726 11.352C94.2086 10.872 95.8246 10.632 97.5206 10.632C98.7046 10.632 99.8726 10.744 101.025 10.968C102.177 11.192 103.281 11.48 104.337 11.832C105.393 12.184 106.369 12.584 107.265 13.032C108.193 13.48 109.041 13.928 109.809 14.376L106.353 20.904ZM135.884 20.904C135.788 20.776 135.452 20.536 134.876 20.184C134.3 19.832 133.58 19.464 132.716 19.08C131.852 18.696 130.908 18.36 129.884 18.072C128.86 17.784 127.836 17.64 126.812 17.64C123.996 17.64 122.588 18.584 122.588 20.472C122.588 21.048 122.732 21.528 123.02 21.912C123.34 22.296 123.788 22.648 124.364 22.968C124.972 23.256 125.724 23.528 126.62 23.784C127.516 24.04 128.556 24.328 129.74 24.648C131.372 25.096 132.844 25.592 134.156 26.136C135.468 26.648 136.572 27.304 137.468 28.104C138.396 28.872 139.1 29.816 139.58 30.936C140.092 32.056 140.348 33.4 140.348 34.968C140.348 36.888 139.98 38.52 139.244 39.864C138.54 41.176 137.596 42.248 136.412 43.08C135.228 43.88 133.868 44.472 132.332 44.856C130.796 45.208 129.212 45.384 127.58 45.384C126.332 45.384 125.052 45.288 123.74 45.096C122.428 44.904 121.148 44.632 119.9 44.28C118.652 43.896 117.436 43.448 116.252 42.936C115.1 42.424 114.028 41.832 113.036 41.16L116.492 34.296C116.62 34.456 117.036 34.76 117.74 35.208C118.444 35.656 119.308 36.104 120.332 36.552C121.388 37 122.556 37.4 123.836 37.752C125.116 38.104 126.412 38.28 127.724 38.28C130.508 38.28 131.9 37.432 131.9 35.736C131.9 35.096 131.692 34.568 131.276 34.152C130.86 33.736 130.284 33.368 129.548 33.048C128.812 32.696 127.932 32.376 126.908 32.088C125.916 31.8 124.828 31.48 123.644 31.128C122.076 30.648 120.716 30.136 119.564 29.592C118.412 29.016 117.452 28.36 116.684 27.624C115.948 26.888 115.388 26.04 115.004 25.08C114.652 24.12 114.476 23 114.476 21.72C114.476 19.928 114.812 18.344 115.484 16.968C116.156 15.592 117.068 14.44 118.22 13.512C119.372 12.552 120.7 11.832 122.204 11.352C123.74 10.872 125.356 10.632 127.052 10.632C128.236 10.632 129.404 10.744 130.556 10.968C131.708 11.192 132.812 11.48 133.868 11.832C134.924 12.184 135.9 12.584 136.796 13.032C137.724 13.48 138.572 13.928 139.34 14.376L135.884 20.904ZM144.967 45V10.92H159.511C161.143 10.92 162.631 11.256 163.975 11.928C165.351 12.6 166.519 13.48 167.479 14.568C168.471 15.656 169.239 16.888 169.783 18.264C170.359 19.64 170.647 21.032 170.647 22.44C170.647 23.944 170.375 25.384 169.831 26.76C169.319 28.136 168.583 29.368 167.623 30.456C166.695 31.544 165.559 32.408 164.215 33.048C162.871 33.688 161.383 34.008 159.751 34.008H152.839V45H144.967ZM152.839 27.144H159.271C160.199 27.144 160.999 26.744 161.671 25.944C162.343 25.144 162.679 23.976 162.679 22.44C162.679 21.64 162.567 20.952 162.343 20.376C162.151 19.8 161.879 19.32 161.527 18.936C161.175 18.552 160.775 18.28 160.327 18.12C159.879 17.928 159.431 17.832 158.983 17.832H152.839V27.144ZM174.873 45V10.92H190.233C191.833 10.92 193.305 11.256 194.649 11.928C196.025 12.6 197.209 13.48 198.201 14.568C199.193 15.656 199.961 16.888 200.505 18.264C201.081 19.64 201.369 21.032 201.369 22.44C201.369 23.496 201.241 24.52 200.985 25.512C200.729 26.472 200.361 27.384 199.881 28.248C199.401 29.112 198.809 29.896 198.105 30.6C197.433 31.272 196.665 31.848 195.801 32.328L203.289 45H194.409L187.881 34.008H182.745V45H174.873ZM182.745 27.144H189.945C190.873 27.144 191.673 26.712 192.345 25.848C193.017 24.952 193.353 23.816 193.353 22.44C193.353 21.032 192.969 19.912 192.201 19.08C191.433 18.248 190.601 17.832 189.705 17.832H182.745V27.144ZM221.958 45.288C219.43 45.288 217.126 44.792 215.046 43.8C212.966 42.808 211.19 41.512 209.718 39.912C208.246 38.28 207.094 36.424 206.262 34.344C205.462 32.264 205.062 30.12 205.062 27.912C205.062 25.672 205.478 23.512 206.31 21.432C207.174 19.352 208.358 17.528 209.862 15.96C211.398 14.36 213.206 13.096 215.286 12.168C217.366 11.208 219.638 10.728 222.102 10.728C224.63 10.728 226.934 11.224 229.014 12.216C231.094 13.208 232.87 14.52 234.342 16.152C235.814 17.784 236.95 19.64 237.75 21.72C238.55 23.8 238.95 25.912 238.95 28.056C238.95 30.296 238.518 32.456 237.654 34.536C236.822 36.616 235.654 38.456 234.15 40.056C232.646 41.624 230.854 42.888 228.774 43.848C226.694 44.808 224.422 45.288 221.958 45.288ZM213.078 28.008C213.078 29.32 213.27 30.6 213.654 31.848C214.038 33.064 214.598 34.152 215.334 35.112C216.102 36.072 217.046 36.84 218.166 37.416C219.286 37.992 220.566 38.28 222.006 38.28C223.51 38.28 224.822 37.976 225.942 37.368C227.062 36.76 227.99 35.976 228.726 35.016C229.462 34.024 230.006 32.92 230.358 31.704C230.742 30.456 230.934 29.192 230.934 27.912C230.934 26.6 230.742 25.336 230.358 24.12C229.974 22.872 229.398 21.784 228.63 20.856C227.862 19.896 226.918 19.144 225.798 18.6C224.71 18.024 223.446 17.736 222.006 17.736C220.502 17.736 219.19 18.04 218.07 18.648C216.982 19.224 216.054 19.992 215.286 20.952C214.55 21.912 213.99 23.016 213.606 24.264C213.254 25.48 213.078 26.728 213.078 28.008Z" fill="#FC6435"/>
</svg>
