<svg width="55" height="55" viewBox="0 0 55 55" fill="none" xmlns="http://www.w3.org/2000/svg">
<rect width="55" height="55" rx="4" fill="#64646E" fill-opacity="0.42"/>
<path d="M35.3333 41.3333C35.3333 38.5717 31.6017 36.3333 27 36.3333C22.3983 36.3333 18.6667 38.5717 18.6667 41.3333M42 36.3333C42 34.2833 39.9433 32.5217 37 31.75M12 36.3333C12 34.2833 14.0567 32.5217 17 31.75M37 25.06C37.4938 24.6235 37.8964 24.0937 38.1846 23.501C38.4729 22.9083 38.6412 22.2645 38.6798 21.6066C38.7183 20.9487 38.6265 20.2896 38.4094 19.6673C38.1924 19.045 37.8544 18.4718 37.4151 17.9806C36.9757 17.4894 36.4435 17.0898 35.8492 16.805C35.2549 16.5202 34.6101 16.3557 33.952 16.3209C33.2938 16.2862 32.6353 16.3819 32.0143 16.6025C31.3933 16.8232 30.822 17.1644 30.3333 17.6067M17 25.06C16.0205 24.1736 15.4316 22.9355 15.3619 21.6163C15.2923 20.2971 15.7475 19.004 16.6283 18.0193C17.509 17.0347 18.7436 16.4386 20.0624 16.3613C21.3811 16.284 22.6769 16.7317 23.6667 17.6067M27 31.3333C26.3434 31.3333 25.6932 31.204 25.0866 30.9527C24.48 30.7015 23.9288 30.3332 23.4645 29.8689C23.0002 29.4046 22.6319 28.8534 22.3806 28.2468C22.1293 27.6401 22 26.9899 22 26.3333C22 25.6767 22.1293 25.0265 22.3806 24.4199C22.6319 23.8133 23.0002 23.2621 23.4645 22.7978C23.9288 22.3335 24.48 21.9652 25.0866 21.7139C25.6932 21.4627 26.3434 21.3333 27 21.3333C28.3261 21.3333 29.5979 21.8601 30.5355 22.7978C31.4732 23.7355 32 25.0073 32 26.3333C32 27.6594 31.4732 28.9312 30.5355 29.8689C29.5979 30.8066 28.3261 31.3333 27 31.3333Z" stroke="#64646E" stroke-width="2" stroke-linecap="round" stroke-linejoin="round"/>
</svg>
