<svg width="55" height="55" viewBox="0 0 55 55" fill="none" xmlns="http://www.w3.org/2000/svg">
<rect width="55" height="55" rx="4" fill="#089A47" fill-opacity="0.42"/>
<path d="M33.6667 39.6667H40.3333C40.7754 39.6667 41.1993 39.4911 41.5118 39.1786C41.8244 38.866 42 38.4421 42 38V36.3334C42 35.0073 41.4732 33.7355 40.5355 32.7978C39.5979 31.8602 38.3261 31.3334 37 31.3334H33.6667M29.94 24.6667C30.6151 25.4215 31.5034 25.9535 32.4875 26.1923C33.4715 26.4311 34.5049 26.3656 35.4509 26.0042C36.3969 25.6429 37.2108 25.0029 37.7851 24.1688C38.3593 23.3348 38.6668 22.346 38.6668 21.3334C38.6668 20.3208 38.3593 19.332 37.7851 18.4979C37.2108 17.6639 36.3969 17.0238 35.4509 16.6625C34.5049 16.3012 33.4715 16.2356 32.4875 16.4744C31.5034 16.7133 30.6151 17.2453 29.94 18M12 38V36.3334C12 35.0073 12.5268 33.7355 13.4645 32.7978C14.4021 31.8602 15.6739 31.3334 17 31.3334H23.6667C24.9927 31.3334 26.2645 31.8602 27.2022 32.7978C28.1399 33.7355 28.6667 35.0073 28.6667 36.3334V38C28.6667 38.4421 28.4911 38.866 28.1785 39.1786C27.8659 39.4911 27.442 39.6667 27 39.6667H13.6667C13.2246 39.6667 12.8007 39.4911 12.4882 39.1786C12.1756 38.866 12 38.4421 12 38ZM25.3333 21.3334C25.3333 22.6595 24.8065 23.9312 23.8689 24.8689C22.9312 25.8066 21.6594 26.3334 20.3333 26.3334C19.0073 26.3334 17.7355 25.8066 16.7978 24.8689C15.8601 23.9312 15.3333 22.6595 15.3333 21.3334C15.3333 20.0073 15.8601 18.7355 16.7978 17.7978C17.7355 16.8602 19.0073 16.3334 20.3333 16.3334C21.6594 16.3334 22.9312 16.8602 23.8689 17.7978C24.8065 18.7355 25.3333 20.0073 25.3333 21.3334Z" stroke="#089A47" stroke-width="2" stroke-linecap="round"/>
</svg>
