<svg width="45" height="45" viewBox="0 0 45 45" fill="none" xmlns="http://www.w3.org/2000/svg">
<rect width="45" height="45" rx="8" fill="#FF9F43" fill-opacity="0.15"/>
<path d="M22.5 30.8333C23.4205 30.8333 24.1667 30.0871 24.1667 29.1667C24.1667 28.2462 23.4205 27.5 22.5 27.5C21.5795 27.5 20.8333 28.2462 20.8333 29.1667C20.8333 30.0871 21.5795 30.8333 22.5 30.8333Z" fill="#FF9F43"/>
<path d="M22.5 17.4993C23.4205 17.4993 24.1667 16.7532 24.1667 15.8327C24.1667 14.9122 23.4205 14.166 22.5 14.166C21.5795 14.166 20.8333 14.9122 20.8333 15.8327C20.8333 16.7532 21.5795 17.4993 22.5 17.4993Z" fill="#FF9F43"/>
<path d="M17.7858 28.8802C18.7063 28.8802 19.4525 28.134 19.4525 27.2135C19.4525 26.2931 18.7063 25.5469 17.7858 25.5469C16.8654 25.5469 16.1192 26.2931 16.1192 27.2135C16.1192 28.134 16.8654 28.8802 17.7858 28.8802Z" fill="#FF9F43"/>
<path d="M15.8333 24.167C16.7543 24.167 17.5008 23.4205 17.5008 22.4995C17.5008 21.5786 16.7543 20.832 15.8333 20.832C14.9124 20.832 14.1658 21.5786 14.1658 22.4995C14.1658 23.4205 14.9124 24.167 15.8333 24.167Z" fill="#FF9F43"/>
<path d="M29.1667 24.1673C30.0871 24.1673 30.8333 23.4211 30.8333 22.5007C30.8333 21.5802 30.0871 20.834 29.1667 20.834C28.2462 20.834 27.5 21.5802 27.5 22.5007C27.5 23.4211 28.2462 24.1673 29.1667 24.1673Z" fill="#FF9F43"/>
<path d="M17.7858 19.4525C18.7063 19.4525 19.4525 18.7063 19.4525 17.7858C19.4525 16.8653 18.7063 16.1191 17.7858 16.1191C16.8654 16.1191 16.1192 16.8653 16.1192 17.7858C16.1192 18.7063 16.8654 19.4525 17.7858 19.4525Z" fill="#FF9F43"/>
<path d="M27.2142 28.8822C28.1346 28.8822 28.8808 28.136 28.8808 27.2155C28.8808 26.295 28.1346 25.5488 27.2142 25.5488C26.2937 25.5488 25.5475 26.295 25.5475 27.2155C25.5475 28.136 26.2937 28.8822 27.2142 28.8822Z" fill="#FF9F43"/>
</svg>
