<svg width="45" height="45" viewBox="0 0 45 45" fill="none" xmlns="http://www.w3.org/2000/svg">
<rect width="45" height="45" rx="8" fill="#EB2222" fill-opacity="0.15"/>
<path d="M16.9444 16.9444L28.0556 28.0556M22.5 30.5C21.4494 30.5 20.4091 30.2931 19.4385 29.891C18.4679 29.489 17.586 28.8997 16.8431 28.1569C16.1003 27.414 15.511 26.5321 15.109 25.5615C14.7069 24.5909 14.5 23.5506 14.5 22.5C14.5 21.4494 14.7069 20.4091 15.109 19.4385C15.511 18.4679 16.1003 17.586 16.8431 16.8431C17.586 16.1003 18.4679 15.511 19.4385 15.109C20.4091 14.7069 21.4494 14.5 22.5 14.5C24.6217 14.5 26.6566 15.3429 28.1569 16.8431C29.6571 18.3434 30.5 20.3783 30.5 22.5C30.5 24.6217 29.6571 26.6566 28.1569 28.1569C26.6566 29.6571 24.6217 30.5 22.5 30.5Z" stroke="#EB2222" stroke-width="2" stroke-linecap="round" stroke-linejoin="round"/>
</svg>
