<svg width="55" height="55" viewBox="0 0 55 55" fill="none" xmlns="http://www.w3.org/2000/svg">
<rect width="55" height="55" rx="4" fill="#18A6A3" fill-opacity="0.42"/>
<path d="M33.049 12.6418L25.4524 17.5179L26.2224 17.9396L32.9809 13.6013L44.4446 20.0947L37.8692 24.3153L38.1895 24.4906V25.0256L43.3398 21.7197L44.4207 22.332L38.1895 26.3316V27.2475L43.2389 24.0063L44.4207 24.6758L38.1895 28.6754V29.5913L43.2389 26.3501L44.4207 27.0197L38.1895 31.0193V31.9351L46.0045 26.9187L44.0648 25.8201L46.0045 24.575L44.0648 23.4763L46.0044 22.2312L44.1656 21.1896L46.0282 19.9939L33.049 12.6418ZM35.4761 16.1372C33.8325 16.9618 31.6433 17.1014 30.1019 16.4796L27.0886 18.4137L37.0029 23.8411L39.8609 22.0067C38.7351 21.1179 38.8288 19.7918 40.0907 18.7512L35.4761 16.1372ZM25.2738 19.0234L19.7513 22.6245L30.3458 28.7234L30.4497 28.657C30.645 28.5312 30.9208 28.3531 31.2498 28.1404C31.9077 27.7151 32.7782 27.1513 33.6463 26.5888C34.8964 25.7786 35.5406 25.3607 36.1397 24.9721L25.2738 19.0234ZM34.2946 19.1148H34.2948C34.5447 19.1163 34.7738 19.1699 34.9449 19.2668C35.0444 19.3231 35.1216 19.3927 35.1721 19.4714C35.2226 19.5502 35.2453 19.6365 35.239 19.7257C35.2327 19.8148 35.1974 19.9048 35.1353 19.9907C35.0732 20.0766 34.9854 20.1567 34.8769 20.2263C34.7684 20.2959 34.6414 20.3537 34.5031 20.3965C34.3648 20.4392 34.218 20.466 34.0709 20.4754C33.9238 20.4848 33.7794 20.4765 33.646 20.451C33.5125 20.4256 33.3926 20.3835 33.2931 20.3271C33.0921 20.2132 32.9863 20.0482 32.999 19.8683C33.0118 19.6883 33.142 19.5083 33.361 19.3677C33.4854 19.2878 33.634 19.2236 33.7956 19.1798C33.9573 19.136 34.1279 19.1138 34.2946 19.1148ZM17.2303 22.7957L8.99555 28.0812L10.8344 29.1229L8.97173 30.3186L10.9114 31.4172L8.97173 32.6624L10.9114 33.7611L8.97173 35.0062L21.951 42.3583L29.7873 37.3281V36.4125L22.0191 41.3987L10.5555 34.9052L11.6691 34.1904L21.951 40.0143L29.7873 34.9843V34.0687L22.0191 39.055L10.5555 32.5615L11.6691 31.8466L21.951 37.6706L29.7873 32.6406V31.725L22.0191 36.7112L10.5555 30.2177L11.5922 29.5521L21.975 35.4333L29.7873 30.4186V30.0241L29.3591 29.7777L22.0427 34.4738L10.5795 27.9804L17.9826 23.2285L17.2302 22.7954L17.2303 22.7957ZM18.8288 23.716L15.1631 26.0687C16.2889 26.9573 16.1952 28.2834 14.9333 29.3242L19.548 31.9383C21.1915 31.1135 23.3806 30.974 24.922 31.5958L28.513 29.2908L18.8286 23.7159L18.8288 23.716ZM36.7832 26.2308C36.1548 26.6384 35.6006 26.9982 34.4111 27.769C33.6121 28.2869 32.8129 28.8044 32.0134 29.3215C31.684 29.5344 31.4076 29.7129 31.2105 29.8397C31.2034 29.8443 31.2006 29.8459 31.1937 29.8504V36.5632L36.7833 32.8063L36.7832 26.2308ZM21.0809 27.5965C21.3307 27.598 21.5598 27.6516 21.7309 27.7486C21.9319 27.8624 22.0376 28.0275 22.0249 28.2074C22.0121 28.3873 21.8819 28.5674 21.6629 28.7079C21.4439 28.8485 21.154 28.9381 20.857 28.957C20.5601 28.9759 20.2803 28.9225 20.0793 28.8087C19.8783 28.6949 19.7725 28.5298 19.7853 28.3499C19.798 28.17 19.9282 27.9899 20.1473 27.8493C20.2717 27.7695 20.4202 27.7053 20.5819 27.6615C20.7435 27.6177 20.9141 27.5955 21.0809 27.5965V27.5965Z" fill="#18A6A3"/>
</svg>
