<svg width="38" height="34" viewBox="0 0 38 34" fill="none" xmlns="http://www.w3.org/2000/svg">
<path d="M32.3332 0.333008H15.6665C14.3404 0.333008 13.0687 0.859792 12.131 1.79747C11.1933 2.73516 10.6665 4.00693 10.6665 5.33301V16.9997C10.6665 18.3258 11.1933 19.5975 12.131 20.5352C13.0687 21.4729 14.3404 21.9997 15.6665 21.9997H32.3332C33.6593 21.9997 34.931 21.4729 35.8687 20.5352C36.8064 19.5975 37.3332 18.3258 37.3332 16.9997V5.33301C37.3332 4.00693 36.8064 2.73516 35.8687 1.79747C34.931 0.859792 33.6593 0.333008 32.3332 0.333008ZM33.9998 16.9997C33.9998 17.4417 33.8242 17.8656 33.5117 18.1782C33.1991 18.4907 32.7752 18.6663 32.3332 18.6663H15.6665C15.2245 18.6663 14.8006 18.4907 14.488 18.1782C14.1754 17.8656 13.9998 17.4417 13.9998 16.9997V5.33301C13.9998 4.89098 14.1754 4.46706 14.488 4.1545C14.8006 3.84194 15.2245 3.66634 15.6665 3.66634H32.3332C32.7752 3.66634 33.1991 3.84194 33.5117 4.1545C33.8242 4.46706 33.9998 4.89098 33.9998 5.33301V16.9997ZM28.1665 10.333C27.5498 10.3367 26.9562 10.5682 26.4998 10.983C26.1415 10.6573 25.6962 10.4426 25.2181 10.3652C24.74 10.2877 24.2497 10.3508 23.8068 10.5468C23.3639 10.7427 22.9875 11.0631 22.7232 11.469C22.459 11.8748 22.3183 12.3487 22.3183 12.833C22.3183 13.3173 22.459 13.7912 22.7232 14.1971C22.9875 14.6029 23.3639 14.9233 23.8068 15.1192C24.2497 15.3152 24.74 15.3783 25.2181 15.3008C25.6962 15.2234 26.1415 15.0088 26.4998 14.683C26.8008 14.9566 27.164 15.1525 27.5578 15.254C27.9517 15.3554 28.3644 15.3592 28.76 15.2651C29.1557 15.1709 29.5224 14.9817 29.8284 14.7137C30.1343 14.4458 30.3703 14.1072 30.5158 13.7274C30.6613 13.3476 30.712 12.9381 30.6634 12.5343C30.6148 12.1305 30.4684 11.7446 30.237 11.4102C30.0055 11.0758 29.696 10.8029 29.3352 10.6152C28.9744 10.4275 28.5732 10.3306 28.1665 10.333ZM25.6665 25.333C25.2245 25.333 24.8006 25.5086 24.488 25.8212C24.1754 26.1337 23.9998 26.5576 23.9998 26.9997V28.6663C23.9998 29.1084 23.8242 29.5323 23.5117 29.8449C23.1991 30.1574 22.7752 30.333 22.3332 30.333H5.6665C5.22448 30.333 4.80055 30.1574 4.48799 29.8449C4.17543 29.5323 3.99984 29.1084 3.99984 28.6663V21.9997H5.6665C6.10853 21.9997 6.53245 21.8241 6.84502 21.5115C7.15758 21.199 7.33317 20.775 7.33317 20.333C7.33317 19.891 7.15758 19.4671 6.84502 19.1545C6.53245 18.8419 6.10853 18.6663 5.6665 18.6663H3.99984V16.9997C3.99984 16.5576 4.17543 16.1337 4.48799 15.8212C4.80055 15.5086 5.22448 15.333 5.6665 15.333C6.10853 15.333 6.53245 15.1574 6.84502 14.8449C7.15758 14.5323 7.33317 14.1084 7.33317 13.6663C7.33317 13.2243 7.15758 12.8004 6.84502 12.4878C6.53245 12.1753 6.10853 11.9997 5.6665 11.9997C4.34042 11.9997 3.06865 12.5265 2.13097 13.4641C1.19329 14.4018 0.666504 15.6736 0.666504 16.9997V28.6663C0.666504 29.9924 1.19329 31.2642 2.13097 32.2019C3.06865 33.1396 4.34042 33.6663 5.6665 33.6663H22.3332C23.6593 33.6663 24.931 33.1396 25.8687 32.2019C26.8064 31.2642 27.3332 29.9924 27.3332 28.6663V26.9997C27.3332 26.5576 27.1576 26.1337 26.845 25.8212C26.5325 25.5086 26.1085 25.333 25.6665 25.333ZM8.99984 26.9997H10.6665C11.1085 26.9997 11.5325 26.8241 11.845 26.5115C12.1576 26.199 12.3332 25.775 12.3332 25.333C12.3332 24.891 12.1576 24.4671 11.845 24.1545C11.5325 23.8419 11.1085 23.6663 10.6665 23.6663H8.99984C8.55781 23.6663 8.13389 23.8419 7.82133 24.1545C7.50877 24.4671 7.33317 24.891 7.33317 25.333C7.33317 25.775 7.50877 26.199 7.82133 26.5115C8.13389 26.8241 8.55781 26.9997 8.99984 26.9997Z" fill="#F5F5F5"/>
</svg>
