<svg width="55" height="55" viewBox="0 0 55 55" fill="none" xmlns="http://www.w3.org/2000/svg">
<rect width="55" height="55" rx="4" fill="#F1994C" fill-opacity="0.42"/>
<path d="M28.6666 26.3334C29.6555 26.3334 30.6222 26.0401 31.4445 25.4907C32.2667 24.9413 32.9076 24.1604 33.286 23.2468C33.6645 22.3332 33.7635 21.3278 33.5706 20.3579C33.3776 19.388 32.9014 18.4971 32.2022 17.7978C31.5029 17.0986 30.612 16.6224 29.6421 16.4294C28.6722 16.2365 27.6668 16.3355 26.7532 16.714C25.8396 17.0924 25.0587 17.7333 24.5093 18.5555C23.9599 19.3778 23.6666 20.3445 23.6666 21.3334C23.6666 22.6595 24.1934 23.9312 25.1311 24.8689C26.0688 25.8066 27.3405 26.3334 28.6666 26.3334ZM28.6666 19.6667C28.9963 19.6667 29.3185 19.7645 29.5926 19.9476C29.8667 20.1307 30.0803 20.391 30.2064 20.6956C30.3326 21.0001 30.3656 21.3352 30.3013 21.6585C30.237 21.9818 30.0782 22.2788 29.8451 22.5119C29.612 22.745 29.3151 22.9037 28.9918 22.968C28.6685 23.0323 28.3334 22.9993 28.0288 22.8732C27.7243 22.747 27.464 22.5334 27.2808 22.2593C27.0977 21.9852 27 21.663 27 21.3334C27 20.8913 27.1756 20.4674 27.4881 20.1549C27.8007 19.8423 28.2246 19.6667 28.6666 19.6667ZM35.5166 26.1C36.4917 24.7018 37.0145 23.0381 37.0145 21.3334C37.0145 19.6287 36.4917 17.965 35.5166 16.5667C35.9959 16.4121 36.4964 16.3334 37 16.3334C38.326 16.3334 39.5978 16.8602 40.5355 17.7978C41.4732 18.7355 42 20.0073 42 21.3334C42 22.6595 41.4732 23.9312 40.5355 24.8689C39.5978 25.8066 38.326 26.3334 37 26.3334C36.4964 26.3333 35.9959 26.2546 35.5166 26.1ZM28.6666 29.6667C18.6666 29.6667 18.6666 36.3334 18.6666 36.3334V39.6667H38.6666V36.3334C38.6666 36.3334 38.6666 29.6667 28.6666 29.6667ZM22 36.3334C22 35.85 22.5333 33 28.6666 33C34.5 33 35.2333 35.6 35.3333 36.3334M47 36.3334V39.6667H42V36.3334C41.961 35.0944 41.6757 33.8757 41.1606 32.7482C40.6455 31.6208 39.911 30.6072 39 29.7667C47 30.5834 47 36.3334 47 36.3334ZM19.2333 22.8667L21.1666 25.2167L13.25 33.1334L8.66663 28.1334L10.6 26.2L13.25 28.8334L19.2333 22.8667Z" fill="#F1994C"/>
</svg>
