<svg width="55" height="55" viewBox="0 0 55 55" fill="none" xmlns="http://www.w3.org/2000/svg">
<rect width="55" height="55" rx="4" fill="#B1350F" fill-opacity="0.42"/>
<path d="M42 15.5H12C11.337 15.5 10.7011 15.7634 10.2322 16.2322C9.76339 16.7011 9.5 17.337 9.5 18V38C9.5 38.663 9.76339 39.2989 10.2322 39.7678C10.7011 40.2366 11.337 40.5 12 40.5H42C42.663 40.5 43.2989 40.2366 43.7678 39.7678C44.2366 39.2989 44.5 38.663 44.5 38V18C44.5 17.337 44.2366 16.7011 43.7678 16.2322C43.2989 15.7634 42.663 15.5 42 15.5ZM39.25 18L27 26.475L14.75 18H39.25ZM12 38V19.1375L26.2875 29.025C26.4967 29.1702 26.7453 29.2479 27 29.2479C27.2547 29.2479 27.5033 29.1702 27.7125 29.025L42 19.1375V38H12Z" fill="#B1350F"/>
</svg>
