<svg width="55" height="55" viewBox="0 0 55 55" fill="none" xmlns="http://www.w3.org/2000/svg">
<rect width="55" height="55" rx="4" fill="#F1994C" fill-opacity="0.42"/>
<g clip-path="url(#clip0_212_452)">
<path fill-rule="evenodd" clip-rule="evenodd" d="M29 40C30.0609 40 31.0783 40.4214 31.8284 41.1716C32.5786 41.9217 33 42.9391 33 44C33 45.0609 32.5786 46.0783 31.8284 46.8284C31.0783 47.5786 30.0609 48 29 48C27.9391 48 26.9217 47.5786 26.1716 46.8284C25.4214 46.0783 25 45.0609 25 44C25 42.9391 25.4214 41.9217 26.1716 41.1716C26.9217 40.4214 27.9391 40 29 40ZM16.482 34C17.8081 34 19.0799 34.5268 20.0175 35.4645C20.9552 36.4021 21.482 37.6739 21.482 39C21.482 40.3261 20.9552 41.5979 20.0175 42.5355C19.0799 43.4732 17.8081 44 16.482 44C15.1559 44 13.8841 43.4732 12.9465 42.5355C12.0088 41.5979 11.482 40.3261 11.482 39C11.482 37.6739 12.0088 36.4021 12.9465 35.4645C13.8841 34.5268 15.1559 34 16.482 34ZM39.638 35C40.6989 35 41.7163 35.4214 42.4664 36.1716C43.2166 36.9217 43.638 37.9391 43.638 39C43.638 40.0609 43.2166 41.0783 42.4664 41.8284C41.7163 42.5786 40.6989 43 39.638 43C38.5771 43 37.5597 42.5786 36.8096 41.8284C36.0594 41.0783 35.638 40.0609 35.638 39C35.638 37.9391 36.0594 36.9217 36.8096 36.1716C37.5597 35.4214 38.5771 35 39.638 35ZM44 26.638C44.7957 26.638 45.5587 26.9541 46.1213 27.5167C46.6839 28.0793 47 28.8424 47 29.638C47 30.4336 46.6839 31.1967 46.1213 31.7593C45.5587 32.3219 44.7957 32.638 44 32.638C43.2043 32.638 42.4413 32.3219 41.8787 31.7593C41.3161 31.1967 41 30.4336 41 29.638C41 28.8424 41.3161 28.0793 41.8787 27.5167C42.4413 26.9541 43.2043 26.638 44 26.638ZM12 20C13.3261 20 14.5979 20.5268 15.5355 21.4645C16.4732 22.4021 17 23.6739 17 25C17 26.3261 16.4732 27.5979 15.5355 28.5355C14.5979 29.4732 13.3261 30 12 30C10.6739 30 9.40215 29.4732 8.46447 28.5355C7.52678 27.5979 7 26.3261 7 25C7 23.6739 7.52678 22.4021 8.46447 21.4645C9.40215 20.5268 10.6739 20 12 20ZM42.572 18.414C43.1024 18.414 43.6111 18.6247 43.9862 18.9998C44.3613 19.3749 44.572 19.8836 44.572 20.414C44.572 20.9444 44.3613 21.4531 43.9862 21.8282C43.6111 22.2033 43.1024 22.414 42.572 22.414C42.0416 22.414 41.5329 22.2033 41.1578 21.8282C40.7827 21.4531 40.572 20.9444 40.572 20.414C40.572 19.8836 40.7827 19.3749 41.1578 18.9998C41.5329 18.6247 42.0416 18.414 42.572 18.414ZM23 8C24.5913 8 26.1174 8.63214 27.2426 9.75736C28.3679 10.8826 29 12.4087 29 14C29 15.5913 28.3679 17.1174 27.2426 18.2426C26.1174 19.3679 24.5913 20 23 20C21.4087 20 19.8826 19.3679 18.7574 18.2426C17.6321 17.1174 17 15.5913 17 14C17 12.4087 17.6321 10.8826 18.7574 9.75736C19.8826 8.63214 21.4087 8 23 8ZM38 14C38.2652 14 38.5196 14.1054 38.7071 14.2929C38.8946 14.4804 39 14.7348 39 15C39 15.2652 38.8946 15.5196 38.7071 15.7071C38.5196 15.8946 38.2652 16 38 16C37.7348 16 37.4804 15.8946 37.2929 15.7071C37.1054 15.5196 37 15.2652 37 15C37 14.7348 37.1054 14.4804 37.2929 14.2929C37.4804 14.1054 37.7348 14 38 14Z" fill="#F1994C"/>
</g>
<defs>
<clipPath id="clip0_212_452">
<rect width="40" height="40" fill="white" transform="translate(7 8)"/>
</clipPath>
</defs>
</svg>
