<svg width="55" height="55" viewBox="0 0 55 55" fill="none" xmlns="http://www.w3.org/2000/svg">
<rect width="55" height="55" rx="4" fill="#B1350F" fill-opacity="0.42"/>
<path d="M29.5 25.5C29.5 26.8261 28.9732 28.0979 28.0355 29.0355C27.0979 29.9732 25.8261 30.5 24.5 30.5C23.1739 30.5 21.9021 29.9732 20.9645 29.0355C20.0268 28.0979 19.5 26.8261 19.5 25.5C19.5 24.1739 20.0268 22.9021 20.9645 21.9645C21.9021 21.0268 23.1739 20.5 24.5 20.5C25.8261 20.5 27.0979 21.0268 28.0355 21.9645C28.9732 22.9021 29.5 24.1739 29.5 25.5ZM27 25.5C27 24.837 26.7366 24.2011 26.2678 23.7322C25.7989 23.2634 25.163 23 24.5 23C23.837 23 23.2011 23.2634 22.7322 23.7322C22.2634 24.2011 22 24.837 22 25.5C22 26.163 22.2634 26.7989 22.7322 27.2678C23.2011 27.7366 23.837 28 24.5 28C25.163 28 25.7989 27.7366 26.2678 27.2678C26.7366 26.7989 27 26.163 27 25.5ZM9.5 18.625C9.5 16.9 10.9 15.5 12.625 15.5H36.375C38.1 15.5 39.5 16.9 39.5 18.625V32.375C39.5 34.1 38.1 35.5 36.375 35.5H12.625C10.9 35.5 9.5 34.1 9.5 32.375V18.625ZM12.625 18C12.4592 18 12.3003 18.0658 12.1831 18.1831C12.0658 18.3003 12 18.4592 12 18.625V20.5H13.25C13.5815 20.5 13.8995 20.3683 14.1339 20.1339C14.3683 19.8995 14.5 19.5815 14.5 19.25V18H12.625ZM12 32.375C12 32.72 12.28 33 12.625 33H14.5V31.75C14.5 31.4185 14.3683 31.1005 14.1339 30.8661C13.8995 30.6317 13.5815 30.5 13.25 30.5H12V32.375ZM17 31.75V33H32V31.75C32 30.7554 32.3951 29.8016 33.0983 29.0983C33.8016 28.3951 34.7554 28 35.75 28H37V23H35.75C34.7554 23 33.8016 22.6049 33.0983 21.9017C32.3951 21.1984 32 20.2446 32 19.25V18H17V19.25C17 20.2446 16.6049 21.1984 15.9017 21.9017C15.1984 22.6049 14.2446 23 13.25 23H12V28H13.25C14.2446 28 15.1984 28.3951 15.9017 29.0983C16.6049 29.8016 17 30.7554 17 31.75ZM34.5 33H36.375C36.5408 33 36.6997 32.9342 36.8169 32.8169C36.9342 32.6997 37 32.5408 37 32.375V30.5H35.75C35.4185 30.5 35.1005 30.6317 34.8661 30.8661C34.6317 31.1005 34.5 31.4185 34.5 31.75V33ZM37 20.5V18.625C37 18.4592 36.9342 18.3003 36.8169 18.1831C36.6997 18.0658 36.5408 18 36.375 18H34.5V19.25C34.5 19.5815 34.6317 19.8995 34.8661 20.1339C35.1005 20.3683 35.4185 20.5 35.75 20.5H37ZM18.25 40.5C17.458 40.5003 16.6863 40.2499 16.0455 39.7846C15.4046 39.3193 14.9275 38.6631 14.6825 37.91C15.0292 37.97 15.385 38 15.75 38H36.375C37.8668 38 39.2976 37.4074 40.3525 36.3525C41.4074 35.2976 42 33.8668 42 32.375V20.7125C42.7314 20.9711 43.3647 21.4502 43.8124 22.0838C44.2602 22.7173 44.5004 23.4742 44.5 24.25V32.375C44.5 33.442 44.2898 34.4985 43.8815 35.4843C43.4732 36.4701 42.8747 37.3658 42.1202 38.1202C41.3658 38.8747 40.4701 39.4732 39.4843 39.8815C38.4985 40.2898 37.442 40.5 36.375 40.5H18.25Z" fill="#B1350F"/>
</svg>
