<svg width="55" height="55" viewBox="0 0 55 55" fill="none" xmlns="http://www.w3.org/2000/svg">
<rect width="55" height="55" rx="4" fill="#1215C4" fill-opacity="0.42"/>
<path d="M20.3333 26.3333C21.487 26.3333 22.6148 25.9912 23.5741 25.3503C24.5334 24.7093 25.2811 23.7982 25.7226 22.7323C26.1641 21.6664 26.2796 20.4935 26.0545 19.362C25.8295 18.2304 25.2739 17.191 24.4581 16.3752C23.6423 15.5594 22.6029 15.0038 21.4713 14.7788C20.3398 14.5537 19.1669 14.6692 18.101 15.1107C17.0351 15.5522 16.124 16.2999 15.4831 17.2592C14.8421 18.2185 14.5 19.3463 14.5 20.5C14.5 22.0471 15.1145 23.5308 16.2085 24.6248C17.3025 25.7188 18.7862 26.3333 20.3333 26.3333ZM20.3333 18C20.8277 18 21.3111 18.1466 21.7222 18.4213C22.1333 18.696 22.4538 19.0865 22.643 19.5433C22.8322 20.0001 22.8817 20.5028 22.7853 20.9877C22.6888 21.4727 22.4507 21.9181 22.1011 22.2678C21.7514 22.6174 21.306 22.8555 20.821 22.952C20.3361 23.0484 19.8334 22.9989 19.3766 22.8097C18.9198 22.6205 18.5293 22.3001 18.2546 21.8889C17.9799 21.4778 17.8333 20.9945 17.8333 20.5C17.8333 19.837 18.0967 19.2011 18.5655 18.7322C19.0344 18.2634 19.6703 18 20.3333 18ZM33.6666 31.3333C32.5129 31.3333 31.3851 31.6755 30.4258 32.3164C29.4665 32.9574 28.7188 33.8685 28.2773 34.9344C27.8358 36.0003 27.7203 37.1731 27.9454 38.3047C28.1705 39.4363 28.726 40.4757 29.5418 41.2915C30.3576 42.1073 31.397 42.6628 32.5286 42.8879C33.6602 43.113 34.833 42.9975 35.8989 42.556C36.9648 42.1145 37.8759 41.3668 38.5169 40.4075C39.1578 39.4482 39.5 38.3204 39.5 37.1667C39.5 35.6196 38.8854 34.1359 37.7914 33.0419C36.6975 31.9479 35.2137 31.3333 33.6666 31.3333ZM33.6666 39.6667C33.1722 39.6667 32.6888 39.5201 32.2777 39.2454C31.8666 38.9706 31.5461 38.5802 31.3569 38.1234C31.1677 37.6666 31.1182 37.1639 31.2147 36.679C31.3111 36.194 31.5492 35.7485 31.8989 35.3989C32.2485 35.0493 32.6939 34.8112 33.1789 34.7147C33.6639 34.6183 34.1665 34.6678 34.6233 34.857C35.0801 35.0462 35.4706 35.3666 35.7453 35.7778C36.02 36.1889 36.1666 36.6722 36.1666 37.1667C36.1666 37.8297 35.9032 38.4656 35.4344 38.9344C34.9656 39.4033 34.3297 39.6667 33.6666 39.6667ZM39.9 15.1C39.7622 14.9619 39.5985 14.8524 39.4183 14.7776C39.2382 14.7029 39.045 14.6644 38.85 14.6644C38.6549 14.6644 38.4618 14.7029 38.2816 14.7776C38.1014 14.8524 37.9377 14.9619 37.8 15.1L14.1 38.8C13.8235 39.0797 13.6678 39.4567 13.6666 39.85C13.6662 40.1437 13.7529 40.4309 13.9159 40.6753C14.0789 40.9196 14.3107 41.1101 14.582 41.2226C14.8533 41.335 15.1519 41.3644 15.44 41.307C15.728 41.2496 15.9925 41.1079 16.2 40.9L39.9 17.2C40.038 17.0622 40.1476 16.8986 40.2223 16.7184C40.2971 16.5382 40.3355 16.3451 40.3355 16.15C40.3355 15.955 40.2971 15.7618 40.2223 15.5816C40.1476 15.4015 40.038 15.2378 39.9 15.1Z" fill="#1215C4"/>
</svg>
