<svg width="55" height="55" viewBox="0 0 55 55" fill="none" xmlns="http://www.w3.org/2000/svg">
<rect width="55" height="55" rx="4" fill="#1280C4" fill-opacity="0.42"/>
<path d="M21.1167 22.1167C21.3511 21.8826 21.6688 21.7511 22.0001 21.7511C22.3313 21.7511 22.649 21.8826 22.8834 22.1167L27.0001 26.2333L31.1167 22.1167C31.2312 21.9938 31.3692 21.8953 31.5225 21.827C31.6758 21.7587 31.8413 21.722 32.0092 21.719C32.177 21.716 32.3437 21.7469 32.4994 21.8098C32.655 21.8727 32.7964 21.9662 32.9151 22.0849C33.0338 22.2036 33.1274 22.345 33.1903 22.5007C33.2531 22.6563 33.284 22.823 33.281 22.9909C33.2781 23.1587 33.2413 23.3242 33.173 23.4776C33.1047 23.6309 33.0062 23.7689 32.8834 23.8833L28.7667 28L32.8834 32.1167C33.1042 32.3536 33.2244 32.667 33.2187 32.9909C33.213 33.3147 33.0818 33.6237 32.8528 33.8527C32.6237 34.0817 32.3148 34.2129 31.9909 34.2186C31.6671 34.2243 31.3537 34.1041 31.1167 33.8833L27.0001 29.7667L22.8834 33.8833C22.7689 34.0061 22.6309 34.1046 22.4776 34.173C22.3243 34.2413 22.1588 34.278 21.9909 34.281C21.8231 34.2839 21.6564 34.2531 21.5007 34.1902C21.3451 34.1273 21.2037 34.0338 21.085 33.9151C20.9663 33.7964 20.8727 33.655 20.8098 33.4993C20.747 33.3437 20.7161 33.177 20.7191 33.0091C20.722 32.8413 20.7588 32.6758 20.8271 32.5224C20.8954 32.3691 20.9939 32.2311 21.1167 32.1167L25.2334 28L21.1167 23.8833C20.8826 23.6489 20.7512 23.3312 20.7512 23C20.7512 22.6687 20.8826 22.351 21.1167 22.1167Z" fill="#1280C4"/>
<path fill-rule="evenodd" clip-rule="evenodd" d="M19.1949 14.2817C24.3824 13.7066 29.6175 13.7066 34.8049 14.2817C37.8499 14.6217 40.3083 17.02 40.6649 20.0817C41.2816 25.3433 41.2816 30.6583 40.6649 35.92C40.3066 38.9817 37.8483 41.3783 34.8049 41.72C29.6175 42.2951 24.3824 42.2951 19.1949 41.72C16.1499 41.3783 13.6916 38.9817 13.3349 35.92C12.721 30.6584 12.721 25.3433 13.3349 20.0817C13.6916 17.02 16.1516 14.6217 19.1949 14.2817ZM34.5283 16.765C29.5247 16.2104 24.4752 16.2104 19.4716 16.765C18.5453 16.8678 17.6808 17.2798 17.0176 17.9345C16.3544 18.5893 15.9313 19.4485 15.8166 20.3733C15.2238 25.4416 15.2238 30.5617 15.8166 35.63C15.9316 36.5546 16.3549 37.4134 17.018 38.0678C17.6812 38.7222 18.5456 39.134 19.4716 39.2367C24.4333 39.79 29.5666 39.79 34.5283 39.2367C35.454 39.1336 36.318 38.7217 36.9808 38.0673C37.6437 37.4129 38.0667 36.5543 38.1816 35.63C38.7744 30.5617 38.7744 25.4416 38.1816 20.3733C38.0663 19.4493 37.6432 18.5911 36.9804 17.937C36.3175 17.283 35.4537 16.8713 34.5283 16.7683" fill="#1280C4"/>
</svg>
